<?xml version="1.0" encoding="UTF-8" standalone="no"?>
<svg
   width="1024"
   height="1024"
   viewBox="0 0 412.42999 412.43"
   version="1.1"
   id="svg5"
   inkscape:export-filename="bitmap.png"
   inkscape:export-xdpi="96"
   inkscape:export-ydpi="96"
   xml:space="preserve"
   inkscape:version="1.2.2 (b0a8486541, 2022-12-01)"
   sodipodi:docname="Logo Light.svg"
   xmlns:inkscape="http://www.inkscape.org/namespaces/inkscape"
   xmlns:sodipodi="http://sodipodi.sourceforge.net/DTD/sodipodi-0.dtd"
   xmlns="http://www.w3.org/2000/svg"
   xmlns:svg="http://www.w3.org/2000/svg"><sodipodi:namedview
     id="namedview7"
     pagecolor="#505050"
     bordercolor="#eeeeee"
     borderopacity="1"
     inkscape:showpageshadow="0"
     inkscape:pageopacity="0"
     inkscape:pagecheckerboard="0"
     inkscape:deskcolor="#505050"
     inkscape:document-units="mm"
     showgrid="false"
     inkscape:zoom="0.5"
     inkscape:cx="659"
     inkscape:cy="511"
     inkscape:window-width="1920"
     inkscape:window-height="1043"
     inkscape:window-x="0"
     inkscape:window-y="0"
     inkscape:window-maximized="1"
     inkscape:current-layer="layer7" /><defs
     id="defs2"><linearGradient
       id="linearGradient33604"
       inkscape:swatch="solid"><stop
         style="stop-color:#000000;stop-opacity:1;"
         offset="0"
         id="stop33602" /></linearGradient><linearGradient
       id="linearGradient27441"
       inkscape:swatch="solid"><stop
         style="stop-color:#000000;stop-opacity:1;"
         offset="0"
         id="stop27439" /></linearGradient><linearGradient
       id="linearGradient27431"
       inkscape:swatch="solid"><stop
         style="stop-color:#000000;stop-opacity:1;"
         offset="0"
         id="stop27429" /></linearGradient><linearGradient
       id="linearGradient26695"
       inkscape:swatch="solid"><stop
         style="stop-color:#f5a623;stop-opacity:1;"
         offset="0"
         id="stop26693" /></linearGradient><linearGradient
       id="linearGradient25949"
       inkscape:swatch="solid"><stop
         style="stop-color:#000000;stop-opacity:1;"
         offset="0"
         id="stop25947" /></linearGradient><linearGradient
       id="linearGradient25937"
       inkscape:swatch="solid"><stop
         style="stop-color:#000000;stop-opacity:1;"
         offset="0"
         id="stop25935" /></linearGradient><linearGradient
       id="linearGradient25927"
       inkscape:swatch="solid"><stop
         style="stop-color:#1e3a8a;stop-opacity:1;"
         offset="0"
         id="stop25925" /></linearGradient><linearGradient
       id="linearGradient25921"
       inkscape:swatch="solid"><stop
         style="stop-color:#1e3a8a;stop-opacity:1;"
         offset="0"
         id="stop25919" /></linearGradient><linearGradient
       id="linearGradient25915"
       inkscape:swatch="solid"><stop
         style="stop-color:#000000;stop-opacity:1;"
         offset="0"
         id="stop25913" /></linearGradient><linearGradient
       id="linearGradient25183"
       inkscape:swatch="solid"><stop
         style="stop-color:#1e3a8a;stop-opacity:1;"
         offset="0"
         id="stop25181" /></linearGradient><linearGradient
       id="linearGradient21063"
       inkscape:swatch="solid"><stop
         style="stop-color:#000000;stop-opacity:1;"
         offset="0"
         id="stop21061" /></linearGradient><linearGradient
       id="linearGradient20296"
       inkscape:swatch="solid"><stop
         style="stop-color:#950015;stop-opacity:1;"
         offset="0"
         id="stop20294" /></linearGradient></defs><g
     inkscape:groupmode="layer"
     id="layer7"
     inkscape:label="backgound"><g
       transform="matrix(0.05467356,0,0,-0.05570906,-14.950428,466.97817)"
       fill="#000000"
       stroke="none"
       id="g10874"
       style="fill:#b7410e;fill-opacity:1;stroke:#ffffff;stroke-width:24.46582303;stroke-dasharray:none;stroke-dashoffset:0;stroke-opacity:1"><path
         d="m 1968,4583 c -21,-26 -82,-179 -124,-313 -36,-116 -56,-158 -119,-260 -19,-30 -39,-64 -45,-75 -5,-11 -26,-40 -44,-65 -50,-65 -138,-215 -171,-290 -15,-36 -36,-76 -45,-90 -9,-14 -31,-52 -47,-85 -42,-83 -93,-174 -117,-210 -33,-47 -41,-62 -102,-185 -32,-63 -72,-133 -89,-155 -33,-42 -99,-148 -112,-181 -7,-16 -69,-128 -103,-184 -5,-8 -31,-51 -57,-95 -80,-134 -240,-316 -310,-354 -20,-10 -23,-20 -23,-69 0,-32 5,-63 12,-70 7,-7 41,-12 81,-12 70,0 70,0 137,55 78,64 192,195 269,310 30,44 93,136 141,205 48,69 102,151 120,183 50,89 159,146 308,161 l 71,7 -2,-158 c -2,-180 5,-204 78,-255 75,-52 304,-98 340,-68 10,8 15,32 15,71 0,54 -2,60 -29,73 -16,9 -48,18 -72,22 -57,9 -114,40 -128,71 -6,13 -11,45 -11,72 0,48 52,531 70,651 6,36 15,94 20,130 5,36 16,115 25,175 25,173 73,383 101,436 44,89 111,252 139,342 32,103 32,190 0,213 -29,22 -158,19 -177,-3 z M 1666,3340 c -8,-52 -19,-142 -25,-200 -7,-58 -14,-119 -17,-136 l -4,-31 -108,-10 c -59,-5 -109,-8 -111,-7 -3,3 68,131 246,442 14,24 26,42 28,40 2,-2 -2,-46 -9,-98 z"
         id="path10862"
         style="fill:#b7410e;fill-opacity:1;stroke:#ffffff;stroke-width:24.46582303;stroke-dasharray:none;stroke-dashoffset:0;stroke-opacity:1" /><path
         d="m 4526,4498 c -9,-12 -16,-26 -16,-30 0,-5 -34,-95 -75,-201 -42,-105 -99,-250 -127,-322 -44,-114 -136,-325 -237,-550 -18,-38 -53,-112 -79,-163 -44,-87 -50,-95 -104,-125 -66,-36 -83,-66 -75,-133 4,-43 1,-53 -47,-128 -29,-44 -73,-115 -98,-156 -26,-41 -60,-88 -77,-104 -27,-26 -31,-37 -31,-80 0,-46 3,-54 34,-78 29,-23 45,-28 91,-28 71,0 95,12 95,49 0,16 8,39 19,52 18,24 233,372 285,462 31,52 38,55 142,61 82,5 244,35 261,48 23,18 31,-3 42,-119 27,-279 33,-321 46,-368 19,-64 77,-129 130,-144 55,-15 214,-14 245,2 23,11 25,18 25,77 v 65 l -70,3 c -81,4 -94,13 -129,86 -23,50 -34,121 -51,346 -3,41 -10,111 -15,155 -58,470 -65,1034 -15,1175 18,51 20,141 3,158 -7,7 -41,12 -84,12 -64,0 -75,-3 -88,-22 z m -89,-825 c -11,-19 18,-360 37,-432 12,-47 12,-49 -5,-40 -10,5 -70,9 -133,9 h -115 l 16,38 c 8,20 51,115 94,210 44,95 84,184 89,197 5,14 12,25 15,25 4,0 4,-3 2,-7 z m 60,-545 c -3,-8 -6,-5 -6,6 -1,11 2,17 5,13 3,-3 4,-12 1,-19 z"
         id="path10864"
         style="fill:#b7410e;fill-opacity:1;stroke:#ffffff;stroke-width:24.46582303;stroke-dasharray:none;stroke-dashoffset:0;stroke-opacity:1" /><path
         d="m 3478,4373 c -19,-21 -47,-58 -60,-81 -33,-56 -105,-106 -276,-189 -122,-60 -139,-65 -215,-70 -45,-3 -88,-10 -94,-16 -19,-14 -16,-102 3,-121 12,-13 39,-16 129,-16 127,0 201,18 318,76 l 67,34 v -32 c -1,-49 -18,-214 -30,-288 -6,-36 -13,-195 -16,-355 -5,-304 -24,-620 -49,-792 -28,-202 -108,-440 -190,-563 -49,-73 -44,-69 -197,-147 l -112,-57 -83,3 c -120,3 -123,2 -123,-69 0,-53 3,-61 31,-84 29,-25 37,-26 142,-26 95,0 123,4 182,25 142,52 195,82 270,158 60,60 81,90 123,177 127,267 167,484 192,1040 28,631 56,993 86,1115 11,45 26,73 65,117 47,54 50,61 50,113 1,77 -8,85 -100,85 -76,0 -77,-1 -113,-37 z"
         id="path10866"
         style="fill:#b7410e;fill-opacity:1;stroke:#ffffff;stroke-width:24.46582303;stroke-dasharray:none;stroke-dashoffset:0;stroke-opacity:1" /><path
         d="m 2517,4372 c -25,-27 -62,-143 -112,-347 -39,-161 -54,-243 -86,-480 -42,-311 -51,-766 -19,-958 23,-137 48,-192 117,-259 64,-62 121,-88 200,-88 49,0 73,-6 111,-27 72,-40 116,-16 47,27 -31,19 -34,25 -37,77 -3,60 -5,62 -73,83 -50,15 -100,62 -130,120 -21,42 -28,68 -55,208 -33,173 11,698 91,1092 34,170 92,377 120,431 21,42 25,90 9,120 -9,16 -22,19 -89,19 -63,0 -81,-4 -94,-18 z"
         id="path10868"
         style="fill:#b7410e;fill-opacity:1;stroke:#ffffff;stroke-width:24.46582303;stroke-dasharray:none;stroke-dashoffset:0;stroke-opacity:1" /><path
         d="m 6895,4266 c -103,-33 -208,-103 -327,-218 -72,-69 -89,-110 -71,-171 l 9,-32 79,-3 c 65,-2 83,0 104,16 14,10 41,26 59,36 25,13 32,23 32,46 0,23 11,37 55,72 52,41 128,88 142,88 3,0 3,-34 1,-75 -5,-67 -11,-86 -71,-203 -36,-71 -84,-154 -106,-183 -36,-47 -41,-61 -41,-106 0,-64 13,-73 99,-73 58,0 62,2 118,51 99,87 341,237 378,235 46,-4 84,-77 85,-164 0,-81 -65,-356 -130,-546 -169,-496 -279,-732 -486,-1046 -150,-228 -303,-379 -544,-538 -250,-165 -423,-231 -579,-219 -82,6 -101,19 -101,68 0,27 -21,54 -33,42 -4,-3 -7,-22 -7,-42 v -36 h -97 -98 l -3,-62 c -4,-74 -4,-73 129,-104 83,-18 115,-20 279,-16 146,4 200,9 256,26 212,61 521,257 720,455 190,190 321,380 479,696 140,280 305,725 359,970 10,41 24,103 32,137 20,88 19,337 -2,400 -18,54 -62,106 -105,123 -19,8 -75,11 -166,8 l -138,-3 4,133 c 3,148 -8,213 -43,237 -26,19 -213,19 -271,1 z"
         id="path10870"
         style="fill:#b7410e;fill-opacity:1;stroke:#ffffff;stroke-width:24.46582303;stroke-dasharray:none;stroke-dashoffset:0;stroke-opacity:1" /><path
         d="m 6037,4156 c -52,-19 -144,-92 -186,-148 -19,-27 -38,-48 -42,-48 -4,0 -9,12 -12,28 -8,37 -48,94 -77,109 -15,7 -63,13 -115,13 -149,0 -215,-45 -336,-224 -79,-117 -110,-179 -159,-322 -87,-251 -114,-456 -107,-798 4,-204 8,-253 26,-321 12,-44 28,-86 36,-94 23,-23 139,-27 170,-7 22,14 25,24 25,72 0,38 -4,56 -14,60 -33,13 -61,244 -53,429 13,264 76,532 170,720 43,88 143,238 180,273 l 24,23 25,-33 c 27,-37 41,-71 59,-143 10,-46 9,-57 -10,-112 -46,-130 -72,-272 -78,-431 -6,-150 -5,-153 17,-177 20,-22 32,-25 90,-25 84,0 106,16 144,99 43,97 56,178 56,366 v 171 l 36,69 c 46,87 110,178 163,230 l 41,39 40,-39 c 24,-23 48,-61 60,-93 53,-141 52,-516 -2,-729 -6,-24 -40,-124 -76,-221 -58,-158 -66,-187 -69,-264 -3,-55 -1,-88 6,-88 5,0 11,-17 13,-37 2,-30 8,-39 25,-41 16,-2 26,5 38,27 13,26 21,31 53,31 21,0 48,7 60,16 19,13 22,24 22,79 0,48 7,80 31,135 42,100 83,237 104,350 23,120 32,512 16,674 -20,204 -87,352 -174,385 -39,15 -174,13 -220,-3 z"
         id="path10872"
         style="fill:#b7410e;fill-opacity:1;stroke:#ffffff;stroke-width:24.46582303;stroke-dasharray:none;stroke-dashoffset:0;stroke-opacity:1" /></g></g><g
     inkscape:groupmode="layer"
     id="layer5"
     inkscape:label="Layer 1"
     style="display:inline" /><g
     inkscape:groupmode="layer"
     id="layer8"
     inkscape:label="Layer 3" /><g
     inkscape:groupmode="layer"
     id="layer6"
     inkscape:label="Layer 2"
     style="display:inline"><path
       style="fill:#18181b;fill-opacity:1;stroke:#ffffff;stroke-width:3.2758;stroke-dasharray:none;stroke-opacity:1"
       d="m 352.0733,9.0763483 c -15.0088,0.110914 -31.69113,3.4584557 -37.88174,8.6082947 -2.31858,1.928768 -1.65218,9.25565 0.90346,9.935101 1.96656,0.52285 3.63291,0.123774 3.63291,-0.869838 0,-1.976263 21.06862,-6.362305 30.4971,-6.349011 16.436,0.02319 32.29165,8.732712 32.29165,17.737469 0,4.019897 -7.73988,13.060981 -17.37435,20.294583 -18.25405,13.705233 -24.26455,21.257491 -24.13246,30.323 0.11872,8.134232 1.48575,10.277032 8.22986,12.898073 6.38954,2.48325 9.48155,2.79524 19.95475,2.01066 10.2526,-0.76806 9.90506,-0.89033 7.94179,2.78273 -4.93757,9.23751 -1.34503,25.1353 9.35975,41.41683 14.05229,21.37305 14.19164,21.67936 12.61154,27.80805 -2.30506,8.94063 -11.72163,14.55197 -37.73269,22.48358 -17.23936,5.25684 -20.68507,7.47591 -14.50029,9.33944 3.21896,0.96988 7.96407,0.94334 12.57679,-0.0702 1.76192,-0.38719 4.19548,-0.70563 5.40738,-0.70688 10.5482,-0.0163 33.26384,-9.32311 37.98599,-15.56319 9.57525,-12.65322 8.41973,-24.11952 -4.48596,-44.52486 -15.65198,-24.74748 -16.90567,-28.31556 -12.07577,-34.35455 4.43073,-5.53989 10.46201,-10.35248 15.90037,-12.687801 8.30267,-3.56526 12.33859,-14.144341 5.39617,-14.144341 -1.72035,0 -3.48291,0.247049 -3.91765,0.549641 -2.32192,1.616161 -27.43628,5.514139 -35.51997,5.51304 -6.79246,-7.72e-4 -13.79836,-1.458815 -16.28482,-3.387972 -2.65104,-2.056845 0.18307,-5.457199 14.93522,-17.918336 32.19698,-27.196904 34.01565,-50.74298 4.5678,-59.13383 C 365.37157,9.6445963 358.89549,9.0260383 352.0733,9.0764533 Z"
       id="path27457" /><path
       style="fill:#18181b;fill-opacity:1;stroke:#ffffff;stroke-width:2.50082;stroke-dasharray:none;stroke-opacity:1"
       d="M 71.946881,8.6838656 C 63.010876,8.5817691 52.316095,9.751093 45.558526,11.951944 29.2377,17.267421 17.894677,37.298683 23.753763,50.457393 c 0.932055,2.093278 1.888012,5.034212 2.124956,6.535542 0.866173,5.488223 7.587893,19.424196 12.701497,26.334482 1.272378,1.71944 2.313204,3.319925 2.313204,3.556848 0,1.252896 -8.804379,3.519992 -16.078197,4.139939 -2.308417,0.196751 -4.704095,0.703626 -5.323608,1.126225 -1.315387,0.897315 -1.512406,4.17664 -0.282014,4.695365 0.464708,0.195821 0.676418,0.79478 0.47093,1.330824 -0.205496,0.536052 0.02639,1.074029 0.515099,1.19565 0.649839,0.16173 0.621303,0.529718 -0.106015,1.368922 -0.63849,0.73675 -0.744197,1.4525 -0.295605,1.99932 0.384322,0.46845 0.535574,1.27693 0.336377,1.79654 -0.276047,0.72012 0.638204,1.26761 3.844223,2.30221 2.313413,0.74658 5.547119,2.14792 7.186257,3.11449 3.953126,2.33107 4.37729,6.31632 2.043413,19.18943 -7.281916,40.16528 8.951297,68.0559 43.812036,75.27517 4.550896,0.94245 13.86133,0.50248 17.952394,-0.84852 6.73226,-2.22317 6.3785,-6.90868 -0.569461,-7.5444 -3.947228,-0.36116 -3.974087,-0.38405 -2.924793,-2.43738 1.06071,-2.07561 1.253738,-1.94157 -5.028683,-3.49604 -15.976727,-3.9531 -28.868168,-14.94401 -37.610458,-32.06759 -5.274233,-10.33072 -6.215903,-14.7969 -7.152267,-33.91575 -0.39255,-8.01516 -1.080456,-16.00357 -1.528996,-17.75233 -0.81551,-3.17955 -0.815635,-3.17994 1.709755,-4.66895 2.352926,-1.38731 2.392518,-1.46337 0.583049,-1.11761 -1.496397,0.28592 -1.161274,-0.0411 1.459003,-1.425451 11.136523,-5.883674 9.527052,-18.690202 -4.222055,-33.59258 -9.551847,-10.353044 -12.526803,-20.389048 -8.654767,-29.196433 3.503342,-7.968775 8.399895,-12.682163 15.597056,-15.014482 5.319548,-1.723851 15.905619,-3.403584 17.151215,-2.721249 0.445444,0.244015 2.34887,0.617002 4.230198,0.828849 2.14398,0.241422 4.10073,0.88603 5.243421,1.727121 1.915387,1.409832 2.26722,1.10893 1.864009,-1.595023 -0.290964,-1.951241 8.243429,-0.180933 12.497622,2.592221 2.581176,1.682578 2.972657,1.272725 3.692022,-3.864676 0.669582,-4.781919 -0.108488,-5.756456 -6.402052,-8.015671 C 82.036958,9.2637496 77.308472,8.745119 71.946881,8.6838656 Z"
       id="path27552" /><path
       style="fill:#b7410e;fill-opacity:1;stroke:#ffffff;stroke-width:3.73176;stroke-dasharray:none;stroke-opacity:1"
       d="m 292.65839,65.776365 c -21.46469,-0.37237 -90.43874,3.32516 -114.785,6.47656 -31.96666,4.13779 -88.307594,6.097875 -94.827242,3.29797 -5.014744,-2.15362 -11.805359,1.592335 -13.335714,7.356645 -1.707604,6.43199 -2.323952,28.25266 -0.943216,33.39166 1.491601,5.55166 1.491924,5.54966 34.930682,5.54966 20.36339,0 33.62088,-0.76603 33.90441,-1.95912 0.26202,-1.10273 14.50706,-2.90927 32.58852,-4.13358 17.66814,-1.19635 45.95207,-3.53117 62.85204,-5.18922 16.89995,-1.65803 39.06483,-3.56199 49.25605,-4.22955 21.15704,-1.3858 19.08767,1.05335 20.57598,-24.24673 0.8544,-14.523805 0.85411,-14.523715 -4.19558,-15.892985 -0.85862,-0.23281 -2.95455,-0.36811 -6.02093,-0.42133 z"
       id="path27554" /><path
       style="display:inline;fill:#00add8;fill-opacity:1;stroke:#ffffff;stroke-width:3.73176;stroke-dasharray:none;stroke-opacity:1"
       d="m 302.843,80.621129 c -21.46469,-0.372367 -90.43874,3.32516 -114.785,6.47656 -31.96666,4.13779 -88.307586,6.09787 -94.827236,3.29797 -5.01474,-2.15362 -11.80536,1.59233 -13.33571,7.35664 -1.70761,6.431991 -2.32395,28.252661 -0.94322,33.391661 1.4916,5.55166 1.49193,5.54966 34.930686,5.54966 20.36338,0 33.62087,-0.76603 33.9044,-1.95912 0.26202,-1.10273 14.50706,-2.90927 32.58852,-4.13358 17.66814,-1.19635 45.95207,-3.53117 62.85204,-5.18922 16.89995,-1.65803 39.06483,-3.56199 49.25605,-4.22955 21.15704,-1.3858 19.08767,1.05335 20.57598,-24.246731 0.8544,-14.5238 0.85411,-14.52371 -4.19558,-15.89298 -0.85862,-0.23281 -2.95455,-0.36811 -6.02093,-0.42133 z"
       id="path27554-3" /><path
       style="display:inline;fill:#ffde57;fill-opacity:1;stroke:#ffffff;stroke-width:3.73105039;stroke-dasharray:none;stroke-opacity:1"
       d="m 319.12509,95.694965 c -21.46469,-0.37237 -90.43874,3.32516 -114.785,6.476555 -31.96666,4.13779 -88.30758,6.09788 -94.82723,3.29797 -5.01474,-2.15362 -11.805363,1.59234 -13.335713,7.35665 -1.7076,6.43199 -2.323953,28.25266 -0.94322,33.39166 1.4916,5.55166 1.49193,5.54966 34.930683,5.54966 20.36338,0 33.62087,-0.76603 33.9044,-1.95912 0.26202,-1.10273 14.50706,-2.90927 32.58852,-4.13358 17.66814,-1.19635 45.95207,-3.53117 62.85204,-5.18922 16.89995,-1.65803 39.06483,-3.56199 49.25605,-4.22955 21.15704,-1.3858 19.08767,1.05335 20.57598,-24.24673 0.8544,-14.523805 0.85411,-14.523715 -4.19558,-15.892985 -0.85862,-0.23281 -2.95455,-0.36811 -6.02093,-0.42133 z"
       id="path27554-6" /><path
       style="fill:#ffffff;stroke-width:0.513125"
       d="m 166.62817,411.18511 c -0.0972,0.0187 -0.0975,0.14826 -0.0274,0.39325 0.1067,0.37287 -0.24381,0.60701 -0.85317,0.57051 -0.64866,-0.0388 -1.03353,0.25157 -1.03353,0.7798 0,0.0191 -0.0101,0.0287 -0.0108,0.047 1.85991,-0.34753 3.7006,-0.77283 5.51645,-1.29914 -0.0732,-0.0438 -0.0705,-0.0684 -0.18396,-0.12247 -0.54632,-0.26082 -1.09122,-0.26187 -1.43351,-0.004 -0.34229,0.25826 -0.86185,0.22248 -1.36736,-0.094 -0.31567,-0.19773 -0.50948,-0.29 -0.60668,-0.2713 z"
       id="path27572" /></g></svg>
