<?xml version="1.0" encoding="UTF-8" standalone="no"?>
<!-- Created with Inkscape (http://www.inkscape.org/) -->

<svg
   width="412.42999mm"
   height="412.42999mm"
   viewBox="0 0 412.42999 412.43"
   version="1.1"
   id="svg5"
   inkscape:export-filename="bitmap.png"
   inkscape:export-xdpi="96"
   inkscape:export-ydpi="96"
   xml:space="preserve"
   inkscape:version="1.2.2 (b0a8486541, 2022-12-01)"
   sodipodi:docname="Aljam3-lightmode.svg"
   xmlns:inkscape="http://www.inkscape.org/namespaces/inkscape"
   xmlns:sodipodi="http://sodipodi.sourceforge.net/DTD/sodipodi-0.dtd"
   xmlns:xlink="http://www.w3.org/1999/xlink"
   xmlns="http://www.w3.org/2000/svg"
   xmlns:svg="http://www.w3.org/2000/svg"><sodipodi:namedview
     id="namedview7"
     pagecolor="#505050"
     bordercolor="#eeeeee"
     borderopacity="1"
     inkscape:showpageshadow="0"
     inkscape:pageopacity="0"
     inkscape:pagecheckerboard="0"
     inkscape:deskcolor="#505050"
     inkscape:document-units="mm"
     showgrid="false"
     inkscape:zoom="0.5"
     inkscape:cx="646"
     inkscape:cy="817"
     inkscape:window-width="1920"
     inkscape:window-height="1043"
     inkscape:window-x="0"
     inkscape:window-y="0"
     inkscape:window-maximized="1"
     inkscape:current-layer="layer8" /><defs
     id="defs2"><linearGradient
       inkscape:collect="always"
       id="linearGradient40533"><stop
         style="stop-color:#be3d27;stop-opacity:1;"
         offset="0"
         id="stop40529" /><stop
         style="stop-color:#ffffff;stop-opacity:0.49803922;"
         offset="1"
         id="stop48129" /><stop
         style="stop-color:#be3d27;stop-opacity:0;"
         offset="1"
         id="stop40531" /></linearGradient><linearGradient
       id="linearGradient33604"
       inkscape:swatch="solid"><stop
         style="stop-color:#000000;stop-opacity:1;"
         offset="0"
         id="stop33602" /></linearGradient><linearGradient
       id="linearGradient27441"
       inkscape:swatch="solid"><stop
         style="stop-color:#000000;stop-opacity:1;"
         offset="0"
         id="stop27439" /></linearGradient><linearGradient
       id="linearGradient27431"
       inkscape:swatch="solid"><stop
         style="stop-color:#000000;stop-opacity:1;"
         offset="0"
         id="stop27429" /></linearGradient><linearGradient
       id="linearGradient26695"
       inkscape:swatch="solid"><stop
         style="stop-color:#f5a623;stop-opacity:1;"
         offset="0"
         id="stop26693" /></linearGradient><linearGradient
       id="linearGradient25949"
       inkscape:swatch="solid"><stop
         style="stop-color:#000000;stop-opacity:1;"
         offset="0"
         id="stop25947" /></linearGradient><linearGradient
       id="linearGradient25937"
       inkscape:swatch="solid"><stop
         style="stop-color:#000000;stop-opacity:1;"
         offset="0"
         id="stop25935" /></linearGradient><linearGradient
       id="linearGradient25927"
       inkscape:swatch="solid"><stop
         style="stop-color:#1e3a8a;stop-opacity:1;"
         offset="0"
         id="stop25925" /></linearGradient><linearGradient
       id="linearGradient25921"
       inkscape:swatch="solid"><stop
         style="stop-color:#1e3a8a;stop-opacity:1;"
         offset="0"
         id="stop25919" /></linearGradient><linearGradient
       id="linearGradient25915"
       inkscape:swatch="solid"><stop
         style="stop-color:#000000;stop-opacity:1;"
         offset="0"
         id="stop25913" /></linearGradient><linearGradient
       id="linearGradient25183"
       inkscape:swatch="solid"><stop
         style="stop-color:#1e3a8a;stop-opacity:1;"
         offset="0"
         id="stop25181" /></linearGradient><linearGradient
       id="linearGradient21063"
       inkscape:swatch="solid"><stop
         style="stop-color:#000000;stop-opacity:1;"
         offset="0"
         id="stop21061" /></linearGradient><linearGradient
       id="linearGradient20296"
       inkscape:swatch="solid"><stop
         style="stop-color:#950015;stop-opacity:1;"
         offset="0"
         id="stop20294" /></linearGradient><linearGradient
       inkscape:collect="always"
       xlink:href="#linearGradient32112"
       id="linearGradient32114"
       x1="-5.9037356"
       y1="76.249077"
       x2="142.78526"
       y2="76.249077"
       gradientUnits="userSpaceOnUse"
       gradientTransform="matrix(1.1163195,0,0,1.0982361,-11.277109,-7.074161)" /><linearGradient
       inkscape:collect="always"
       id="linearGradient32112"><stop
         style="stop-color:#00add8;stop-opacity:1;"
         offset="0"
         id="stop32108" /><stop
         style="stop-color:#8a8a8a;stop-opacity:0.7225517;"
         offset="1"
         id="stop32110" /></linearGradient><linearGradient
       inkscape:collect="always"
       xlink:href="#linearGradient30650"
       id="linearGradient30652"
       x1="-7.2258162"
       y1="131.53201"
       x2="145.9556"
       y2="131.53201"
       gradientUnits="userSpaceOnUse"
       gradientTransform="matrix(1.1355216,0,0,0.98967833,-14.04851,-1.5214847)" /><linearGradient
       inkscape:collect="always"
       id="linearGradient30650"><stop
         style="stop-color:#ce422b;stop-opacity:1;"
         offset="0"
         id="stop30646" /><stop
         style="stop-color:#ffffff;stop-opacity:0;"
         offset="1"
         id="stop30648" /></linearGradient><linearGradient
       inkscape:collect="always"
       xlink:href="#linearGradient29914"
       id="linearGradient27720"
       x1="-0.38246065"
       y1="142.05501"
       x2="146.98373"
       y2="64.140099"
       gradientUnits="userSpaceOnUse"
       gradientTransform="matrix(1.0206463,0,0,0.9995926,0.79413833,34.129275)" /><linearGradient
       inkscape:collect="always"
       id="linearGradient29914"><stop
         style="stop-color:#ffd43b;stop-opacity:1;"
         offset="0"
         id="stop29910" /><stop
         style="stop-color:#ffffff;stop-opacity:0;"
         offset="1"
         id="stop29912" /></linearGradient><linearGradient
       inkscape:collect="always"
       xlink:href="#linearGradient33612"
       id="linearGradient33614"
       x1="266.08316"
       y1="54.9995"
       x2="473.53333"
       y2="54.9995"
       gradientUnits="userSpaceOnUse"
       gradientTransform="matrix(1.0789548,0,0,0.9954111,-31.871942,-0.51043323)" /><linearGradient
       inkscape:collect="always"
       id="linearGradient33612"><stop
         style="stop-color:#00599c;stop-opacity:1;"
         offset="0"
         id="stop33608" /><stop
         style="stop-color:#ffffff;stop-opacity:0.74901962;"
         offset="0.98485684"
         id="stop33618" /><stop
         style="stop-color:#00add8;stop-opacity:0.08627451;"
         offset="1"
         id="stop33616" /></linearGradient><linearGradient
       inkscape:collect="always"
       xlink:href="#linearGradient40533"
       id="linearGradient40535"
       x1="263.97172"
       y1="157.24851"
       x2="452.38931"
       y2="157.24851"
       gradientUnits="userSpaceOnUse"
       gradientTransform="translate(-6.2507812,1.746834)" /></defs><g
     inkscape:groupmode="layer"
     id="layer7"
     inkscape:label="backgound"><rect
       style="fill:#18181b;fill-opacity:1;stroke:none;stroke-width:22.5637;stroke-dasharray:none;stroke-opacity:1"
       id="rect35273"
       width="412.42999"
       height="412.42999"
       x="0"
       y="0" /></g><g
     inkscape:groupmode="layer"
     id="layer5"
     inkscape:label="Layer 1"
     style="display:inline"><path
       style="fill:none;fill-opacity:0.857947;stroke:url(#linearGradient33614);stroke-width:23.3837;stroke-dasharray:none;stroke-opacity:1"
       d="m 255.21979,93.373486 c 85.69482,0 217.11762,-80.134942 217.11762,-80.134942 v 0 0"
       id="path32844" /><path
       style="fill:none;fill-opacity:0.857947;stroke:url(#linearGradient32114);stroke-width:24.9834;stroke-dasharray:none;stroke-opacity:1"
       d="M -11.277109,51.776583 C 62.764275,96.507866 147.63099,99.731429 147.63099,99.731429 v 0 0"
       id="path31380" /><path
       style="fill:none;fill-opacity:0.857947;stroke:url(#linearGradient27720);stroke-width:22.5637;stroke-dasharray:none;stroke-opacity:1"
       d="M -12.666052,230.4275 C 72.117988,122.42119 152.38547,97.680458 152.38547,97.680458"
       id="path27712"
       sodipodi:nodetypes="cc" /><path
       style="fill:none;fill-opacity:0.857947;stroke:url(#linearGradient30652);stroke-width:23.9196;stroke-dasharray:none;stroke-opacity:1"
       d="M -14.04851,161.80108 C 78.229439,94.726654 151.00616,98.103552 151.00616,98.103552 v 0"
       id="path30644" /><path
       id="path27560"
       style="display:inline;fill:#1e3a8a;fill-opacity:1;stroke:#ffffff;stroke-width:0.5;stroke-dasharray:none;stroke-opacity:1"
       d="m 162.33552,235.61139 c -0.22705,0.0182 -0.35986,0.19263 -0.35986,0.54993 0,0.40694 -1.56281,4.47412 -3.47343,9.03839 -3.67924,8.78929 -4.94479,13.84863 -7.93649,31.73244 -0.86244,5.15544 -2.02384,11.94989 -2.58082,15.09839 -1.34194,7.5856 -0.99947,22.4174 0.57935,25.09155 4.06288,6.88153 10.12671,11.11179 15.06058,10.50611 1.43327,-0.17595 1.96346,-0.0951 1.67629,0.25648 -0.28804,0.35258 0.18994,0.42214 1.52182,0.22063 2.13258,-0.32266 7.54411,-3.8803 7.54411,-4.95962 0,-0.37277 0.41594,-1.0257 0.92458,-1.45088 1.10634,-0.9248 5.52925,-11.04083 6.55991,-15.00385 0.90786,-3.49081 1.17442,-3.48762 4.01214,0.0462 2.9041,3.61649 4.93394,4.60191 8.82585,4.28527 3.49821,-0.28461 6.04257,-1.18965 6.95012,-2.47248 0.36793,-0.52009 0.97697,-0.80139 1.35327,-0.62546 0.37625,0.17598 0.52882,0.12883 0.33927,-0.10431 -0.18957,-0.23316 0.62768,-1.2675 1.81557,-2.29859 2.15978,-1.87472 2.15987,-1.8743 1.84484,0.23474 -0.33319,2.23059 -1.94126,9.36549 -4.1097,18.23709 -6.30162,25.78165 -27.05606,50.09992 -54.22759,63.53934 -4.55708,2.25399 -18.83677,7.74075 -20.14581,7.74075 -0.52396,0 -1.50276,0.29046 -2.17488,0.64555 -1.28264,0.67759 -8.00264,2.56041 -18.80554,5.26827 -12.473928,3.12673 -13.575379,3.67702 -11.193671,5.59486 1.475648,1.18826 6.143661,1.46819 10.935151,0.65588 2.20212,-0.37335 2.97968,-0.34932 3.34987,0.10379 0.37857,0.46338 1.16135,0.40542 3.64253,-0.26952 2.02315,-0.55017 3.87286,-0.75174 5.14213,-0.55971 1.26061,0.19072 3.3373,-0.0305 5.70361,-0.60752 5.32749,-1.29907 13.87643,-2.89281 16.48539,-3.07347 4.77757,-0.33085 20.35679,-9.36893 31.59148,-18.32729 4.38131,-3.49358 12.80679,-11.23958 13.48346,-12.39606 0.22624,-0.38666 2.06453,-2.60108 4.08477,-4.92104 2.02026,-2.31994 5.00496,-6.22166 6.63253,-8.67051 1.62757,-2.44884 3.35164,-4.76912 3.83166,-5.15579 1.08088,-0.87065 3.09114,-3.85471 4.77902,-7.0941 0.70323,-1.34963 1.94636,-3.52175 2.76238,-4.82702 3.10945,-4.97376 6.58764,-17.58853 8.66651,-31.43141 2.17656,-14.49328 2.94254,-17.44883 5.73937,-22.14576 1.22249,-2.05305 -1.13794,-7.88815 -4.27174,-10.55991 -1.22575,-1.04506 -3.01266,0.32871 -4.31726,3.3191 -3.49986,8.02218 -17.82644,19.7787 -24.10266,19.7787 -2.15122,0 -2.16823,-0.67156 -0.21083,-8.4363 2.36453,-9.37966 2.25108,-11.77502 -0.80102,-16.87206 -1.73417,-2.89609 -2.6387,-3.04482 -4.2842,-0.7037 -2.51361,3.57622 -5.30936,11.25287 -6.05967,16.63839 -0.16162,1.15997 -0.99403,4.32392 -1.84972,7.03053 -0.85571,2.7066 -1.90633,6.08064 -2.33477,7.49839 -0.42843,1.41775 -1.11563,2.89439 -1.52725,3.28105 -1.31549,1.23572 -2.75696,3.67228 -2.75696,4.66075 0,2.65989 -11.6089,6.75213 -14.80801,5.21992 -1.11839,-0.53566 -0.62449,-15.88406 0.86876,-26.98748 3.55571,-26.43932 5.5184,-35.72799 9.22906,-43.684 1.88055,-4.03191 1.87121,-6.45267 -0.0352,-9.30792 -1.35547,-2.03005 -2.88712,-3.38113 -3.56828,-3.3267 z M 80.391653,218.4952 c -4.374559,-0.0747 -14.716389,0.81757 -17.989239,1.78729 -9.984621,2.95838 -25.35626,13.49471 -34.629434,23.73674 -8.852013,9.77687 -11.298165,18.61106 -7.199318,25.99612 1.619068,2.91715 1.845891,7.68645 0.758457,15.94228 -1.272252,9.65902 -1.17063,89.19328 0.115945,90.72355 2.16059,2.56988 5.764174,6.02844 7.128666,6.84147 0.75935,0.45252 2.467657,0.71527 3.796521,0.58463 2.96679,-0.29152 2.666113,3.08441 3.042892,-34.12024 0.299119,-29.53619 0.298914,-29.53655 3.632872,-30.79358 17.371307,-6.54968 34.624252,-18.16294 46.316099,-31.17601 4.321345,-4.80968 12.547553,-20.84341 11.577967,-22.56658 -0.208225,-0.37007 -0.06014,-0.78934 0.32911,-0.93189 1.373554,-0.50291 2.273559,-13.82123 1.488535,-22.02771 -1.276448,-13.34372 -7.216829,-22.64048 -14.602745,-22.8532 -1.649545,-0.0475 -2.366581,-0.32172 -1.863538,-0.71296 0.35063,-0.27273 -0.444603,-0.40503 -1.90279,-0.42991 z m 0.503022,15.20206 c 0.271855,0.0302 0.634281,0.0909 1.095417,0.17846 1.281405,0.24363 2.890133,0.44309 3.574901,0.44309 0.684775,0 1.655912,0.44878 2.157622,0.99783 0.501715,0.54907 1.844084,1.65195 2.983109,2.45104 2.057661,1.44353 2.06386,1.44362 1.035031,-0.0502 -0.943588,-1.36999 -0.934699,-1.41712 0.09602,-0.53275 0.651998,0.55941 1.32315,2.66292 1.585153,4.96623 1.438577,12.64702 -11.872676,33.88594 -29.544862,47.14029 -6.214447,4.66089 -9.87616,7.7472 -8.032657,6.77024 0.569513,-0.30182 2.071521,-1.39108 3.33758,-2.42026 1.538513,-1.25077 2.531425,-1.6193 2.99398,-1.11124 0.462555,0.50807 0.385642,0.97742 -0.231282,1.41454 -2.563933,1.81676 -3.849526,2.61497 -5.582763,3.46644 -1.044106,0.51292 -1.897957,1.19882 -1.897957,1.52444 0,0.3256 -0.466123,0.59253 -1.035635,0.59253 -1.386874,0 -1.320088,-1.23485 0.09904,-1.83301 0.623855,-0.26294 0.963116,-0.66552 0.754231,-0.89496 -0.579503,-0.63653 -10.186865,5.87999 -9.767571,6.62519 0.746517,1.32674 -0.458292,2.19097 -1.885276,1.35213 -1.046132,-0.61497 -1.684359,-0.56824 -2.546513,0.18725 -0.632848,0.55451 -1.845343,1.43479 -2.694461,1.95608 -0.849117,0.52128 -1.74337,0.94771 -1.987331,0.94771 -0.668032,0 0.566946,-17.1364 1.885277,-26.15965 2.160416,-14.78684 1.77563,-21.03776 -1.217399,-19.77621 -1.213186,0.51136 -1.177375,-0.24878 0.181765,-3.826 2.669678,-7.02656 20.366734,-19.80107 30.246559,-21.83341 1.980613,-0.40742 2.446794,-0.74129 1.725855,-1.2352 -0.625457,-0.42849 -0.0384,-0.50907 1.600855,-0.21978 1.827336,0.32248 2.588784,0.17988 2.588784,-0.48615 0,-0.90353 3.859154,-0.68044 7.938453,0.4589 1.157292,0.32321 1.213377,0.24456 0.345413,-0.48617 -0.614851,-0.51762 -0.616893,-0.69795 0.198671,-0.60747 z m 30.588045,67.61892 c -10.14399,0.0135 -12.531998,0.64327 -22.581921,5.95731 -12.721803,6.72683 -18.449476,19.55401 -11.99632,26.86629 3.548603,4.02102 9.490285,8.56677 12.57676,9.62199 1.68041,0.5745 2.919385,1.21102 2.753166,1.41448 -0.389312,0.47652 3.777685,1.07765 4.648405,0.67056 0.362863,-0.16965 0.660109,-0.0588 0.660109,0.24616 0,0.88442 6.514961,0.20029 11.783331,-1.23733 13.67689,-3.73212 25.48735,-13.58911 26.42551,-22.05447 0.54657,-4.93179 -2.38159,-10.99664 -8.27412,-17.13724 -3.80869,-3.96901 -5.25444,-4.36205 -15.99492,-4.34775 z m 7.79936,8.42815 c 2.55961,-0.1323 7.17241,1.53199 8.03134,3.10065 3.99753,7.30073 -10.55667,19.88943 -27.25038,23.57055 -6.26752,1.38205 -13.838725,0.37878 -16.667487,-2.20838 -1.366912,-1.25015 0.104897,-6.8155 2.855595,-10.79792 2.729491,-3.95171 13.769622,-12.65578 13.769622,-10.85606 0,0.14144 0.83901,-0.0711 1.86435,-0.47222 1.32604,-0.51873 2.19224,-0.59668 3.00029,-0.26952 0.78936,0.31957 2.15858,0.23754 4.48637,-0.26953 1.84255,-0.40139 4.32562,-0.82584 5.51824,-0.94335 1.19264,-0.11751 2.73955,-0.42439 3.43767,-0.68196 0.26494,-0.0978 0.58873,-0.15336 0.95439,-0.17226 z" /></g><g
     inkscape:groupmode="layer"
     id="layer8"
     inkscape:label="Layer 3"><path
       style="display:inline;fill:none;fill-opacity:1;stroke:url(#linearGradient40535);stroke-width:23.1;stroke-dasharray:none;stroke-opacity:0.917647"
       d="m 257.76411,92.569195 c 90.8017,-3.923234 185.05536,131.609535 185.05536,131.609535 v 0 l 0.16745,-0.61185 3.01789,-0.40721"
       id="path38808" /></g><g
     inkscape:groupmode="layer"
     id="layer6"
     inkscape:label="Layer 2"
     style="display:inline"><path
       style="fill:#ffffff;fill-opacity:1;stroke:#000000;stroke-width:3.37356;stroke-dasharray:none;stroke-opacity:1"
       d="m 307.07039,7.9786544 c -15.0091,0.1176297 -31.69177,3.6678806 -37.88252,9.1295636 -2.31861,2.045563 -1.6522,9.81612 0.90348,10.536714 1.96662,0.55451 3.633,0.131269 3.633,-0.922511 0,-2.095933 21.06904,-6.747569 30.49771,-6.733469 16.43633,0.0246 32.29232,9.261515 32.29232,18.811548 0,4.26332 -7.74005,13.851879 -17.37472,21.523508 -18.25442,14.535143 -24.26504,22.544722 -24.13294,32.159184 0.11872,8.626798 1.48578,10.899348 8.23002,13.679098 6.38968,2.63363 9.48175,2.96451 19.95516,2.13242 10.2528,-0.81456 9.90526,-0.94424 7.94195,2.95124 -4.93766,9.79688 -1.34506,26.65735 9.35993,43.92479 14.05259,22.66728 14.19193,22.99215 12.61181,29.49195 -2.30511,9.48201 -11.72187,15.43315 -37.73346,23.84505 -17.23972,5.57517 -20.68549,7.92861 -14.50059,9.90499 3.21902,1.02861 7.96423,1.00046 12.57705,-0.0745 1.76195,-0.41064 4.19556,-0.74835 5.40749,-0.74967 10.54841,-0.0173 33.26452,-9.88767 37.98676,-16.50562 9.57545,-13.41942 8.4199,-25.58005 -4.48605,-47.22102 -15.6523,-26.24605 -16.90602,-30.03019 -12.07601,-36.43487 4.43081,-5.87535 10.46221,-10.97937 15.90068,-13.45609 8.30284,-3.78116 12.33885,-15.000849 5.39628,-15.000849 -1.72037,0 -3.48298,0.262015 -3.91772,0.582929 -2.32197,1.714028 -27.43684,5.848045 -35.52069,5.846876 -6.7926,-0.0011 -13.79865,-1.547157 -16.28516,-3.593125 -2.65109,-2.181399 0.18307,-5.787658 14.93553,-19.003371 32.19763,-28.843793 34.01634,-53.815686 4.56788,-62.714637 -4.98866,-1.5075093 -11.46487,-2.1635238 -18.28719,-2.1100559 z"
       id="path27457" /><path
       style="fill:#ffffff;fill-opacity:1;stroke:#000000;stroke-width:2.80037;stroke-dasharray:none;stroke-opacity:1"
       d="m 135.16928,12.198181 c -10.78874,-0.106036 -23.70091,1.108407 -31.85955,3.394178 -19.704681,5.520575 -33.399496,26.324743 -26.325624,39.991183 1.125302,2.174048 2.279462,5.228458 2.565532,6.787717 1.045758,5.699987 9.161118,20.17368 15.334945,27.3506 1.536185,1.785783 2.792809,3.448024 2.792809,3.694096 0,1.301227 -10.629825,3.655808 -19.411749,4.299675 -2.78703,0.204335 -5.679413,0.730772 -6.427371,1.169679 -1.588111,0.931932 -1.825979,4.337791 -0.340485,4.876531 0.561057,0.20338 0.816662,0.82545 0.568569,1.38218 -0.248102,0.55674 0.03186,1.11547 0.621897,1.24179 0.784572,0.16796 0.75012,0.55014 -0.127996,1.42174 -0.770871,0.76516 -0.898494,1.50855 -0.356894,2.07645 0.464005,0.48652 0.646617,1.32621 0.40612,1.86587 -0.333282,0.74789 0.770525,1.31651 4.641259,2.39105 2.793061,0.77537 6.697224,2.23078 8.67621,3.23465 4.772743,2.42102 5.284851,6.56004 2.467083,19.92986 -8.791704,41.71506 10.807201,70.68184 52.895745,78.17967 5.49445,0.9788 16.73525,0.52187 21.67453,-0.88125 8.12808,-2.30896 7.70098,-7.17527 -0.68753,-7.83552 -4.76562,-0.37509 -4.79805,-0.39886 -3.5312,-2.53142 1.28063,-2.15571 1.51368,-2.01649 -6.0713,-3.63093 -19.28924,-4.10564 -34.85351,-15.52064 -45.40837,-33.30492 -6.36776,-10.72933 -7.504669,-15.36785 -8.635174,-35.2244 -0.473938,-8.32442 -1.304471,-16.62106 -1.846009,-18.43731 -0.984592,-3.30223 -0.984744,-3.30263 2.064246,-4.84909 2.840767,-1.44085 2.888567,-1.51984 0.703933,-1.16075 -1.80665,0.29696 -1.402044,-0.0426 1.761504,-1.48044 13.4455,-6.1107 11.50233,-19.411369 -5.09743,-34.888755 C 84.684714,60.507798 81.092951,50.084556 85.76779,40.937337 89.997492,32.661085 95.909266,27.765832 104.59864,25.34352 c 6.42247,-1.790366 19.20339,-3.534912 20.70724,-2.826248 0.5378,0.25343 2.83587,0.640809 5.10726,0.860829 2.5885,0.250738 4.95095,0.920218 6.33056,1.793763 2.31251,1.46423 2.73729,1.151718 2.25048,-1.656567 -0.35129,-2.026531 9.95257,-0.187916 15.0888,2.692242 3.11634,1.7475 3.58899,1.321833 4.4575,-4.013795 0.80841,-4.96643 -0.13098,-5.978571 -7.72941,-8.324956 -3.4597,-1.068348 -9.16856,-1.60699 -15.64179,-1.670607 z"
       id="path27552" /><path
       style="fill:#ffffff;fill-opacity:1;stroke:#000000;stroke-width:2;stroke-dasharray:none;stroke-opacity:1"
       d="m 260.48691,81.945583 c -11.28767,-0.203386 -47.55915,1.81621 -60.36215,3.537513 -16.81035,2.260071 -46.43843,3.330675 -49.86693,1.801358 -2.63711,-1.176307 -6.2081,0.869743 -7.01287,4.01822 -0.89798,3.513169 -1.2221,15.431666 -0.49601,18.238596 0.78439,3.03233 0.78456,3.03124 18.36905,3.03124 10.70852,0 17.68025,-0.41841 17.82935,-1.07008 0.13779,-0.60231 7.62885,-1.58905 17.13737,-2.25777 9.29117,-0.65345 24.16488,-1.92873 33.05209,-2.83436 8.8872,-0.90562 20.54308,-1.94557 25.90235,-2.31019 11.12588,-0.75693 10.03766,0.57534 10.82032,-13.243621 0.4493,-7.932939 0.44915,-7.932882 -2.20634,-8.680784 -0.45152,-0.127163 -1.55371,-0.20106 -3.16623,-0.23013 z"
       id="path27554" /><path
       style="fill:#000000;stroke-width:0.513125"
       d="m 166.62817,411.18511 c -0.0972,0.0187 -0.0975,0.14826 -0.0274,0.39325 0.1067,0.37287 -0.24381,0.60701 -0.85317,0.57051 -0.64866,-0.0388 -1.03353,0.25157 -1.03353,0.7798 0,0.0191 -0.0101,0.0287 -0.0108,0.047 1.85991,-0.34753 3.7006,-0.77283 5.51645,-1.29914 -0.0732,-0.0438 -0.0705,-0.0684 -0.18396,-0.12247 -0.54632,-0.26082 -1.09122,-0.26187 -1.43351,-0.004 -0.34229,0.25826 -0.86185,0.22248 -1.36736,-0.094 -0.31567,-0.19773 -0.50948,-0.29 -0.60668,-0.2713 z"
       id="path27572" /><path
       id="path27564"
       style="fill:#f5a623;fill-opacity:1;stroke:#ffe8c3;stroke-width:0.5;stroke-dasharray:none;stroke-opacity:1"
       d="m 355.95339,206.2152 c -0.032,-8.9e-4 -0.0631,10e-4 -0.0938,0.007 -0.81687,0.14475 -1.14407,2.54561 -1.37299,7.86439 -0.13742,3.1932 -1.13892,8.10474 -2.49613,12.23713 -1.24693,3.79654 -2.32378,8.24366 -2.39235,9.88269 -0.0686,1.63904 -0.39861,2.98053 -0.73372,2.98089 -0.33511,3.9e-4 -0.39322,1.05944 -0.12886,2.35372 0.59061,2.89189 0.56193,2.31551 0.31783,6.43251 -0.19014,3.20709 -0.24728,3.29594 -0.80747,1.25508 -0.60282,-2.19635 -0.60234,-2.19625 -0.71011,0.47074 -0.0593,1.46683 -0.20035,2.66958 -0.31283,2.67239 -0.11246,0.002 -4.25489,0.42028 -9.20571,0.92839 -4.95085,0.50812 -10.89003,0.92936 -13.19797,0.9364 -4.33289,0.0127 -10.12415,1.45171 -10.12415,2.51596 0,1.04126 4.01671,2.67756 5.72961,2.33407 1.22508,-0.24568 1.63498,-0.0182 1.63498,0.90583 0,0.67836 -0.37069,1.05735 -0.82394,0.84253 -0.45327,-0.2148 -1.04499,0.0512 -1.31501,0.59081 -0.27,0.53959 -1.00374,0.98077 -1.63068,0.98077 -0.62696,0 -1.14033,0.42378 -1.14033,0.94149 0,0.54104 0.73832,0.94147 1.73662,0.94147 1.34833,0 1.53619,0.18529 0.83826,0.83018 -0.65837,0.60837 -0.63028,1.0399 0.10448,1.61158 v 7.3e-4 c 0.55191,0.42934 1.92359,0.65467 3.04878,0.50057 1.12518,-0.15408 6.09673,-0.76515 11.04757,-1.35766 4.95086,-0.59249 9.12988,-1.17252 9.28661,-1.28854 0.1567,-0.11597 -4.63039,-0.10331 -10.63812,0.0277 -7.85617,0.17117 -9.77478,0.0863 -6.83199,-0.30195 2.25039,-0.29685 6.48566,-0.56139 9.41117,-0.58715 2.92549,-0.0258 8.01348,-0.52978 11.30671,-1.12047 4.99327,-0.89563 6.27089,-0.9383 7.69386,-0.25684 1.45389,0.69626 1.81875,0.66292 2.46608,-0.2241 0.60244,-0.82551 1.00324,-0.88562 1.93635,-0.29176 0.92501,0.58869 1.47989,0.54066 2.59349,-0.22336 1.00738,-0.69116 3.19002,-0.97605 7.55428,-0.98732 5.24057,-0.0127 12.60286,-1.11846 9.0017,-1.35184 -0.71042,-0.0461 -0.40728,-0.33086 0.71942,-0.67665 1.24311,-0.38199 2.29221,-0.37846 2.90345,0.0106 0.97215,0.61871 19.73199,-1.34309 20.8095,-2.17618 0.28947,-0.22381 0.50852,-2.64481 0.48677,-5.37971 -0.0516,-6.47762 -0.99888,-7.36611 -6.65732,-6.24335 -6.68138,1.32575 -6.52016,1.2629 -5.14547,2.00084 0.88868,0.47704 0.496,0.55306 -1.4961,0.28957 -1.58329,-0.20942 -2.50418,-0.11469 -2.22699,0.22918 1.25984,1.56322 -5.77791,2.47569 -12.6668,1.64216 -2.86411,-0.34656 -2.86411,-0.34704 0,0.37469 2.86412,0.72175 2.86412,0.72163 0,1.20924 -15.19003,2.58605 -17.12207,2.71042 -16.56028,1.063 0.30837,-0.90431 0.15086,-1.18301 -0.49535,-0.87674 -1.62775,0.77144 -1.10258,-2.93129 1.91701,-13.51841 1.57525,-5.52304 2.83827,-10.65704 2.80683,-11.40915 -0.0314,-0.75211 -0.94546,1.57877 -2.03158,5.17963 -2.2467,7.44861 -3.63932,9.35382 -3.63932,4.97883 0,-1.56465 0.27591,-3.05673 0.61348,-3.31559 0.33755,-0.25885 0.63702,-0.94178 0.665,-1.51699 0.13797,-2.83283 2.21653,-8.19291 3.30074,-8.51194 0.95709,-0.28165 1.0275,-0.63382 0.32787,-1.63632 -0.4903,-0.70254 -0.67235,-1.54854 -0.40518,-1.88006 0.77736,-0.96453 -1.20803,-8.17603 -2.9872,-10.85038 -0.86979,-1.30741 -1.51027,-2.02684 -1.99075,-2.04012 z m -4.01229,59.60319 c -0.0631,-0.004 -0.1303,-0.001 -0.20116,0.006 -0.16196,0.0156 -0.34472,0.0553 -0.55262,0.10484 -0.94251,0.22437 -1.83694,0.65508 -1.9879,0.95676 -0.15097,0.30162 -0.61131,0.38862 -1.02294,0.19353 -0.41161,-0.19508 -0.74877,0.10226 -0.74877,0.66066 0,0.55838 0.36813,0.8412 0.81821,0.62788 0.45008,-0.2133 0.8182,-0.10577 0.8182,0.23939 0,0.34513 -0.36812,0.80238 -0.8182,1.01569 -1.39988,0.66345 -0.89899,4.92298 0.87762,7.46495 1.94177,2.77822 2.69514,7.56341 1.46748,9.32246 -0.57807,0.8283 -0.52146,2.57712 0.18468,5.69548 0.8187,3.61531 1.13726,4.19241 1.61852,2.93215 0.5991,-1.56882 0.59885,-1.56882 0.7094,0 0.0608,0.86285 0.63671,2.27446 1.27993,3.1373 1.23095,1.65127 1.66134,3.67458 0.61347,2.8834 -0.33756,-0.25485 -1.07691,-1.36083 -1.64358,-2.45777 -1.03027,-1.99442 -1.03012,-1.99452 -0.55762,-0.1455 0.58425,2.28642 5.40496,12.06393 8.14556,16.52038 3.89841,6.3392 12.2327,11.52899 20.21963,12.59075 3.83475,0.50976 10.61289,-0.39398 12.22443,-1.62979 0.55794,-0.42785 1.49949,-0.77778 2.09312,-0.77778 3.32178,0 12.93799,-9.0572 13.32967,-12.55509 0.53773,-4.80209 0.29312,-5.07473 -3.24562,-3.62624 -1.78147,0.72918 -3.01312,1.60558 -2.73736,1.94772 0.29698,0.36846 0.0791,0.4219 -0.53475,0.13097 -0.59691,-0.2829 -1.31697,-0.14315 -1.69797,0.32959 -0.36376,0.45136 -1.33535,0.88201 -2.15897,0.95676 -0.82363,0.0748 -3.60532,0.72981 -6.18201,1.45588 -19.47047,5.48639 -35.29329,-6.25502 -35.85148,-26.60461 -0.059,-2.14877 -0.28262,-2.75147 -0.71082,-1.91208 -0.95828,1.8785 -1.65427,-1.62507 -2.26636,-11.41206 -0.41568,-6.64665 -0.53438,-7.99877 -1.48179,-8.05137 z m -36.09677,7.56824 c -2.87928,0.0147 -5.89981,0.0755 -8.51622,1.64442 -2.24403,-0.48676 -7.05373,0.65866 -4.54477,4.17627 2.12683,3.09485 5.34253,5.61166 8.84453,5.6534 2.26109,-0.47769 4.27636,-2.01603 6.65668,-1.84005 3.15445,-0.31283 6.32929,-0.38805 9.48888,-0.13036 0.87342,0.35333 4.1289,0.80046 1.4994,1.3609 -2.31812,-0.54527 -1.9726,1.09734 -0.21314,1.65009 1.66174,0.7296 3.01427,1.68573 2.97921,3.37106 1.53014,2.08321 2.55494,3.76511 4.10376,5.92558 0.86285,0.98295 1.25851,5.6327 -0.0294,2.48647 -0.52774,-2.24726 -3.34849,-1.88289 -2.42061,0.6833 0.36072,1.69616 -0.68871,2.07979 -1.69051,1.7408 -1.97278,1.17864 -0.9857,4.72715 -3.26831,4.45979 -0.95728,2.04401 -2.12716,3.444 -3.99842,4.11672 -2.42825,2.51532 -5.4582,3.92385 -8.20997,5.86604 -3.51802,1.99304 -7.45304,2.9979 -11.35579,3.29168 -1.93509,0.11584 2.00078,-1.04401 2.7342,-1.39776 2.66403,-0.96471 5.36713,-1.85907 7.87189,-3.31152 -1.50576,-0.826 -4.12055,1.37611 -6.09072,1.38642 -4.09843,0.97709 -9.06381,0.0286 -11.4979,-4.30952 -2.20266,-3.6404 -3.05609,-8.26413 -2.72686,-12.65069 1.17499,-2.72207 3.82087,3.1048 4.87063,-0.33455 0.72991,-2.68131 1.74176,-5.41283 1.6807,-8.27031 -0.96781,-2.12987 -0.0972,1.38858 -1.54841,1.72948 1.39289,2.56821 -2.89394,3.91876 -2.0923,0.76267 2.29126,-2.27131 0.10399,-5.59494 0.70805,-8.39505 -0.1356,-2.36004 0.83627,-6.54841 -1.24706,-7.56717 -2.38067,1.57688 -2.53344,5.26147 -3.59906,7.91023 -1.29232,4.59946 -2.44956,9.30556 -2.70971,14.1562 0.82054,2.22996 -1.601,4.42984 -0.0319,6.47845 -0.17591,1.5174 0.15698,3.67474 1.813,3.71128 -2.26395,2.18358 1.29192,4.3545 2.73912,4.69227 -0.28258,2.57305 -0.62113,5.14679 1.49449,6.99445 3.3201,5.03662 8.64823,8.80528 14.2615,8.22493 2.12034,-1.23387 -1.83378,-0.68598 -2.43285,-0.93845 1.68227,-2.50041 3.68696,-0.8153 5.42432,0.41961 1.89104,-1.05111 4.73843,-0.47172 6.19118,-2.45245 1.81614,-0.88921 4.7168,-1.49419 6.48271,-3.44193 3.46992,-2.67519 6.50954,-6.11607 8.74898,-10.19258 1.42731,-0.88988 2.50834,-2.53813 2.71216,-3.90975 2.25439,-2.55395 0.75436,-6.9068 0.5733,-10.12453 -1.38247,-3.23427 -1.75349,-7.29312 -4.63786,-9.29664 -1.23314,-0.84651 -4.85482,-4.65237 -1.53371,-4.55902 1.06277,0.13355 1.38262,2.8477 2.25891,1.22764 -1.37457,-1.41925 -2.09909,-3.21404 -2.92531,-4.89923 -1.167,-0.52948 -4.57648,2.14296 -2.7097,-0.72297 2.49543,-1.44798 -2.02278,-3.31524 -1.84487,-2.30502 1.48778,0.45735 1.54634,2.27394 -0.2107,1.46013 -2.32466,-0.58897 -2.27664,-4.79835 -5.20627,-4.02034 -2.26529,-0.38562 -4.55838,-0.49081 -6.84532,-0.51033 z m -58.26047,9.60372 c -1.73831,0.07 -3.53337,0.29111 -5.22965,0.68574 -14.37432,3.34414 -25.69611,11.42929 -25.69611,18.34979 0,2.8203 3.97993,9.41549 6.96805,11.54658 5.31847,3.79308 13.85717,3.95651 18.9699,0.36277 0.69901,-0.49133 1.46869,-0.89349 1.71049,-0.89349 0.24179,0 1.31263,-0.63805 2.37918,-1.418 2.52691,-1.84784 2.69529,-1.61371 1.68517,2.34043 -3.00864,11.77741 -6.89437,19.83573 -16.57676,34.37826 -5.51338,8.28083 -6.27397,9.29959 -11.42153,15.28692 -13.92429,16.19593 -34.60436,30.26252 -57.48331,39.10097 -9.80994,3.78972 -10.22524,4.02197 -9.36894,5.22914 0.37417,0.5275 1.26113,1.13385 1.97094,1.34772 1.26786,0.38201 8.81496,0.41434 8.31732,0.0357 -0.13987,-0.10644 1.14624,-0.67838 2.85771,-1.27124 1.71147,-0.59286 3.24458,-1.23385 3.40703,-1.42472 0.95142,-1.1178 12.70584,-4.89157 15.27348,-4.90357 1.32714,-0.006 8.52698,-3.93451 16.85531,-9.19634 3.68426,-2.32771 14.52549,-10.90003 17.56792,-13.89114 0.92627,-0.91066 1.8906,-1.85603 2.14302,-2.10117 11.48891,-11.15743 28.07026,-37.42958 32.2926,-51.16587 2.39316,-7.78552 4.16171,-22.1349 3.2799,-26.60974 -0.24732,-1.25505 -0.42819,-1.55666 -0.48369,-0.80616 -0.0488,0.65966 -0.378,1.33444 -0.73122,1.49914 -0.35267,0.1647 -0.51071,0.67789 -0.35037,1.1405 0.16034,0.4626 0.0506,0.84077 -0.24391,0.84077 -0.95821,0 -0.59035,-4.19867 0.46974,-5.36039 0.94699,-1.03776 0.94699,-1.06645 0,-0.49041 -0.87693,0.53343 -1.01045,0.50504 -1.04335,-0.22273 -0.0464,-1.027 -0.37365,-3.35143 -0.55707,-3.9548 -0.34593,-1.13792 0.0617,-1.60748 1.18597,-1.36684 0.64981,0.13909 1.71283,0.3663 2.36265,0.5054 1.47046,0.31473 1.55658,-0.53834 0.17105,-1.69344 -0.80959,-0.67494 -0.85548,-0.91439 -0.23203,-1.20509 0.54559,-0.25441 0.58253,-0.45387 0.12403,-0.66766 -0.35959,-0.16768 -0.65371,-0.68676 -0.65371,-1.15394 0,-1.91187 -4.70487,-3.06299 -9.91981,-2.85305 z m 2.17661,8.20983 c 0.42011,-0.0368 0.65423,0.0161 0.65423,0.17777 0,1.43706 -2.88967,6.48719 -4.70204,8.21707 -1.27332,1.21537 -2.13189,2.36338 -1.9079,2.55126 0.224,0.18789 0.10474,0.21137 -0.26458,0.0522 -0.68643,-0.29583 -1.84602,0.45888 -1.93632,1.26038 -0.0276,0.24513 -0.24982,0.45186 -0.49351,0.45786 -0.24368,0.006 -1.68334,0.56703 -3.19928,1.24592 -1.51595,0.6789 -3.64101,1.42589 -4.7222,1.65984 v -5.1e-4 c -2.75339,0.59578 -5.76922,0.5019 -8.06875,-0.25167 -1.96044,-0.64246 -1.96066,-0.64229 -0.29559,-2.93729 1.00349,-1.38311 3.17797,-3.2467 5.47305,-4.68963 4.47878,-2.81582 16.52214,-7.48588 19.46289,-7.7432 z m 28.37191,-71.0064 c -0.17909,0.0103 -0.37281,0.0491 -0.57877,0.11873 -0.733,0.24812 -1.2478,1.33537 -1.49707,3.1617 -0.20895,1.53086 -1.03863,5.70886 -1.84381,9.28385 -4.10187,18.21218 -4.99008,22.88516 -5.08548,26.75389 -0.0572,2.31897 -0.34745,4.44403 -0.64492,4.72217 -0.72078,0.67397 -0.93141,32.23934 -0.21911,32.83791 0.30186,0.25369 0.70218,3.8668 0.88935,8.02928 0.18716,4.1625 0.54535,7.74268 0.79582,7.95656 0.25046,0.21389 0.54334,4.34341 0.65112,9.17657 -0.18446,3.64098 3.26815,-5.63851 3.39722,-9.28651 0.0264,-1.10855 -0.34922,-3.00146 -0.83458,-4.20614 -0.67678,-1.67982 -0.88325,-1.84842 -0.88625,-0.72436 -0.85404,3.36174 0.12591,-2.80312 0.20826,-3.1369 0.7236,44.97659 0.90616,14.35368 3.66303,-13.79825 0.0648,-3.27542 -1.87537,11.82939 -0.37026,9.81143 0.36294,-0.74295 4.23107,-52.78419 3.7648,-53.17561 -9.80968,28.17809 -1.89361,10.08518 0.0727,-2.19704 0.0761,-0.50063 0.46666,-2.4072 0.86765,-4.23716 0.40088,-1.82996 0.57862,-3.52225 0.39481,-3.76019 -0.18381,-0.23793 -0.33435,0.12097 -0.33435,0.79708 0,0.67616 -0.20789,1.39578 -0.4625,1.59946 -0.2546,0.20372 -1.30058,-11.55509 -1.28968,-12.46999 -7.14819,4.01289 2.52242,3.49133 0.0949,0.42884 -0.66789,-0.53435 -0.51165,-2.73687 0.33693,-4.75408 0.71826,-1.70744 0.16384,-3.00665 -1.08986,-2.93119 z" /></g></svg>
