<?xml version="1.0" encoding="UTF-8" standalone="no"?>
<!-- Created with Inkscape (http://www.inkscape.org/) -->

<svg preserveAspectRatio="none"
   width="1024"
   height="1024"
   viewBox="0 -23.58143 412.42999 294.59286"
   version="1.1"
   id="svg5"
   inkscape:export-filename="bitmap.png"
   inkscape:export-xdpi="96"
   inkscape:export-ydpi="96"
   xml:space="preserve"
   inkscape:version="1.2.2 (b0a8486541, 2022-12-01)"
   sodipodi:docname="New Logo.svg"
   xmlns:inkscape="http://www.inkscape.org/namespaces/inkscape"
   xmlns:sodipodi="http://sodipodi.sourceforge.net/DTD/sodipodi-0.dtd"
   xmlns:xlink="http://www.w3.org/1999/xlink"
   xmlns="http://www.w3.org/2000/svg"
   xmlns:svg="http://www.w3.org/2000/svg"><sodipodi:namedview
     id="namedview7"
     pagecolor="#505050"
     bordercolor="#eeeeee"
     borderopacity="1"
     inkscape:showpageshadow="0"
     inkscape:pageopacity="0"
     inkscape:pagecheckerboard="0"
     inkscape:deskcolor="#505050"
     inkscape:document-units="mm"
     showgrid="false"
     inkscape:zoom="0.5"
     inkscape:cx="653"
     inkscape:cy="825"
     inkscape:window-width="1854"
     inkscape:window-height="1011"
     inkscape:window-x="0"
     inkscape:window-y="0"
     inkscape:window-maximized="1"
     inkscape:current-layer="layer7" /><defs
     id="defs2"><linearGradient
       id="linearGradient33604"
       inkscape:swatch="solid"><stop
         style="stop-color:#000000;stop-opacity:1;"
         offset="0"
         id="stop33602" /></linearGradient><linearGradient
       id="linearGradient27441"
       inkscape:swatch="solid"><stop
         style="stop-color:#000000;stop-opacity:1;"
         offset="0"
         id="stop27439" /></linearGradient><linearGradient
       id="linearGradient27431"
       inkscape:swatch="solid"><stop
         style="stop-color:#000000;stop-opacity:1;"
         offset="0"
         id="stop27429" /></linearGradient><linearGradient
       id="linearGradient26695"
       inkscape:swatch="solid"><stop
         style="stop-color:#f5a623;stop-opacity:1;"
         offset="0"
         id="stop26693" /></linearGradient><linearGradient
       id="linearGradient25949"
       inkscape:swatch="solid"><stop
         style="stop-color:#000000;stop-opacity:1;"
         offset="0"
         id="stop25947" /></linearGradient><linearGradient
       id="linearGradient25937"
       inkscape:swatch="solid"><stop
         style="stop-color:#000000;stop-opacity:1;"
         offset="0"
         id="stop25935" /></linearGradient><linearGradient
       id="linearGradient25927"
       inkscape:swatch="solid"><stop
         style="stop-color:#1e3a8a;stop-opacity:1;"
         offset="0"
         id="stop25925" /></linearGradient><linearGradient
       id="linearGradient25921"
       inkscape:swatch="solid"><stop
         style="stop-color:#1e3a8a;stop-opacity:1;"
         offset="0"
         id="stop25919" /></linearGradient><linearGradient
       id="linearGradient25915"
       inkscape:swatch="solid"><stop
         style="stop-color:#000000;stop-opacity:1;"
         offset="0"
         id="stop25913" /></linearGradient><linearGradient
       id="linearGradient25183"
       inkscape:swatch="solid"><stop
         style="stop-color:#1e3a8a;stop-opacity:1;"
         offset="0"
         id="stop25181" /></linearGradient><linearGradient
       id="linearGradient21063"
       inkscape:swatch="solid"><stop
         style="stop-color:#000000;stop-opacity:1;"
         offset="0"
         id="stop21061" /></linearGradient><linearGradient
       id="linearGradient20296"
       inkscape:swatch="solid"><stop
         style="stop-color:#950015;stop-opacity:1;"
         offset="0"
         id="stop20294" /></linearGradient><linearGradient
       inkscape:collect="always"
       xlink:href="#linearGradient32112"
       id="linearGradient32114"
       x1="-5.9037356"
       y1="76.249077"
       x2="142.78526"
       y2="76.249077"
       gradientUnits="userSpaceOnUse"
       gradientTransform="matrix(1.1163195,0,0,1.0982361,-11.277109,-7.074161)" /><linearGradient
       inkscape:collect="always"
       id="linearGradient32112"><stop
         style="stop-color:#00add8;stop-opacity:1;"
         offset="0"
         id="stop32108" /><stop
         style="stop-color:#8a8a8a;stop-opacity:0.7225517;"
         offset="1"
         id="stop32110" /></linearGradient><linearGradient
       inkscape:collect="always"
       xlink:href="#linearGradient30650"
       id="linearGradient30652"
       x1="-7.2258162"
       y1="131.53201"
       x2="145.9556"
       y2="131.53201"
       gradientUnits="userSpaceOnUse"
       gradientTransform="matrix(1.1355216,0,0,0.98967833,-14.04851,-1.5214847)" /><linearGradient
       inkscape:collect="always"
       id="linearGradient30650"><stop
         style="stop-color:#ce422b;stop-opacity:1;"
         offset="0"
         id="stop30646" /><stop
         style="stop-color:#ffffff;stop-opacity:0;"
         offset="1"
         id="stop30648" /></linearGradient><linearGradient
       inkscape:collect="always"
       xlink:href="#linearGradient29914"
       id="linearGradient27720"
       x1="-0.38246065"
       y1="142.05501"
       x2="146.98373"
       y2="64.140099"
       gradientUnits="userSpaceOnUse"
       gradientTransform="matrix(1.0206463,0,0,0.9995926,0.79413833,34.129275)" /><linearGradient
       inkscape:collect="always"
       id="linearGradient29914"><stop
         style="stop-color:#ffd43b;stop-opacity:1;"
         offset="0"
         id="stop29910" /><stop
         style="stop-color:#ffffff;stop-opacity:0;"
         offset="1"
         id="stop29912" /></linearGradient><linearGradient
       inkscape:collect="always"
       xlink:href="#linearGradient32112"
       id="linearGradient8522"
       gradientUnits="userSpaceOnUse"
       gradientTransform="matrix(-1.3683248,0,0,0.94569606,460.27379,1.5411208)"
       x1="-5.9037356"
       y1="76.249077"
       x2="142.78526"
       y2="76.249077" /><linearGradient
       inkscape:collect="always"
       xlink:href="#linearGradient29914"
       id="linearGradient8524"
       gradientUnits="userSpaceOnUse"
       gradientTransform="matrix(-1.2453151,0,0,0.99206394,445.11164,27.014302)"
       x1="-0.38246065"
       y1="142.05501"
       x2="146.98373"
       y2="64.140099" /><linearGradient
       inkscape:collect="always"
       xlink:href="#linearGradient30650"
       id="linearGradient8526"
       gradientUnits="userSpaceOnUse"
       gradientTransform="matrix(-1.3854772,0,0,0.98222434,463.22152,-8.3679485)"
       x1="-7.2258162"
       y1="131.53201"
       x2="145.9556"
       y2="131.53201" /></defs><g
     inkscape:groupmode="layer"
     id="layer7"
     inkscape:label="backgound"></g><g
     inkscape:groupmode="layer"
     id="layer5"
     inkscape:label="Layer 1"
     style="display:inline"><path
       style="fill:none;fill-opacity:0.857947;stroke:url(#linearGradient32114);stroke-width:24.9834;stroke-dasharray:none;stroke-opacity:1"
       d="M -11.277109,51.776583 C 62.764275,96.507866 147.63099,99.731429 147.63099,99.731429 v 0 0"
       id="path31380" /><path
       style="fill:none;fill-opacity:0.857947;stroke:url(#linearGradient27720);stroke-width:22.5637;stroke-dasharray:none;stroke-opacity:1"
       d="M -12.666052,230.4275 C 72.117988,122.42119 152.38547,97.680458 152.38547,97.680458"
       id="path27712"
       sodipodi:nodetypes="cc" /><path
       style="fill:none;fill-opacity:0.857947;stroke:url(#linearGradient30652);stroke-width:23.9196;stroke-dasharray:none;stroke-opacity:1"
       d="M -14.04851,161.80108 C 78.229439,94.726654 151.00616,98.103552 151.00616,98.103552 v 0"
       id="path30644" /><path
       style="display:inline;fill:none;fill-opacity:0.857947;stroke:url(#linearGradient8522);stroke-width:25.6673;stroke-dasharray:none;stroke-opacity:1"
       d="M 460.2738,52.217765 C 369.51782,90.736071 265.49274,93.511894 265.49274,93.511894 v 0 0"
       id="path31380-6" /><path
       style="display:inline;fill:none;fill-opacity:0.857947;stroke:url(#linearGradient8524);stroke-width:24.8296;stroke-dasharray:none;stroke-opacity:1"
       d="M 461.53474,221.83405 C 358.08769,114.64122 260.1514,90.086833 260.1514,90.086833"
       id="path27712-2"
       sodipodi:nodetypes="cc" /><path
       style="display:inline;fill:none;fill-opacity:0.857947;stroke:url(#linearGradient8526);stroke-width:26.3218;stroke-dasharray:none;stroke-opacity:1"
       d="M 463.2215,153.72451 C 350.63096,87.155279 261.83433,90.506736 261.83433,90.506736 v 0"
       id="path30644-9" /></g><g
     inkscape:groupmode="layer"
     id="layer8"
     inkscape:label="Layer 3" /><g
     inkscape:groupmode="layer"
     id="layer6"
     inkscape:label="Layer 2"
     style="display:inline"><path
       style="fill:#ffffff;fill-opacity:1;stroke:#000000;stroke-width:3.37356;stroke-dasharray:none;stroke-opacity:1"
       d="m 307.07039,7.9786544 c -15.0091,0.1176297 -31.69177,3.6678806 -37.88252,9.1295636 -2.31861,2.045563 -1.6522,9.81612 0.90348,10.536714 1.96662,0.55451 3.633,0.131269 3.633,-0.922511 0,-2.095933 21.06904,-6.747569 30.49771,-6.733469 16.43633,0.0246 32.29232,9.261515 32.29232,18.811548 0,4.26332 -7.74005,13.851879 -17.37472,21.523508 -18.25442,14.535143 -24.26504,22.544722 -24.13294,32.159184 0.11872,8.626798 1.48578,10.899348 8.23002,13.679098 6.38968,2.63363 9.48175,2.96451 19.95516,2.13242 10.2528,-0.81456 9.90526,-0.94424 7.94195,2.95124 -4.93766,9.79688 -1.34506,26.65735 9.35993,43.92479 14.05259,22.66728 14.19193,22.99215 12.61181,29.49195 -2.30511,9.48201 -11.72187,15.43315 -37.73346,23.84505 -17.23972,5.57517 -20.68549,7.92861 -14.50059,9.90499 3.21902,1.02861 7.96423,1.00046 12.57705,-0.0745 1.76195,-0.41064 4.19556,-0.74835 5.40749,-0.74967 10.54841,-0.0173 33.26452,-9.88767 37.98676,-16.50562 9.57545,-13.41942 8.4199,-25.58005 -4.48605,-47.22102 -15.6523,-26.24605 -16.90602,-30.03019 -12.07601,-36.43487 4.43081,-5.87535 10.46221,-10.97937 15.90068,-13.45609 8.30284,-3.78116 12.33885,-15.000849 5.39628,-15.000849 -1.72037,0 -3.48298,0.262015 -3.91772,0.582929 -2.32197,1.714028 -27.43684,5.848045 -35.52069,5.846876 -6.7926,-0.0011 -13.79865,-1.547157 -16.28516,-3.593125 -2.65109,-2.181399 0.18307,-5.787658 14.93553,-19.003371 32.19763,-28.843793 34.01634,-53.815686 4.56788,-62.714637 -4.98866,-1.5075093 -11.46487,-2.1635238 -18.28719,-2.1100559 z"
       id="path27457" /><path
       style="fill:#ffffff;fill-opacity:1;stroke:#000000;stroke-width:2.80037;stroke-dasharray:none;stroke-opacity:1"
       d="m 135.16928,12.198181 c -10.78874,-0.106036 -23.70091,1.108407 -31.85955,3.394178 -19.704681,5.520575 -33.399496,26.324743 -26.325624,39.991183 1.125302,2.174048 2.279462,5.228458 2.565532,6.787717 1.045758,5.699987 9.161118,20.17368 15.334945,27.3506 1.536185,1.785783 2.792809,3.448024 2.792809,3.694096 0,1.301227 -10.629825,3.655808 -19.411749,4.299675 -2.78703,0.204335 -5.679413,0.730772 -6.427371,1.169679 -1.588111,0.931932 -1.825979,4.337791 -0.340485,4.876531 0.561057,0.20338 0.816662,0.82545 0.568569,1.38218 -0.248102,0.55674 0.03186,1.11547 0.621897,1.24179 0.784572,0.16796 0.75012,0.55014 -0.127996,1.42174 -0.770871,0.76516 -0.898494,1.50855 -0.356894,2.07645 0.464005,0.48652 0.646617,1.32621 0.40612,1.86587 -0.333282,0.74789 0.770525,1.31651 4.641259,2.39105 2.793061,0.77537 6.697224,2.23078 8.67621,3.23465 4.772743,2.42102 5.284851,6.56004 2.467083,19.92986 -8.791704,41.71506 10.807201,70.68184 52.895745,78.17967 5.49445,0.9788 16.73525,0.52187 21.67453,-0.88125 8.12808,-2.30896 7.70098,-7.17527 -0.68753,-7.83552 -4.76562,-0.37509 -4.79805,-0.39886 -3.5312,-2.53142 1.28063,-2.15571 1.51368,-2.01649 -6.0713,-3.63093 -19.28924,-4.10564 -34.85351,-15.52064 -45.40837,-33.30492 -6.36776,-10.72933 -7.504669,-15.36785 -8.635174,-35.2244 -0.473938,-8.32442 -1.304471,-16.62106 -1.846009,-18.43731 -0.984592,-3.30223 -0.984744,-3.30263 2.064246,-4.84909 2.840767,-1.44085 2.888567,-1.51984 0.703933,-1.16075 -1.80665,0.29696 -1.402044,-0.0426 1.761504,-1.48044 13.4455,-6.1107 11.50233,-19.411369 -5.09743,-34.888755 C 84.684714,60.507798 81.092951,50.084556 85.76779,40.937337 89.997492,32.661085 95.909266,27.765832 104.59864,25.34352 c 6.42247,-1.790366 19.20339,-3.534912 20.70724,-2.826248 0.5378,0.25343 2.83587,0.640809 5.10726,0.860829 2.5885,0.250738 4.95095,0.920218 6.33056,1.793763 2.31251,1.46423 2.73729,1.151718 2.25048,-1.656567 -0.35129,-2.026531 9.95257,-0.187916 15.0888,2.692242 3.11634,1.7475 3.58899,1.321833 4.4575,-4.013795 0.80841,-4.96643 -0.13098,-5.978571 -7.72941,-8.324956 -3.4597,-1.068348 -9.16856,-1.60699 -15.64179,-1.670607 z"
       id="path27552" /><path
       style="fill:#ffffff;fill-opacity:1;stroke:#000000;stroke-width:2;stroke-dasharray:none;stroke-opacity:1"
       d="m 260.48691,81.945583 c -11.28767,-0.203386 -47.55915,1.81621 -60.36215,3.537513 -16.81035,2.260071 -46.43843,3.330675 -49.86693,1.801358 -2.63711,-1.176307 -6.2081,0.869743 -7.01287,4.01822 -0.89798,3.513169 -1.2221,15.431666 -0.49601,18.238596 0.78439,3.03233 0.78456,3.03124 18.36905,3.03124 10.70852,0 17.68025,-0.41841 17.82935,-1.07008 0.13779,-0.60231 7.62885,-1.58905 17.13737,-2.25777 9.29117,-0.65345 24.16488,-1.92873 33.05209,-2.83436 8.8872,-0.90562 20.54308,-1.94557 25.90235,-2.31019 11.12588,-0.75693 10.03766,0.57534 10.82032,-13.243621 0.4493,-7.932939 0.44915,-7.932882 -2.20634,-8.680784 -0.45152,-0.127163 -1.55371,-0.20106 -3.16623,-0.23013 z"
       id="path27554" /><path
       style="fill:#000000;stroke-width:0.513125"
       d="m 166.62817,411.18511 c -0.0972,0.0187 -0.0975,0.14826 -0.0274,0.39325 0.1067,0.37287 -0.24381,0.60701 -0.85317,0.57051 -0.64866,-0.0388 -1.03353,0.25157 -1.03353,0.7798 0,0.0191 -0.0101,0.0287 -0.0108,0.047 1.85991,-0.34753 3.7006,-0.77283 5.51645,-1.29914 -0.0732,-0.0438 -0.0705,-0.0684 -0.18396,-0.12247 -0.54632,-0.26082 -1.09122,-0.26187 -1.43351,-0.004 -0.34229,0.25826 -0.86185,0.22248 -1.36736,-0.094 -0.31567,-0.19773 -0.50948,-0.29 -0.60668,-0.2713 z"
       id="path27572" /></g></svg>
