<?xml version="1.0" encoding="UTF-8" standalone="no"?>
<svg
   width="1221.5807"
   height="1006.9164"
   viewBox="0 0 492.00831 405.54936"
   version="1.1"
   id="svg5"
   xml:space="preserve"
   sodipodi:docname="Icon Dark.svg"
   inkscape:version="1.2.2 (b0a8486541, 2022-12-01)"
   xmlns:inkscape="http://www.inkscape.org/namespaces/inkscape"
   xmlns:sodipodi="http://sodipodi.sourceforge.net/DTD/sodipodi-0.dtd"
   xmlns:xlink="http://www.w3.org/1999/xlink"
   xmlns="http://www.w3.org/2000/svg"
   xmlns:svg="http://www.w3.org/2000/svg"><sodipodi:namedview
     id="namedview843"
     pagecolor="#505050"
     bordercolor="#eeeeee"
     borderopacity="1"
     inkscape:showpageshadow="0"
     inkscape:pageopacity="0"
     inkscape:pagecheckerboard="0"
     inkscape:deskcolor="#505050"
     showgrid="false"
     inkscape:zoom="0.77960793"
     inkscape:cx="617.61814"
     inkscape:cy="509.87167"
     inkscape:window-width="1854"
     inkscape:window-height="1011"
     inkscape:window-x="0"
     inkscape:window-y="0"
     inkscape:window-maximized="1"
     inkscape:current-layer="layer6" /><defs
     id="defs2"><linearGradient
       id="linearGradient33604"><stop
         style="stop-color:#000000;stop-opacity:1;"
         offset="0"
         id="stop33602" /></linearGradient><linearGradient
       id="linearGradient27441"><stop
         style="stop-color:#000000;stop-opacity:1;"
         offset="0"
         id="stop27439" /></linearGradient><linearGradient
       id="linearGradient27431"><stop
         style="stop-color:#000000;stop-opacity:1;"
         offset="0"
         id="stop27429" /></linearGradient><linearGradient
       id="linearGradient26695"><stop
         style="stop-color:#f5a623;stop-opacity:1;"
         offset="0"
         id="stop26693" /></linearGradient><linearGradient
       id="linearGradient25949"><stop
         style="stop-color:#000000;stop-opacity:1;"
         offset="0"
         id="stop25947" /></linearGradient><linearGradient
       id="linearGradient25937"><stop
         style="stop-color:#000000;stop-opacity:1;"
         offset="0"
         id="stop25935" /></linearGradient><linearGradient
       id="linearGradient25927"><stop
         style="stop-color:#1e3a8a;stop-opacity:1;"
         offset="0"
         id="stop25925" /></linearGradient><linearGradient
       id="linearGradient25921"><stop
         style="stop-color:#1e3a8a;stop-opacity:1;"
         offset="0"
         id="stop25919" /></linearGradient><linearGradient
       id="linearGradient25915"><stop
         style="stop-color:#000000;stop-opacity:1;"
         offset="0"
         id="stop25913" /></linearGradient><linearGradient
       id="linearGradient25183"><stop
         style="stop-color:#1e3a8a;stop-opacity:1;"
         offset="0"
         id="stop25181" /></linearGradient><linearGradient
       id="linearGradient21063"><stop
         style="stop-color:#000000;stop-opacity:1;"
         offset="0"
         id="stop21061" /></linearGradient><linearGradient
       id="linearGradient20296"><stop
         style="stop-color:#950015;stop-opacity:1;"
         offset="0"
         id="stop20294" /></linearGradient><linearGradient
       xlink:href="#linearGradient32112"
       id="linearGradient32114"
       x1="-5.9037356"
       y1="76.249077"
       x2="142.78526"
       y2="76.249077"
       gradientUnits="userSpaceOnUse"
       gradientTransform="matrix(1.1163195,0,0,1.0982361,-11.277109,-7.074161)" /><linearGradient
       id="linearGradient32112"><stop
         style="stop-color:#00add8;stop-opacity:1;"
         offset="0"
         id="stop32108" /><stop
         style="stop-color:#8a8a8a;stop-opacity:0.7225517;"
         offset="1"
         id="stop32110" /></linearGradient><linearGradient
       xlink:href="#linearGradient30650"
       id="linearGradient30652"
       x1="-7.2258162"
       y1="131.53201"
       x2="145.9556"
       y2="131.53201"
       gradientUnits="userSpaceOnUse"
       gradientTransform="matrix(1.1355216,0,0,0.98967833,-14.04851,-1.5214847)" /><linearGradient
       id="linearGradient30650"><stop
         style="stop-color:#ce422b;stop-opacity:1;"
         offset="0"
         id="stop30646" /><stop
         style="stop-color:#ffffff;stop-opacity:0;"
         offset="1"
         id="stop30648" /></linearGradient><linearGradient
       xlink:href="#linearGradient29914"
       id="linearGradient27720"
       x1="-0.38246065"
       y1="142.05501"
       x2="146.98373"
       y2="64.140099"
       gradientUnits="userSpaceOnUse"
       gradientTransform="matrix(1.0206463,0,0,0.9995926,0.79413833,34.129275)" /><linearGradient
       id="linearGradient29914"><stop
         style="stop-color:#ffd43b;stop-opacity:1;"
         offset="0"
         id="stop29910" /><stop
         style="stop-color:#ffffff;stop-opacity:0;"
         offset="1"
         id="stop29912" /></linearGradient><linearGradient
       xlink:href="#linearGradient32112"
       id="linearGradient8522"
       gradientUnits="userSpaceOnUse"
       gradientTransform="matrix(-1.3683248,0,0,0.94569606,460.27379,1.5411208)"
       x1="-5.9037356"
       y1="76.249077"
       x2="142.78526"
       y2="76.249077" /><linearGradient
       xlink:href="#linearGradient29914"
       id="linearGradient8524"
       gradientUnits="userSpaceOnUse"
       gradientTransform="matrix(-1.2453151,0,0,0.99206394,445.11164,27.014302)"
       x1="-0.38246065"
       y1="142.05501"
       x2="146.98373"
       y2="64.140099" /><linearGradient
       xlink:href="#linearGradient30650"
       id="linearGradient8526"
       gradientUnits="userSpaceOnUse"
       gradientTransform="matrix(-1.3854772,0,0,0.98222434,463.22152,-8.3679485)"
       x1="-7.2258162"
       y1="131.53201"
       x2="145.9556"
       y2="131.53201" /></defs><g
     id="layer8"
     transform="translate(21.540292,-7.4262996)" /><g
     id="layer6"
     style="display:inline"
     transform="translate(21.540292,-7.4262996)"><path
       style="fill:#ffffff;fill-opacity:1;stroke:#000000;stroke-width:4.84131;stroke-dasharray:none;stroke-opacity:1"
       d="m 402.41158,17.843517 c -16.96741,0.214293 -35.82674,6.681964 -42.8252,16.631789 -2.62114,3.726506 -1.86778,17.882522 1.02136,19.195266 2.22319,1.01018 4.10699,0.239139 4.10699,-1.680584 0,-3.81827 23.81802,-12.292389 34.47689,-12.266706 18.58084,0.0448 36.5056,16.872172 36.5056,34.269952 0,7.766705 -8.74991,25.23467 -19.64165,39.210456 -20.63614,26.47941 -27.43099,41.07087 -27.28166,58.58603 0.1342,15.71587 1.67962,19.8559 9.30382,24.91991 7.22335,4.79781 10.71887,5.40059 22.55878,3.88474 11.59053,-1.48394 11.19765,-1.72017 8.97817,5.37641 -5.5819,17.84748 -1.52054,48.56304 10.58117,80.02004 15.88607,41.29412 16.0436,41.88594 14.2573,53.72696 -2.60586,17.27389 -13.25125,28.11537 -42.65667,43.43976 -19.48905,10.15655 -23.38442,14.44394 -16.39255,18.0444 3.63903,1.87387 9.00336,1.8226 14.21804,-0.13564 1.99184,-0.74807 4.74297,-1.36332 6.11302,-1.36574 11.9247,-0.0316 37.60466,-18.01285 42.94304,-30.06909 10.8248,-24.44685 9.51848,-46.6005 -5.07137,-86.02494 -17.69451,-47.81376 -19.11181,-54.70751 -13.65161,-66.37525 5.00892,-10.70343 11.82727,-20.00165 17.97531,-24.51366 9.38615,-6.88832 13.94874,-27.32778 6.10036,-27.32778 -1.94485,0 -3.93742,0.47731 -4.4289,1.06194 -2.62492,3.12252 -31.01662,10.65367 -40.1552,10.65155 -7.67886,-0.002 -15.59902,-2.81853 -18.40994,-6.54578 -2.997,-3.97396 0.20695,-10.54367 16.88421,-34.6194 36.39859,-52.546204 38.45459,-98.038764 5.16388,-114.250435 -5.63955,-2.746305 -12.96073,-3.9414 -20.67319,-3.843995 z"
       id="path27457" /><path
       style="fill:#ffffff;fill-opacity:1;stroke:#000000;stroke-width:4.18255;stroke-dasharray:none;stroke-opacity:1"
       d="m 56.846369,17.487088 c -12.728545,-0.200491 -27.962311,2.09575 -37.587868,6.417637 -23.2475682,10.438184 -39.404697,49.77426 -31.058949,75.614471 1.327629,4.110644 2.6893049,9.885864 3.0268108,12.834064 1.2337866,10.77742 10.8082797,38.14397 18.0921548,51.71393 1.8123894,3.37652 3.2949534,6.51946 3.2949534,6.9847 0,2.46035 -12.541056,6.91234 -22.901963,8.12975 -3.288135,0.38636 -6.700566,1.38171 -7.583008,2.21159 -1.873652,1.76211 -2.154288,8.20182 -0.401705,9.22047 0.661936,0.38454 0.963498,1.56074 0.670799,2.61336 -0.29271,1.05267 0.03759,2.10913 0.733713,2.34795 0.925637,0.31759 0.884991,1.04023 -0.15101,2.6882 -0.909472,1.44678 -1.060042,2.85232 -0.421062,3.92612 0.547432,0.91992 0.762877,2.50756 0.479138,3.52794 -0.393204,1.41411 0.909066,2.48925 5.475755,4.52093 3.2952515,1.46608 7.9013791,4.21793 10.2361854,6.11603 5.6308771,4.57759 6.2350612,12.40357 2.9106605,37.68293 -10.3724428,78.87395 12.7503281,133.64372 62.4063561,147.82044 6.482347,1.85071 19.744234,0.98674 25.571592,-1.66627 9.589507,-4.36571 9.085607,-13.56682 -0.811147,-14.81519 -5.622476,-0.70923 -5.660734,-0.75418 -4.166108,-4.78637 1.510888,-4.07594 1.785839,-3.81273 -7.162912,-6.86529 -22.75743,-7.76285 -41.120144,-29.34607 -53.572759,-62.97223 -7.512677,-20.28678 -8.854002,-29.05718 -10.18777,-66.60153 -0.559152,-15.73964 -1.539013,-31.42674 -2.177919,-34.86085 -1.161621,-6.2438 -1.161799,-6.24457 2.435395,-9.16858 3.351534,-2.7243 3.407929,-2.87367 0.830501,-2.19469 -2.131485,0.56146 -1.654132,-0.0808 2.07822,-2.79921 C 32.767412,183.57343 30.474862,158.42481 10.890481,129.1605 -2.7152774,108.82988 -6.9528395,89.121828 -1.4374665,71.826463 3.5527332,56.177908 10.527438,46.922064 20.779155,42.342011 28.35638,38.956825 43.435297,35.658274 45.209537,36.9982 c 0.634497,0.47918 3.345757,1.211628 6.025543,1.62764 3.053908,0.474088 5.841125,1.739928 7.468788,3.391605 2.728298,2.768537 3.229452,2.177645 2.655115,-3.1322 -0.414452,-3.831719 11.742032,-0.355304 17.801753,5.090433 3.676655,3.304137 4.234285,2.499294 5.258959,-7.589197 0.953759,-9.390418 -0.154533,-11.304149 -9.119156,-15.740648 -4.081751,-2.020007 -10.817059,-3.03846 -18.45417,-3.158745 z"
       id="path27552" /><path
       style="fill:#b7410e;fill-opacity:1;stroke:#000000;stroke-width:6.14783;stroke-dasharray:none;stroke-opacity:1"
       d="m 321.99782,90.976366 c -27.32451,-0.793897 -115.1284,7.089223 -146.12116,13.808024 -40.69352,8.8218 -112.415399,13.00072 -120.714903,7.03129 -6.383764,-4.59152 -15.028208,3.39488 -16.976348,15.68442 -2.173777,13.71305 -2.958388,60.23485 -1.200713,71.19123 1.898807,11.83617 1.899218,11.83191 44.466713,11.83191 25.922511,0 42.799281,-1.63318 43.160211,-4.17686 0.33356,-2.35102 18.46747,-6.20258 41.48515,-8.81281 22.49152,-2.55063 58.49693,-7.52848 80.01057,-11.06345 21.51362,-3.53494 49.72948,-7.59418 62.70289,-9.01743 26.93289,-2.95454 24.29858,2.24575 26.19321,-51.69418 1.08764,-30.964829 1.08727,-30.964629 -5.34098,-33.883917 -1.09302,-0.49635 -3.76114,-0.784807 -7.66464,-0.898267 z"
       id="path27554" /><path
       style="display:inline;fill:#00add8;fill-opacity:1;stroke:#000000;stroke-width:6.14783;stroke-dasharray:none;stroke-opacity:1"
       d="m 342.22523,119.97541 c -27.32452,-0.79387 -115.12841,7.08927 -146.12117,13.80807 -40.69351,8.82179 -112.415431,13.00069 -120.714938,7.03129 -6.383758,-4.59153 -15.028209,3.39486 -16.976342,15.68441 -2.173786,13.71306 -2.958387,60.23486 -1.200718,71.19124 1.898805,11.83618 1.899225,11.8319 44.466698,11.8319 25.92256,0 42.79933,-1.63318 43.16026,-4.17685 0.33356,-2.35103 18.46747,-6.20258 41.48515,-8.81282 22.49152,-2.55062 58.49693,-7.52847 80.01057,-11.06344 21.51362,-3.53493 49.72949,-7.59419 62.7029,-9.01743 26.93288,-2.95453 24.29857,2.24575 26.1932,-51.6942 1.08764,-30.96483 1.08727,-30.96464 -5.34098,-33.88393 -1.09302,-0.49635 -3.76114,-0.78481 -7.66463,-0.89828 z"
       id="path27554-3" /><path
       style="display:inline;fill:#ffde57;fill-opacity:1;stroke:#000000;stroke-width:6.14666;stroke-dasharray:none;stroke-opacity:1"
       d="m 367.33064,153.87063 c -27.32453,-0.7939 -115.12841,7.08926 -146.12117,13.80806 -40.69352,8.82179 -112.41545,13.00072 -120.71495,7.03129 -6.383754,-4.59153 -15.028212,3.39488 -16.976346,15.68442 -2.173773,13.71305 -2.958389,60.23485 -1.200718,71.19123 1.898805,11.83617 1.899225,11.83191 44.466714,11.83191 25.92257,0 42.79933,-1.63318 43.16027,-4.17686 0.33354,-2.35102 18.46747,-6.20258 41.48514,-8.81282 22.49153,-2.55062 58.49693,-7.52847 80.01057,-11.06344 21.51362,-3.53494 49.72948,-7.59419 62.70289,-9.01744 26.93289,-2.95453 24.29859,2.24576 26.1932,-51.69417 1.08766,-30.96485 1.08729,-30.96466 -5.34096,-33.88395 -1.09303,-0.49636 -3.76114,-0.78482 -7.66464,-0.89828 z"
       id="path27554-6" /><path
       style="fill:#ffffff;stroke-width:0.513125"
       d="m 166.62817,411.18511 c -0.0972,0.0187 -0.0975,0.14826 -0.0274,0.39325 0.1067,0.37287 -0.24381,0.60701 -0.85317,0.57051 -0.64866,-0.0388 -1.03353,0.25157 -1.03353,0.7798 0,0.0191 -0.0101,0.0287 -0.0108,0.047 1.85991,-0.34753 3.7006,-0.77283 5.51645,-1.29914 -0.0732,-0.0438 -0.0705,-0.0684 -0.18396,-0.12247 -0.54632,-0.26082 -1.09122,-0.26187 -1.43351,-0.004 -0.34229,0.25826 -0.86185,0.22248 -1.36736,-0.094 -0.31567,-0.19773 -0.50948,-0.29 -0.60668,-0.2713 z"
       id="path27572" /></g></svg>
