<?xml version="1.0" encoding="UTF-8" standalone="no"?>
<svg
   width="979.82483"
   height="1006.9164"
   viewBox="0 0 394.63784 405.54936"
   version="1.1"
   id="svg5"
   xml:space="preserve"
   sodipodi:docname="Icon Light.svg"
   inkscape:version="1.2.2 (b0a8486541, 2022-12-01)"
   xmlns:inkscape="http://www.inkscape.org/namespaces/inkscape"
   xmlns:sodipodi="http://sodipodi.sourceforge.net/DTD/sodipodi-0.dtd"
   xmlns="http://www.w3.org/2000/svg"
   xmlns:svg="http://www.w3.org/2000/svg"><sodipodi:namedview
     id="namedview3607"
     pagecolor="#505050"
     bordercolor="#eeeeee"
     borderopacity="1"
     inkscape:showpageshadow="0"
     inkscape:pageopacity="0"
     inkscape:pagecheckerboard="0"
     inkscape:deskcolor="#505050"
     showgrid="false"
     inkscape:zoom="0.77960793"
     inkscape:cx="490.63123"
     inkscape:cy="571.44108"
     inkscape:window-width="1920"
     inkscape:window-height="1043"
     inkscape:window-x="0"
     inkscape:window-y="0"
     inkscape:window-maximized="1"
     inkscape:current-layer="svg5" /><defs
     id="defs2"><linearGradient
       id="linearGradient33604"><stop
         style="stop-color:#000000;stop-opacity:1;"
         offset="0"
         id="stop33602" /></linearGradient><linearGradient
       id="linearGradient27441"><stop
         style="stop-color:#000000;stop-opacity:1;"
         offset="0"
         id="stop27439" /></linearGradient><linearGradient
       id="linearGradient27431"><stop
         style="stop-color:#000000;stop-opacity:1;"
         offset="0"
         id="stop27429" /></linearGradient><linearGradient
       id="linearGradient26695"><stop
         style="stop-color:#f5a623;stop-opacity:1;"
         offset="0"
         id="stop26693" /></linearGradient><linearGradient
       id="linearGradient25949"><stop
         style="stop-color:#000000;stop-opacity:1;"
         offset="0"
         id="stop25947" /></linearGradient><linearGradient
       id="linearGradient25937"><stop
         style="stop-color:#000000;stop-opacity:1;"
         offset="0"
         id="stop25935" /></linearGradient><linearGradient
       id="linearGradient25927"><stop
         style="stop-color:#1e3a8a;stop-opacity:1;"
         offset="0"
         id="stop25925" /></linearGradient><linearGradient
       id="linearGradient25921"><stop
         style="stop-color:#1e3a8a;stop-opacity:1;"
         offset="0"
         id="stop25919" /></linearGradient><linearGradient
       id="linearGradient25915"><stop
         style="stop-color:#000000;stop-opacity:1;"
         offset="0"
         id="stop25913" /></linearGradient><linearGradient
       id="linearGradient25183"><stop
         style="stop-color:#1e3a8a;stop-opacity:1;"
         offset="0"
         id="stop25181" /></linearGradient><linearGradient
       id="linearGradient21063"><stop
         style="stop-color:#000000;stop-opacity:1;"
         offset="0"
         id="stop21061" /></linearGradient><linearGradient
       id="linearGradient20296"><stop
         style="stop-color:#950015;stop-opacity:1;"
         offset="0"
         id="stop20294" /></linearGradient></defs><g
     id="layer5"
     style="display:inline"
     transform="translate(-17.136284,-7.4262996)" /><g
     id="layer8"
     transform="translate(-17.136284,-7.4262996)" /><path
     style="display:inline;fill:#020000;fill-opacity:1;stroke:#ffffff;stroke-width:4.33604;stroke-dasharray:none;stroke-opacity:1"
     d="m 339.94262,13.269444 c -13.59952,0.214468 -28.71543,6.687404 -34.32475,16.645328 -2.10086,3.72954 -1.49704,17.89708 0.81863,19.210892 1.7819,1.011003 3.29179,0.239334 3.29179,-1.681952 0,-3.821378 19.09034,-12.302395 27.63351,-12.276691 14.89269,0.04484 29.25954,16.885906 29.25954,34.297849 0,7.773033 -7.01313,25.255212 -15.74295,39.24238 -16.54003,26.50097 -21.98616,41.1043 -21.86647,58.63372 0.10756,15.72867 1.34623,19.87207 7.45709,24.9402 5.78957,4.80171 8.59126,5.40498 18.08104,3.8879 9.28991,-1.48515 8.97501,-1.72157 7.19608,5.38079 -4.47394,17.86201 -1.21872,48.60257 8.4809,80.08518 12.73281,41.32773 12.85907,41.92004 11.42734,53.77069 -2.08862,17.28796 -10.62099,28.13826 -34.18967,43.47513 -15.62064,10.16481 -18.74281,14.4557 -13.13877,18.05909 2.91672,1.87539 7.21627,1.82408 11.39588,-0.13575 1.59647,-0.74868 3.80153,-1.36443 4.89963,-1.36686 9.55775,-0.0316 30.14045,-18.02751 34.41921,-30.09356 8.67616,-24.46675 7.62914,-46.63844 -4.06475,-86.09497 -14.1823,-47.85269 -15.31827,-54.75205 -10.94188,-66.42929 4.01469,-10.71214 9.47966,-20.01793 14.40736,-24.53361 7.52308,-6.89393 11.18003,-27.35003 4.88949,-27.35003 -1.55881,0 -3.15587,0.4777 -3.5498,1.06281 -2.10389,3.12506 -24.86008,10.66234 -32.18472,10.66022 -6.15467,-0.002 -12.50275,-2.82083 -14.75572,-6.55111 -2.40212,-3.9772 0.16587,-10.55225 13.53283,-34.64758 29.17377,-52.588989 30.82167,-98.11858 4.13889,-114.343448 -4.52014,-2.748541 -10.38813,-3.944609 -16.56973,-3.847125 z"
     id="path27457" /><path
     style="display:inline;fill:#000000;fill-opacity:1;stroke:#ffffff;stroke-width:3.74604;stroke-dasharray:none;stroke-opacity:1"
     d="M 62.969261,12.912725 C 52.767227,12.712071 40.557238,15.010181 32.842275,19.335586 14.209157,29.782268 1.2590854,69.150365 7.9482712,95.01161 c 1.0641056,4.113996 2.1554998,9.89392 2.4260128,12.84452 0.988891,10.78619 8.662926,38.17502 14.501012,51.75603 1.452645,3.37926 2.640932,6.52476 2.640932,6.99038 0,2.46235 -10.051759,6.91797 -18.3561116,8.13637 -2.6354673,0.38667 -5.3705588,1.38283 -6.0778434,2.21339 -1.5017475,1.76354 -1.7266796,8.2085 -0.3219698,9.22798 0.5305471,0.38485 0.7722515,1.56201 0.5376509,2.61548 -0.2346095,1.05353 0.030129,2.11085 0.588077,2.34986 0.7419057,0.31785 0.7093276,1.04108 -0.1210358,2.69039 -0.7289493,1.44796 -0.8496324,2.85465 -0.3374846,3.92932 0.4387712,0.92067 0.6114522,2.5096 0.384033,3.53081 -0.3151562,1.41526 0.7286239,2.49128 4.3888628,4.52461 2.6411705,1.46728 6.3330205,4.22137 8.2043865,6.12101 4.513194,4.58132 4.997453,12.41367 2.332919,37.71361 -8.313599,78.93815 10.219493,133.75251 50.019208,147.94077 5.195655,1.85222 15.825169,0.98754 20.495838,-1.66763 7.686071,-4.36926 7.282191,-13.57786 -0.650135,-14.82725 -4.506464,-0.7098 -4.53713,-0.75479 -3.339172,-4.79026 1.210991,-4.07926 1.431366,-3.81584 -5.741133,-6.87088 -18.240268,-7.76917 -32.958134,-29.36996 -42.939008,-63.02349 -6.021472,-20.3033 -7.096555,-29.08084 -8.165581,-66.65575 -0.448165,-15.75245 -1.233532,-31.45232 -1.74562,-34.88923 -0.931049,-6.24888 -0.931192,-6.24965 1.951989,-9.17604 2.686282,-2.72652 2.731483,-2.87601 0.665653,-2.19648 -1.708402,0.56192 -1.3258,-0.0809 1.665711,-2.80149 C 43.669778,179.13428 41.83228,153.96518 26.135238,124.67705 15.23011,104.32988 11.833669,84.605776 16.254286,67.296335 20.253972,51.635041 25.844256,42.371663 34.061091,37.787881 40.1343,34.39994 52.220176,31.098703 53.642244,32.43972 c 0.508554,0.47957 2.681652,1.212614 4.829522,1.628965 2.447733,0.474474 4.68171,1.741345 5.986295,3.394366 2.186754,2.770791 2.588433,2.179418 2.128097,-3.13475 -0.332187,-3.834838 9.411335,-0.355593 14.268252,5.094577 2.946866,3.306827 3.393811,2.501329 4.2151,-7.595375 C 85.833957,22.429441 84.945645,20.514152 77.76043,16.074041 74.488873,14.05239 69.090468,13.033108 62.969261,12.912725 Z"
     id="path27552" /><path
     style="display:inline;fill:#b7410e;fill-opacity:1;stroke:#000000;stroke-width:5.50621;stroke-dasharray:none;stroke-opacity:1"
     d="m 275.49033,86.461825 c -21.90082,-0.794536 -92.27636,7.095001 -117.11731,13.819275 -32.61619,8.82898 -90.101869,13.0113 -96.75399,7.03701 -5.116639,-4.59526 -12.045232,3.39764 -13.606683,15.69719 -1.7423,13.72421 -2.371172,60.28388 -0.962381,71.24918 1.52191,11.84581 1.522239,11.84154 35.640435,11.84154 20.777109,0 34.303979,-1.63451 34.593269,-4.18026 0.26735,-2.35293 14.80182,-6.20763 33.25068,-8.81998 18.02714,-2.55271 46.88578,-7.53461 64.12914,-11.07246 17.24334,-3.53781 39.85858,-7.60036 50.25688,-9.02477 21.58693,-2.95694 19.47551,2.24758 20.99407,-51.73626 0.87175,-30.990037 0.87146,-30.989837 -4.28084,-33.911504 -0.87606,-0.496754 -3.01458,-0.785448 -6.14327,-0.899001 z"
     id="path27554" /><path
     style="display:inline;fill:#00add8;fill-opacity:1;stroke:#000000;stroke-width:5.50621;stroke-dasharray:none;stroke-opacity:1"
     d="m 291.70277,115.48448 c -21.90083,-0.79451 -92.27637,7.09504 -117.11733,13.81931 -32.61618,8.82897 -90.101888,13.01128 -96.75401,7.03702 -5.116635,-4.59527 -12.045233,3.39762 -13.606678,15.69718 -1.742307,13.72422 -2.371172,60.28389 -0.962385,71.24919 1.521907,11.84581 1.522244,11.84153 35.640422,11.84153 20.777141,0 34.304011,-1.63451 34.593301,-4.18025 0.26735,-2.35294 14.80183,-6.20763 33.25069,-8.81999 18.02714,-2.5527 46.88577,-7.5346 64.12913,-11.07245 17.24335,-3.53781 39.8586,-7.60037 50.25689,-9.02477 21.58693,-2.95694 19.47551,2.24758 20.99407,-51.73628 0.87175,-30.99004 0.87146,-30.98985 -4.28084,-33.91152 -0.87606,-0.49675 -3.01458,-0.78544 -6.14326,-0.89901 z"
     id="path27554-3" /><path
     style="display:inline;fill:#ffde57;fill-opacity:1;stroke:#000000;stroke-width:5.50516;stroke-dasharray:none;stroke-opacity:1"
     d="m 311.82496,149.4073 c -21.90084,-0.79455 -92.27637,7.09503 -117.11732,13.8193 -32.61619,8.82897 -90.10191,13.0113 -96.754029,7.03701 -5.116628,-4.59527 -12.045234,3.39764 -13.606677,15.69719 -1.742302,13.72421 -2.371173,60.28388 -0.962387,71.24918 1.521904,11.84581 1.522241,11.84154 35.640433,11.84154 20.77716,0 34.30402,-1.63451 34.59331,-4.18026 0.26734,-2.35293 14.80183,-6.20763 33.25069,-8.81999 18.02714,-2.5527 46.88577,-7.5346 64.12913,-11.07245 17.24334,-3.53782 39.85858,-7.60037 50.25688,-9.02478 21.58693,-2.95693 19.47552,2.24759 20.99406,-51.73625 0.87177,-30.99006 0.87148,-30.98987 -4.28082,-33.91153 -0.87607,-0.49677 -3.01458,-0.78546 -6.14327,-0.89901 z"
     id="path27554-6" /><path
     style="display:inline;fill:#ffffff;stroke-width:0.459572;stroke:#000000;stroke-opacity:1"
     d="m 150.96028,406.93124 c -0.0779,0.0187 -0.0782,0.14838 -0.022,0.39357 0.0855,0.37318 -0.19541,0.60751 -0.68382,0.57098 -0.5199,-0.0388 -0.82838,0.25177 -0.82838,0.78043 0,0.0191 -0.008,0.0287 -0.009,0.047 1.49074,-0.34781 2.96606,-0.77346 4.42148,-1.3002 -0.0587,-0.0438 -0.0565,-0.0685 -0.14744,-0.12257 -0.43788,-0.26103 -0.87462,-0.26208 -1.14897,-0.004 -0.27435,0.25847 -0.69078,0.22266 -1.09595,-0.0941 -0.25301,-0.19789 -0.40836,-0.29023 -0.48626,-0.27152 z"
     id="path27572" /></svg>
