<?xml version="1.0" encoding="UTF-8" standalone="no"?>
<!-- Created with Inkscape (http://www.inkscape.org/) -->

<svg
   width="412.42999mm"
   height="412.42999mm"
   viewBox="0 0 412.42999 412.43"
   version="1.1"
   id="svg5"
   inkscape:export-filename="bitmap.png"
   inkscape:export-xdpi="96"
   inkscape:export-ydpi="96"
   xml:space="preserve"
   inkscape:version="1.2.2 (b0a8486541, 2022-12-01)"
   sodipodi:docname="Polyglot-icon-DarkMode.svg"
   xmlns:inkscape="http://www.inkscape.org/namespaces/inkscape"
   xmlns:sodipodi="http://sodipodi.sourceforge.net/DTD/sodipodi-0.dtd"
   xmlns:xlink="http://www.w3.org/1999/xlink"
   xmlns="http://www.w3.org/2000/svg"
   xmlns:svg="http://www.w3.org/2000/svg"><sodipodi:namedview
     id="namedview7"
     pagecolor="#505050"
     bordercolor="#eeeeee"
     borderopacity="1"
     inkscape:showpageshadow="0"
     inkscape:pageopacity="0"
     inkscape:pagecheckerboard="0"
     inkscape:deskcolor="#505050"
     inkscape:document-units="mm"
     showgrid="false"
     inkscape:zoom="0.45141389"
     inkscape:cx="646.85648"
     inkscape:cy="716.63723"
     inkscape:window-width="1920"
     inkscape:window-height="1043"
     inkscape:window-x="0"
     inkscape:window-y="0"
     inkscape:window-maximized="1"
     inkscape:current-layer="layer7"
     showguides="false" /><defs
     id="defs2"><linearGradient
       id="linearGradient33604"
       inkscape:swatch="solid"><stop
         style="stop-color:#000000;stop-opacity:1;"
         offset="0"
         id="stop33602" /></linearGradient><linearGradient
       id="linearGradient27441"
       inkscape:swatch="solid"><stop
         style="stop-color:#000000;stop-opacity:1;"
         offset="0"
         id="stop27439" /></linearGradient><linearGradient
       id="linearGradient27431"
       inkscape:swatch="solid"><stop
         style="stop-color:#000000;stop-opacity:1;"
         offset="0"
         id="stop27429" /></linearGradient><linearGradient
       id="linearGradient26695"
       inkscape:swatch="solid"><stop
         style="stop-color:#f5a623;stop-opacity:1;"
         offset="0"
         id="stop26693" /></linearGradient><linearGradient
       id="linearGradient25949"
       inkscape:swatch="solid"><stop
         style="stop-color:#000000;stop-opacity:1;"
         offset="0"
         id="stop25947" /></linearGradient><linearGradient
       id="linearGradient25937"
       inkscape:swatch="solid"><stop
         style="stop-color:#000000;stop-opacity:1;"
         offset="0"
         id="stop25935" /></linearGradient><linearGradient
       id="linearGradient25927"
       inkscape:swatch="solid"><stop
         style="stop-color:#1e3a8a;stop-opacity:1;"
         offset="0"
         id="stop25925" /></linearGradient><linearGradient
       id="linearGradient25921"
       inkscape:swatch="solid"><stop
         style="stop-color:#1e3a8a;stop-opacity:1;"
         offset="0"
         id="stop25919" /></linearGradient><linearGradient
       id="linearGradient25915"
       inkscape:swatch="solid"><stop
         style="stop-color:#000000;stop-opacity:1;"
         offset="0"
         id="stop25913" /></linearGradient><linearGradient
       id="linearGradient25183"
       inkscape:swatch="solid"><stop
         style="stop-color:#1e3a8a;stop-opacity:1;"
         offset="0"
         id="stop25181" /></linearGradient><linearGradient
       id="linearGradient21063"
       inkscape:swatch="solid"><stop
         style="stop-color:#000000;stop-opacity:1;"
         offset="0"
         id="stop21061" /></linearGradient><linearGradient
       id="linearGradient20296"
       inkscape:swatch="solid"><stop
         style="stop-color:#950015;stop-opacity:1;"
         offset="0"
         id="stop20294" /></linearGradient><linearGradient
       inkscape:collect="always"
       xlink:href="#linearGradient32112"
       id="linearGradient32114"
       x1="-5.9037356"
       y1="76.249077"
       x2="142.78526"
       y2="76.249077"
       gradientUnits="userSpaceOnUse"
       gradientTransform="matrix(1.4924101,0,0,2.3381416,-58.197777,-18.7111)" /><linearGradient
       inkscape:collect="always"
       id="linearGradient32112"><stop
         style="stop-color:#00add8;stop-opacity:1;"
         offset="0"
         id="stop32108" /><stop
         style="stop-color:#8a8a8a;stop-opacity:0.7225517;"
         offset="1"
         id="stop32110" /></linearGradient><linearGradient
       inkscape:collect="always"
       xlink:href="#linearGradient30650"
       id="linearGradient30652"
       x1="-7.2258162"
       y1="131.53201"
       x2="145.9556"
       y2="131.53201"
       gradientUnits="userSpaceOnUse"
       gradientTransform="matrix(1.3102323,0,0,1.7460383,-31.281949,26.195094)" /><linearGradient
       inkscape:collect="always"
       id="linearGradient30650"><stop
         style="stop-color:#ce422b;stop-opacity:1;"
         offset="0"
         id="stop30646" /><stop
         style="stop-color:#ffffff;stop-opacity:0;"
         offset="1"
         id="stop30648" /></linearGradient><linearGradient
       inkscape:collect="always"
       xlink:href="#linearGradient29914"
       id="linearGradient27720"
       x1="-0.38246065"
       y1="142.05501"
       x2="146.98373"
       y2="64.140099"
       gradientUnits="userSpaceOnUse"
       gradientTransform="matrix(1.1182145,0,0,1.6761556,-3.7606101,94.318431)" /><linearGradient
       inkscape:collect="always"
       id="linearGradient29914"><stop
         style="stop-color:#ffd43b;stop-opacity:1;"
         offset="0"
         id="stop29910" /><stop
         style="stop-color:#ffffff;stop-opacity:0;"
         offset="1"
         id="stop29912" /></linearGradient><linearGradient
       inkscape:collect="always"
       xlink:href="#linearGradient33612"
       id="linearGradient33614"
       x1="266.08316"
       y1="54.9995"
       x2="473.53333"
       y2="54.9995"
       gradientUnits="userSpaceOnUse"
       gradientTransform="matrix(1.4424573,0,0,2.1192275,-85.731054,-4.7369377)" /><linearGradient
       inkscape:collect="always"
       id="linearGradient33612"><stop
         style="stop-color:#00599c;stop-opacity:1;"
         offset="0"
         id="stop33608" /><stop
         style="stop-color:#ffffff;stop-opacity:0.74901962;"
         offset="0.25"
         id="stop33618" /><stop
         style="stop-color:#ffffff;stop-opacity:0.08627451;"
         offset="0.62886083"
         id="stop33616" /></linearGradient></defs><g
     inkscape:groupmode="layer"
     id="layer7"
     inkscape:label="backgound"><rect
       style="fill:#18181b;fill-opacity:1;stroke:none;stroke-width:22.5637;stroke-dasharray:none;stroke-opacity:1"
       id="rect35273"
       width="412.42999"
       height="412.42999"
       x="0"
       y="0" /></g><g
     inkscape:groupmode="layer"
     id="layer5"
     inkscape:label="Layer 1"
     style="display:inline"><path
       style="fill:none;fill-opacity:0.857947;stroke:url(#linearGradient33614);stroke-width:39.4503;stroke-dasharray:none;stroke-opacity:1"
       d="m 298.08258,195.14164 c 114.56561,0 290.26508,-170.607042 290.26508,-170.607042 v 0 0"
       id="path32844" /><path
       style="fill:none;fill-opacity:0.857947;stroke:url(#linearGradient32114);stroke-width:42.1492;stroke-dasharray:none;stroke-opacity:1"
       d="m -58.197777,106.58198 c 98.986107,95.23275 212.444627,102.0957 212.444627,102.0957 v 0 0"
       id="path31380" /><path
       style="fill:none;fill-opacity:0.857947;stroke:url(#linearGradient27720);stroke-width:30.583;stroke-dasharray:none;stroke-opacity:1"
       d="M -18.507522,423.47887 C 74.381407,242.36972 162.32202,200.8835 162.32202,200.8835"
       id="path27712"
       sodipodi:nodetypes="cc" /><path
       style="fill:none;fill-opacity:0.857947;stroke:url(#linearGradient30652);stroke-width:34.1279;stroke-dasharray:none;stroke-opacity:1"
       d="M -31.281948,314.33663 C 75.193837,196.00069 159.16795,201.95838 159.16795,201.95838 v 0"
       id="path30644" /></g><g
     inkscape:groupmode="layer"
     id="layer6"
     inkscape:label="Layer 2"
     style="display:inline"><path
       style="fill:#ffffff;stroke-width:0.865686"
       d="m 341.81755,25.76105 c -9.2504,0.190971 -19.53226,5.953441 -23.34773,14.818459 -1.42901,3.320213 -1.01828,15.932841 0.55683,17.102451 1.21207,0.90005 2.23909,0.213066 2.23909,-1.497344 0,-3.401976 12.98526,-10.952184 18.79632,-10.929296 10.13002,0.04004 19.9024,15.032633 19.9024,30.533574 0,6.919924 -4.77035,22.483379 -10.70838,34.935436 -11.25055,23.59238 -14.95501,36.59297 -14.8736,52.19848 0.0732,14.00239 0.91571,17.69103 5.07231,22.20293 3.93809,4.2747 5.84378,4.81176 12.29875,3.4612 6.319,-1.32214 6.10482,-1.53263 4.89477,4.79022 -3.04317,15.90163 -0.82897,43.26835 5.76871,71.29561 8.66088,36.7919 8.74676,37.31926 7.77291,47.86925 -1.42069,15.39054 -7.2244,25.05 -23.25585,38.7036 -10.6252,9.04921 -12.74887,12.86915 -8.93701,16.07705 1.98395,1.6696 4.90851,1.62389 7.75148,-0.12092 1.08594,-0.66652 2.58582,-1.2147 3.33274,-1.21681 6.50119,-0.0279 20.50157,-16.04898 23.41198,-26.79073 5.90153,-21.78148 5.18934,-41.51974 -2.76484,-76.64582 -9.64681,-42.60073 -10.4195,-48.74287 -7.44268,-59.1385 2.73079,-9.53646 6.44806,-17.82094 9.7999,-21.84098 5.1172,-6.13731 7.60466,-24.3483 3.32583,-24.3483 -1.0603,0 -2.14663,0.4253 -2.41457,0.94617 -1.43108,2.78207 -16.90984,9.49214 -21.89209,9.49025 -4.18641,-9.8e-4 -8.50438,-2.51124 -10.03686,-5.83211 -1.63391,-3.54071 0.11285,-9.39412 9.20506,-30.84494 19.84402,-46.817195 20.96493,-87.34981 2.81527,-101.793949 -3.07461,-2.446876 -7.06602,-3.511674 -11.27074,-3.424895 z"
       id="path27457" /><path
       style="fill:#ffffff;stroke-width:0.865686"
       d="m 132.83873,21.461819 c -9.08475,-0.182881 -19.95757,1.911008 -26.82761,5.851908 -16.592515,9.518024 -28.124358,45.386536 -22.167739,68.948894 0.947572,3.748269 1.919443,9.014379 2.160331,11.702699 0.880589,9.82739 7.714196,34.7815 12.912932,47.15524 1.293556,3.07885 2.351696,5.94474 2.351696,6.36899 0,2.24345 -8.950927,6.303 -16.34583,7.41307 -2.346842,0.35231 -4.7824,1.25992 -5.412225,2.01666 -1.337284,1.60675 -1.537581,7.4788 -0.286708,8.40763 0.472443,0.35066 0.687678,1.42316 0.478768,2.38301 -0.208916,0.95989 0.02681,1.92319 0.523675,2.141 0.660656,0.28957 0.631645,0.94848 -0.107775,2.45122 -0.649119,1.3192 -0.756586,2.6009 -0.300526,3.58002 0.390719,0.8388 0.544489,2.28651 0.341978,3.21696 -0.280644,1.28942 0.648828,2.26977 3.908215,4.12239 2.35192,1.33681 5.639455,3.84608 7.305882,5.57686 4.018922,4.17409 4.450161,11.31019 2.077418,34.36115 -7.403126,71.92102 9.100308,121.86272 44.541358,134.78974 4.62665,1.68754 14.09206,0.89976 18.25124,-1.51936 6.84432,-3.98089 6.48466,-12.3709 -0.57895,-13.50923 -4.01292,-0.64671 -4.04024,-0.68769 -2.97347,-4.36445 1.07834,-3.71665 1.27459,-3.47662 -5.1124,-6.26008 -16.24269,-7.07855 -29.34872,-26.75916 -38.23654,-57.42109 -5.36203,-18.49847 -6.31937,-26.49575 -7.27133,-60.73048 -0.39907,-14.35214 -1.09844,-28.6564 -1.55444,-31.78779 -0.829083,-5.69341 -0.829212,-5.6941 1.73822,-8.36037 2.39209,-2.48415 2.43234,-2.62033 0.59275,-2.00123 -1.5213,0.51198 -1.1806,-0.0736 1.48329,-2.55244 11.32191,-10.53546 9.68565,-33.46717 -4.29234,-60.15177 -9.710847,-18.53844 -12.735329,-36.509177 -8.798837,-52.279915 3.561658,-14.26911 8.539713,-22.709008 15.856687,-26.885339 5.4081,-3.086769 16.17038,-6.094552 17.43672,-4.872743 0.45286,0.436935 2.38798,1.104821 4.30062,1.484167 2.17967,0.432292 4.16898,1.58655 5.3307,3.092624 1.94728,2.524477 2.30495,1.985672 1.89504,-2.856092 -0.29581,-3.49394 8.38065,-0.323992 12.70566,4.641703 2.62414,3.012875 3.02213,2.278986 3.75347,-6.920198 0.68072,-8.562636 -0.11032,-10.307668 -6.50861,-14.35306 -2.91328,-1.841945 -7.72046,-2.770634 -13.17132,-2.880298 z"
       id="path27552" /><path
       style="fill:#ffffff;stroke-width:1.51828"
       d="m 305.1242,170.81168 c -15.09051,-0.43301 -63.58194,3.86671 -80.69829,7.53135 -22.47379,4.81169 -62.08365,7.09101 -66.66723,3.83509 -3.52555,-2.50436 -8.29962,1.85167 -9.37551,8.55477 -1.20052,7.47953 -1.63385,32.85398 -0.66314,38.82993 1.04867,6.45583 1.04888,6.45351 24.55763,6.45351 14.31626,0 23.63678,-0.8908 23.8361,-2.27821 0.18423,-1.28231 10.19904,-3.38308 22.911,-4.80679 12.42139,-1.39117 32.3061,-4.10624 44.18742,-6.03433 11.88132,-1.92807 27.4641,-4.14212 34.62891,-4.91838 14.87422,-1.6115 13.41938,1.22489 14.4657,-28.19566 0.6007,-16.88918 0.60049,-16.88908 -2.94965,-18.48137 -0.60363,-0.27071 -2.07716,-0.42804 -4.23294,-0.48993 z"
       id="path27554" /><path
       style="fill:#ffffff;stroke-width:0.513125"
       d="m 190.26764,410.63943 c -0.0972,0.0187 -0.0975,0.14826 -0.0274,0.39325 0.1067,0.37287 -0.24381,0.60701 -0.85317,0.57051 -0.64866,-0.0388 -1.03353,0.25157 -1.03353,0.7798 0,0.0191 -0.0101,0.0287 -0.0108,0.047 1.85991,-0.34753 3.7006,-0.77283 5.51645,-1.29914 -0.0732,-0.0438 -0.0705,-0.0684 -0.18396,-0.12247 -0.54632,-0.26082 -1.09122,-0.26187 -1.43351,-0.004 -0.34229,0.25826 -0.86185,0.22248 -1.36736,-0.094 -0.31567,-0.19773 -0.50948,-0.29 -0.60668,-0.2713 z"
       id="path27572" /></g></svg>
