<?xml version="1.0" encoding="UTF-8" standalone="no"?>
<!-- Created with Inkscape (http://www.inkscape.org/) -->

<svg
   width="412.42999mm"
   height="412.42999mm"
   viewBox="0 0 412.42999 412.43"
   version="1.1"
   id="svg5"
   inkscape:export-filename="bitmap.png"
   inkscape:export-xdpi="96"
   inkscape:export-ydpi="96"
   xml:space="preserve"
   inkscape:version="1.2.2 (b0a8486541, 2022-12-01)"
   sodipodi:docname="Polyglot-lightmode.svg"
   xmlns:inkscape="http://www.inkscape.org/namespaces/inkscape"
   xmlns:sodipodi="http://sodipodi.sourceforge.net/DTD/sodipodi-0.dtd"
   xmlns:xlink="http://www.w3.org/1999/xlink"
   xmlns="http://www.w3.org/2000/svg"
   xmlns:svg="http://www.w3.org/2000/svg"><sodipodi:namedview
     id="namedview7"
     pagecolor="#505050"
     bordercolor="#eeeeee"
     borderopacity="1"
     inkscape:showpageshadow="0"
     inkscape:pageopacity="0"
     inkscape:pagecheckerboard="0"
     inkscape:deskcolor="#505050"
     inkscape:document-units="mm"
     showgrid="false"
     inkscape:zoom="0.45141389"
     inkscape:cx="646.85648"
     inkscape:cy="816.32401"
     inkscape:window-width="1920"
     inkscape:window-height="1043"
     inkscape:window-x="0"
     inkscape:window-y="0"
     inkscape:window-maximized="1"
     inkscape:current-layer="layer6" /><defs
     id="defs2"><linearGradient
       id="linearGradient33604"
       inkscape:swatch="solid"><stop
         style="stop-color:#000000;stop-opacity:1;"
         offset="0"
         id="stop33602" /></linearGradient><linearGradient
       id="linearGradient27441"
       inkscape:swatch="solid"><stop
         style="stop-color:#000000;stop-opacity:1;"
         offset="0"
         id="stop27439" /></linearGradient><linearGradient
       id="linearGradient27431"
       inkscape:swatch="solid"><stop
         style="stop-color:#000000;stop-opacity:1;"
         offset="0"
         id="stop27429" /></linearGradient><linearGradient
       id="linearGradient26695"
       inkscape:swatch="solid"><stop
         style="stop-color:#f5a623;stop-opacity:1;"
         offset="0"
         id="stop26693" /></linearGradient><linearGradient
       id="linearGradient25949"
       inkscape:swatch="solid"><stop
         style="stop-color:#000000;stop-opacity:1;"
         offset="0"
         id="stop25947" /></linearGradient><linearGradient
       id="linearGradient25937"
       inkscape:swatch="solid"><stop
         style="stop-color:#000000;stop-opacity:1;"
         offset="0"
         id="stop25935" /></linearGradient><linearGradient
       id="linearGradient25927"
       inkscape:swatch="solid"><stop
         style="stop-color:#1e3a8a;stop-opacity:1;"
         offset="0"
         id="stop25925" /></linearGradient><linearGradient
       id="linearGradient25921"
       inkscape:swatch="solid"><stop
         style="stop-color:#1e3a8a;stop-opacity:1;"
         offset="0"
         id="stop25919" /></linearGradient><linearGradient
       id="linearGradient25915"
       inkscape:swatch="solid"><stop
         style="stop-color:#000000;stop-opacity:1;"
         offset="0"
         id="stop25913" /></linearGradient><linearGradient
       id="linearGradient25183"
       inkscape:swatch="solid"><stop
         style="stop-color:#1e3a8a;stop-opacity:1;"
         offset="0"
         id="stop25181" /></linearGradient><linearGradient
       id="linearGradient21063"
       inkscape:swatch="solid"><stop
         style="stop-color:#000000;stop-opacity:1;"
         offset="0"
         id="stop21061" /></linearGradient><linearGradient
       id="linearGradient20296"
       inkscape:swatch="solid"><stop
         style="stop-color:#950015;stop-opacity:1;"
         offset="0"
         id="stop20294" /></linearGradient><linearGradient
       inkscape:collect="always"
       xlink:href="#linearGradient32112"
       id="linearGradient32114"
       x1="-5.9037356"
       y1="76.249077"
       x2="142.78526"
       y2="76.249077"
       gradientUnits="userSpaceOnUse"
       gradientTransform="matrix(1.1163195,0,0,1.0982361,-11.277109,-7.074161)" /><linearGradient
       inkscape:collect="always"
       id="linearGradient32112"><stop
         style="stop-color:#00add8;stop-opacity:1;"
         offset="0"
         id="stop32108" /><stop
         style="stop-color:#000000;stop-opacity:0;"
         offset="1"
         id="stop32110" /></linearGradient><linearGradient
       inkscape:collect="always"
       xlink:href="#linearGradient30650"
       id="linearGradient30652"
       x1="-7.2258162"
       y1="131.53201"
       x2="145.9556"
       y2="131.53201"
       gradientUnits="userSpaceOnUse"
       gradientTransform="matrix(1.1355216,0,0,0.98967833,-14.04851,-1.5214847)" /><linearGradient
       inkscape:collect="always"
       id="linearGradient30650"><stop
         style="stop-color:#ce422b;stop-opacity:1;"
         offset="0"
         id="stop30646" /><stop
         style="stop-color:#000000;stop-opacity:0;"
         offset="1"
         id="stop30648" /></linearGradient><linearGradient
       inkscape:collect="always"
       xlink:href="#linearGradient29914"
       id="linearGradient27720"
       x1="-0.38246065"
       y1="142.05501"
       x2="146.98373"
       y2="64.140099"
       gradientUnits="userSpaceOnUse"
       gradientTransform="matrix(1.0206463,0,0,0.9995926,0.79413833,34.129275)" /><linearGradient
       inkscape:collect="always"
       id="linearGradient29914"><stop
         style="stop-color:#ffd43b;stop-opacity:1;"
         offset="0"
         id="stop29910" /><stop
         style="stop-color:#000000;stop-opacity:0;"
         offset="1"
         id="stop29912" /></linearGradient><linearGradient
       inkscape:collect="always"
       xlink:href="#linearGradient33612"
       id="linearGradient33614"
       x1="266.08316"
       y1="54.9995"
       x2="473.53333"
       y2="54.9995"
       gradientUnits="userSpaceOnUse"
       gradientTransform="matrix(1.0789548,0,0,0.9954111,-31.871942,-0.51043323)" /><linearGradient
       inkscape:collect="always"
       id="linearGradient33612"><stop
         style="stop-color:#00599c;stop-opacity:1;"
         offset="0"
         id="stop33608" /><stop
         style="stop-color:#00add8;stop-opacity:0.74901962;"
         offset="0.25"
         id="stop33618" /><stop
         style="stop-color:#00add8;stop-opacity:0.08627451;"
         offset="0.62886083"
         id="stop33616" /></linearGradient></defs><g
     inkscape:groupmode="layer"
     id="layer7"
     inkscape:label="backgound"><rect
       style="fill:#ffffff;fill-opacity:1;stroke:none;stroke-width:22.5637;stroke-dasharray:none;stroke-opacity:1"
       id="rect35273"
       width="412.42999"
       height="412.42999"
       x="0"
       y="0" /></g><g
     inkscape:groupmode="layer"
     id="layer5"
     inkscape:label="Layer 1"
     style="display:inline"><path
       style="fill:none;fill-opacity:0.857947;stroke:url(#linearGradient33614);stroke-width:23.3837;stroke-dasharray:none;stroke-opacity:1"
       d="m 255.21979,93.373486 c 85.69482,0 217.11762,-80.134942 217.11762,-80.134942 v 0 0"
       id="path32844" /><path
       style="fill:none;fill-opacity:0.857947;stroke:url(#linearGradient32114);stroke-width:24.9834;stroke-dasharray:none;stroke-opacity:1"
       d="M -11.277109,51.776583 C 62.764275,96.507866 147.63099,99.731429 147.63099,99.731429 v 0 0"
       id="path31380" /><path
       style="fill:none;fill-opacity:0.857947;stroke:url(#linearGradient27720);stroke-width:22.5637;stroke-dasharray:none;stroke-opacity:1"
       d="M -12.666052,230.4275 C 72.117988,122.42119 152.38547,97.680458 152.38547,97.680458"
       id="path27712"
       sodipodi:nodetypes="cc" /><path
       style="fill:none;fill-opacity:0.857947;stroke:url(#linearGradient30652);stroke-width:23.9196;stroke-dasharray:none;stroke-opacity:1"
       d="M -14.04851,161.80108 C 78.229439,94.726654 151.00616,98.103552 151.00616,98.103552 v 0"
       id="path30644" /></g><g
     inkscape:groupmode="layer"
     id="layer6"
     inkscape:label="Layer 2"
     style="display:inline"><path
       style="fill:#000000;stroke-width:0.513125"
       d="m 287.93345,13.814618 c -6.91928,0.08968 -14.61008,2.79636 -17.46405,6.960299 -1.0689,1.55952 -0.76167,7.483725 0.41651,8.033101 0.90662,0.422752 1.67483,0.100077 1.67483,-0.703316 0,-1.597921 9.71294,-5.144287 14.05961,-5.133537 7.57724,0.01875 14.88694,7.060897 14.88694,14.34176 0,3.250318 -3.56821,10.560553 -8.00984,16.409335 -8.41539,11.081466 -11.18632,17.1879 -11.12542,24.517883 0.0547,6.576993 0.68495,8.309564 3.79408,10.428821 2.94568,2.007853 4.37114,2.260115 9.19944,1.62574 4.7266,-0.621007 4.56638,-0.719881 3.66128,2.249992 -2.27629,7.469064 -0.62008,20.323344 4.31498,33.487884 6.47832,17.28133 6.54255,17.52903 5.81411,22.48441 -1.06267,7.22901 -5.40384,11.7661 -17.39532,18.17926 -7.94762,4.25046 -9.53613,6.0447 -6.68486,7.55147 1.48399,0.78422 3.67155,0.76275 5.79809,-0.0568 0.81227,-0.31306 1.93418,-0.57054 2.49288,-0.57154 4.86288,-0.0131 15.33513,-7.53828 17.51211,-12.58373 4.41433,-10.23086 3.88162,-19.50202 -2.0681,-36.0009 -7.21579,-20.00977 -7.79376,-22.89476 -5.5671,-27.77764 2.04262,-4.47932 4.82313,-8.370574 7.3303,-10.258805 3.82765,-2.882716 5.68827,-11.436512 2.48771,-11.436512 -0.7931,0 -1.60567,0.199758 -1.80609,0.444418 -1.07044,1.306761 -12.64853,4.4585 -16.37523,4.457609 -3.13143,-8.6e-4 -6.36125,-1.179539 -7.50755,-2.739368 -1.22217,-1.663079 0.0844,-4.412459 6.88536,-14.488004 14.84328,-21.990265 15.68172,-41.028619 2.10582,-47.813102 -2.2998,-1.149312 -5.28537,-1.649452 -8.43049,-1.608688 z"
       id="path27457" /><path
       style="fill:#000000;stroke-width:0.513125"
       d="m 131.61777,11.795241 c -6.79538,-0.08587 -14.92822,0.897609 -20.067,2.748669 -12.411161,4.470667 -21.036952,21.318278 -16.581415,32.38562 0.708781,1.760586 1.435738,4.234105 1.615922,5.496822 0.658679,4.615958 5.770203,16.33703 9.658843,22.149036 0.96758,1.446161 1.75907,2.792275 1.75907,2.991549 0,1.053759 -6.69528,2.960543 -12.226649,3.481958 -1.755433,0.165475 -3.577225,0.591794 -4.048332,0.947229 -1.000285,0.754696 -1.150108,3.512827 -0.214457,3.949113 0.353386,0.1647 0.514381,0.668461 0.358118,1.119311 -0.15627,0.450856 0.02006,0.903331 0.391707,1.005623 0.494169,0.13602 0.472469,0.445513 -0.08062,1.151351 -0.48554,0.619639 -0.565924,1.221652 -0.224793,1.681551 0.292258,0.393988 0.407277,1.07399 0.255799,1.511019 -0.209921,0.60565 0.485321,1.066137 2.923335,1.936316 1.759232,0.62791 4.2183,1.806529 5.464782,2.619479 3.00615,1.960588 3.32871,5.312443 1.55391,16.139583 -5.537525,33.78165 6.80701,57.2395 33.31683,63.31138 3.46072,0.79265 10.54083,0.42262 13.65188,-0.71365 5.11954,-1.86984 4.85052,-5.81067 -0.43305,-6.34535 -3.00166,-0.30376 -3.02209,-0.32301 -2.22415,-2.05 0.80661,-1.74573 0.9534,-1.63299 -3.82406,-2.94039 -12.14949,-3.32483 -21.95277,-12.56891 -28.60084,-26.97096 -4.01079,-8.68881 -4.72688,-12.44518 -5.43894,-28.52539 -0.29851,-6.74127 -0.82163,-13.46005 -1.16272,-14.930878 -0.62015,-2.674216 -0.62025,-2.674542 1.30018,-3.926893 1.78928,-1.166823 1.81939,-1.230789 0.44338,-0.939994 -1.13793,0.240483 -0.88309,-0.03457 1.1095,-1.198893 8.46876,-4.948559 7.24484,-15.719692 -3.21066,-28.253573 -7.263692,-8.707593 -9.525995,-17.148532 -6.58151,-24.556124 2.66411,-6.702266 6.38769,-10.666535 11.86077,-12.628169 4.04524,-1.449872 12.09541,-2.862639 13.04262,-2.288749 0.33874,0.205232 1.7862,0.518939 3.21685,0.697115 1.63039,0.203053 3.1184,0.74521 3.98736,1.452624 1.45655,1.185761 1.7241,0.932683 1.41748,-1.34152 -0.22126,-1.641123 6.26871,-0.152178 9.50381,2.180229 1.96285,1.415159 2.26055,1.070445 2.80759,-3.250448 0.50918,-4.021909 -0.0825,-4.84156 -4.86843,-6.741707 -2.17912,-0.865169 -5.77489,-1.301371 -9.85211,-1.352889 z"
       id="path27552" /><path
       style="fill:#000000;stroke-width:0.899936"
       d="m 260.48691,81.945583 c -11.28767,-0.203386 -47.55915,1.81621 -60.36215,3.537513 -16.81035,2.260071 -46.43843,3.330675 -49.86693,1.801358 -2.63711,-1.176307 -6.2081,0.869743 -7.01287,4.01822 -0.89798,3.513169 -1.2221,15.431666 -0.49601,18.238596 0.78439,3.03233 0.78456,3.03124 18.36905,3.03124 10.70852,0 17.68025,-0.41841 17.82935,-1.07008 0.13779,-0.60231 7.62885,-1.58905 17.13737,-2.25777 9.29117,-0.65345 24.16488,-1.92873 33.05209,-2.83436 8.8872,-0.90562 20.54308,-1.94557 25.90235,-2.31019 11.12588,-0.75693 10.03766,0.57534 10.82032,-13.243621 0.4493,-7.932939 0.44915,-7.932882 -2.20634,-8.680784 -0.45152,-0.127163 -1.55371,-0.20106 -3.16623,-0.23013 z"
       id="path27554" /><path
       style="fill:#000000;stroke-width:0.513125"
       d="m 166.62817,411.18511 c -0.0972,0.0187 -0.0975,0.14826 -0.0274,0.39325 0.1067,0.37287 -0.24381,0.60701 -0.85317,0.57051 -0.64866,-0.0388 -1.03353,0.25157 -1.03353,0.7798 0,0.0191 -0.0101,0.0287 -0.0108,0.047 1.85991,-0.34753 3.7006,-0.77283 5.51645,-1.29914 -0.0732,-0.0438 -0.0705,-0.0684 -0.18396,-0.12247 -0.54632,-0.26082 -1.09122,-0.26187 -1.43351,-0.004 -0.34229,0.25826 -0.86185,0.22248 -1.36736,-0.094 -0.31567,-0.19773 -0.50948,-0.29 -0.60668,-0.2713 z"
       id="path27572" /><path
       id="path27564"
       style="fill:#f5a623;stroke-width:2;fill-opacity:1;stroke:#000000;stroke-opacity:1;stroke-dasharray:none"
       d="m 355.95339,206.2152 c -0.032,-8.9e-4 -0.0631,10e-4 -0.0938,0.007 -0.81687,0.14475 -1.14407,2.54561 -1.37299,7.86439 -0.13742,3.1932 -1.13892,8.10474 -2.49613,12.23713 -1.24693,3.79654 -2.32378,8.24366 -2.39235,9.88269 -0.0686,1.63904 -0.39861,2.98053 -0.73372,2.98089 -0.33511,3.9e-4 -0.39322,1.05944 -0.12886,2.35372 0.59061,2.89189 0.56193,2.31551 0.31783,6.43251 -0.19014,3.20709 -0.24728,3.29594 -0.80747,1.25508 -0.60282,-2.19635 -0.60234,-2.19625 -0.71011,0.47074 -0.0593,1.46683 -0.20035,2.66958 -0.31283,2.67239 -0.11246,0.002 -4.25489,0.42028 -9.20571,0.92839 -4.95085,0.50812 -10.89003,0.92936 -13.19797,0.9364 -4.33289,0.0127 -10.12415,1.45171 -10.12415,2.51596 0,1.04126 4.01671,2.67756 5.72961,2.33407 1.22508,-0.24568 1.63498,-0.0182 1.63498,0.90583 0,0.67836 -0.37069,1.05735 -0.82394,0.84253 -0.45327,-0.2148 -1.04499,0.0512 -1.31501,0.59081 -0.27,0.53959 -1.00374,0.98077 -1.63068,0.98077 -0.62696,0 -1.14033,0.42378 -1.14033,0.94149 0,0.54104 0.73832,0.94147 1.73662,0.94147 1.34833,0 1.53619,0.18529 0.83826,0.83018 -0.65837,0.60837 -0.63028,1.0399 0.10448,1.61158 v 7.3e-4 c 0.55191,0.42934 1.92359,0.65467 3.04878,0.50057 1.12518,-0.15408 6.09673,-0.76515 11.04757,-1.35766 4.95086,-0.59249 9.12988,-1.17252 9.28661,-1.28854 0.1567,-0.11597 -4.63039,-0.10331 -10.63812,0.0277 -7.85617,0.17117 -9.77478,0.0863 -6.83199,-0.30195 2.25039,-0.29685 6.48566,-0.56139 9.41117,-0.58715 2.92549,-0.0258 8.01348,-0.52978 11.30671,-1.12047 4.99327,-0.89563 6.27089,-0.9383 7.69386,-0.25684 1.45389,0.69626 1.81875,0.66292 2.46608,-0.2241 0.60244,-0.82551 1.00324,-0.88562 1.93635,-0.29176 0.92501,0.58869 1.47989,0.54066 2.59349,-0.22336 1.00738,-0.69116 3.19002,-0.97605 7.55428,-0.98732 5.24057,-0.0127 12.60286,-1.11846 9.0017,-1.35184 -0.71042,-0.0461 -0.40728,-0.33086 0.71942,-0.67665 1.24311,-0.38199 2.29221,-0.37846 2.90345,0.0106 0.97215,0.61871 19.73199,-1.34309 20.8095,-2.17618 0.28947,-0.22381 0.50852,-2.64481 0.48677,-5.37971 -0.0516,-6.47762 -0.99888,-7.36611 -6.65732,-6.24335 -6.68138,1.32575 -6.52016,1.2629 -5.14547,2.00084 0.88868,0.47704 0.496,0.55306 -1.4961,0.28957 -1.58329,-0.20942 -2.50418,-0.11469 -2.22699,0.22918 1.25984,1.56322 -5.77791,2.47569 -12.6668,1.64216 -2.86411,-0.34656 -2.86411,-0.34704 0,0.37469 2.86412,0.72175 2.86412,0.72163 0,1.20924 -15.19003,2.58605 -17.12207,2.71042 -16.56028,1.063 0.30837,-0.90431 0.15086,-1.18301 -0.49535,-0.87674 -1.62775,0.77144 -1.10258,-2.93129 1.91701,-13.51841 1.57525,-5.52304 2.83827,-10.65704 2.80683,-11.40915 -0.0314,-0.75211 -0.94546,1.57877 -2.03158,5.17963 -2.2467,7.44861 -3.63932,9.35382 -3.63932,4.97883 0,-1.56465 0.27591,-3.05673 0.61348,-3.31559 0.33755,-0.25885 0.63702,-0.94178 0.665,-1.51699 0.13797,-2.83283 2.21653,-8.19291 3.30074,-8.51194 0.95709,-0.28165 1.0275,-0.63382 0.32787,-1.63632 -0.4903,-0.70254 -0.67235,-1.54854 -0.40518,-1.88006 0.77736,-0.96453 -1.20803,-8.17603 -2.9872,-10.85038 -0.86979,-1.30741 -1.51027,-2.02684 -1.99075,-2.04012 z m -4.01229,59.60319 c -0.0631,-0.004 -0.1303,-0.001 -0.20116,0.006 -0.16196,0.0156 -0.34472,0.0553 -0.55262,0.10484 -0.94251,0.22437 -1.83694,0.65508 -1.9879,0.95676 -0.15097,0.30162 -0.61131,0.38862 -1.02294,0.19353 -0.41161,-0.19508 -0.74877,0.10226 -0.74877,0.66066 0,0.55838 0.36813,0.8412 0.81821,0.62788 0.45008,-0.2133 0.8182,-0.10577 0.8182,0.23939 0,0.34513 -0.36812,0.80238 -0.8182,1.01569 -1.39988,0.66345 -0.89899,4.92298 0.87762,7.46495 1.94177,2.77822 2.69514,7.56341 1.46748,9.32246 -0.57807,0.8283 -0.52146,2.57712 0.18468,5.69548 0.8187,3.61531 1.13726,4.19241 1.61852,2.93215 0.5991,-1.56882 0.59885,-1.56882 0.7094,0 0.0608,0.86285 0.63671,2.27446 1.27993,3.1373 1.23095,1.65127 1.66134,3.67458 0.61347,2.8834 -0.33756,-0.25485 -1.07691,-1.36083 -1.64358,-2.45777 -1.03027,-1.99442 -1.03012,-1.99452 -0.55762,-0.1455 0.58425,2.28642 5.40496,12.06393 8.14556,16.52038 3.89841,6.3392 12.2327,11.52899 20.21963,12.59075 3.83475,0.50976 10.61289,-0.39398 12.22443,-1.62979 0.55794,-0.42785 1.49949,-0.77778 2.09312,-0.77778 3.32178,0 12.93799,-9.0572 13.32967,-12.55509 0.53773,-4.80209 0.29312,-5.07473 -3.24562,-3.62624 -1.78147,0.72918 -3.01312,1.60558 -2.73736,1.94772 0.29698,0.36846 0.0791,0.4219 -0.53475,0.13097 -0.59691,-0.2829 -1.31697,-0.14315 -1.69797,0.32959 -0.36376,0.45136 -1.33535,0.88201 -2.15897,0.95676 -0.82363,0.0748 -3.60532,0.72981 -6.18201,1.45588 -19.47047,5.48639 -35.29329,-6.25502 -35.85148,-26.60461 -0.059,-2.14877 -0.28262,-2.75147 -0.71082,-1.91208 -0.95828,1.8785 -1.65427,-1.62507 -2.26636,-11.41206 -0.41568,-6.64665 -0.53438,-7.99877 -1.48179,-8.05137 z m -36.09677,7.56824 c -2.87928,0.0147 -5.89981,0.0755 -8.51622,1.64442 -2.24403,-0.48676 -7.05373,0.65866 -4.54477,4.17627 2.12683,3.09485 5.34253,5.61166 8.84453,5.6534 2.26109,-0.47769 4.27636,-2.01603 6.65668,-1.84005 3.15445,-0.31283 6.32929,-0.38805 9.48888,-0.13036 0.87342,0.35333 4.1289,0.80046 1.4994,1.3609 -2.31812,-0.54527 -1.9726,1.09734 -0.21314,1.65009 1.66174,0.7296 3.01427,1.68573 2.97921,3.37106 1.53014,2.08321 2.55494,3.76511 4.10376,5.92558 0.86285,0.98295 1.25851,5.6327 -0.0294,2.48647 -0.52774,-2.24726 -3.34849,-1.88289 -2.42061,0.6833 0.36072,1.69616 -0.68871,2.07979 -1.69051,1.7408 -1.97278,1.17864 -0.9857,4.72715 -3.26831,4.45979 -0.95728,2.04401 -2.12716,3.444 -3.99842,4.11672 -2.42825,2.51532 -5.4582,3.92385 -8.20997,5.86604 -3.51802,1.99304 -7.45304,2.9979 -11.35579,3.29168 -1.93509,0.11584 2.00078,-1.04401 2.7342,-1.39776 2.66403,-0.96471 5.36713,-1.85907 7.87189,-3.31152 -1.50576,-0.826 -4.12055,1.37611 -6.09072,1.38642 -4.09843,0.97709 -9.06381,0.0286 -11.4979,-4.30952 -2.20266,-3.6404 -3.05609,-8.26413 -2.72686,-12.65069 1.17499,-2.72207 3.82087,3.1048 4.87063,-0.33455 0.72991,-2.68131 1.74176,-5.41283 1.6807,-8.27031 -0.96781,-2.12987 -0.0972,1.38858 -1.54841,1.72948 1.39289,2.56821 -2.89394,3.91876 -2.0923,0.76267 2.29126,-2.27131 0.10399,-5.59494 0.70805,-8.39505 -0.1356,-2.36004 0.83627,-6.54841 -1.24706,-7.56717 -2.38067,1.57688 -2.53344,5.26147 -3.59906,7.91023 -1.29232,4.59946 -2.44956,9.30556 -2.70971,14.1562 0.82054,2.22996 -1.601,4.42984 -0.0319,6.47845 -0.17591,1.5174 0.15698,3.67474 1.813,3.71128 -2.26395,2.18358 1.29192,4.3545 2.73912,4.69227 -0.28258,2.57305 -0.62113,5.14679 1.49449,6.99445 3.3201,5.03662 8.64823,8.80528 14.2615,8.22493 2.12034,-1.23387 -1.83378,-0.68598 -2.43285,-0.93845 1.68227,-2.50041 3.68696,-0.8153 5.42432,0.41961 1.89104,-1.05111 4.73843,-0.47172 6.19118,-2.45245 1.81614,-0.88921 4.7168,-1.49419 6.48271,-3.44193 3.46992,-2.67519 6.50954,-6.11607 8.74898,-10.19258 1.42731,-0.88988 2.50834,-2.53813 2.71216,-3.90975 2.25439,-2.55395 0.75436,-6.9068 0.5733,-10.12453 -1.38247,-3.23427 -1.75349,-7.29312 -4.63786,-9.29664 -1.23314,-0.84651 -4.85482,-4.65237 -1.53371,-4.55902 1.06277,0.13355 1.38262,2.8477 2.25891,1.22764 -1.37457,-1.41925 -2.09909,-3.21404 -2.92531,-4.89923 -1.167,-0.52948 -4.57648,2.14296 -2.7097,-0.72297 2.49543,-1.44798 -2.02278,-3.31524 -1.84487,-2.30502 1.48778,0.45735 1.54634,2.27394 -0.2107,1.46013 -2.32466,-0.58897 -2.27664,-4.79835 -5.20627,-4.02034 -2.26529,-0.38562 -4.55838,-0.49081 -6.84532,-0.51033 z m -58.26047,9.60372 c -1.73831,0.07 -3.53337,0.29111 -5.22965,0.68574 -14.37432,3.34414 -25.69611,11.42929 -25.69611,18.34979 0,2.8203 3.97993,9.41549 6.96805,11.54658 5.31847,3.79308 13.85717,3.95651 18.9699,0.36277 0.69901,-0.49133 1.46869,-0.89349 1.71049,-0.89349 0.24179,0 1.31263,-0.63805 2.37918,-1.418 2.52691,-1.84784 2.69529,-1.61371 1.68517,2.34043 -3.00864,11.77741 -6.89437,19.83573 -16.57676,34.37826 -5.51338,8.28083 -6.27397,9.29959 -11.42153,15.28692 -13.92429,16.19593 -34.60436,30.26252 -57.48331,39.10097 -9.80994,3.78972 -10.22524,4.02197 -9.36894,5.22914 0.37417,0.5275 1.26113,1.13385 1.97094,1.34772 1.26786,0.38201 8.81496,0.41434 8.31732,0.0357 -0.13987,-0.10644 1.14624,-0.67838 2.85771,-1.27124 1.71147,-0.59286 3.24458,-1.23385 3.40703,-1.42472 0.95142,-1.1178 12.70584,-4.89157 15.27348,-4.90357 1.32714,-0.006 8.52698,-3.93451 16.85531,-9.19634 3.68426,-2.32771 14.52549,-10.90003 17.56792,-13.89114 0.92627,-0.91066 1.8906,-1.85603 2.14302,-2.10117 11.48891,-11.15743 28.07026,-37.42958 32.2926,-51.16587 2.39316,-7.78552 4.16171,-22.1349 3.2799,-26.60974 -0.24732,-1.25505 -0.42819,-1.55666 -0.48369,-0.80616 -0.0488,0.65966 -0.378,1.33444 -0.73122,1.49914 -0.35267,0.1647 -0.51071,0.67789 -0.35037,1.1405 0.16034,0.4626 0.0506,0.84077 -0.24391,0.84077 -0.95821,0 -0.59035,-4.19867 0.46974,-5.36039 0.94699,-1.03776 0.94699,-1.06645 0,-0.49041 -0.87693,0.53343 -1.01045,0.50504 -1.04335,-0.22273 -0.0464,-1.027 -0.37365,-3.35143 -0.55707,-3.9548 -0.34593,-1.13792 0.0617,-1.60748 1.18597,-1.36684 0.64981,0.13909 1.71283,0.3663 2.36265,0.5054 1.47046,0.31473 1.55658,-0.53834 0.17105,-1.69344 -0.80959,-0.67494 -0.85548,-0.91439 -0.23203,-1.20509 0.54559,-0.25441 0.58253,-0.45387 0.12403,-0.66766 -0.35959,-0.16768 -0.65371,-0.68676 -0.65371,-1.15394 0,-1.91187 -4.70487,-3.06299 -9.91981,-2.85305 z m 2.17661,8.20983 c 0.42011,-0.0368 0.65423,0.0161 0.65423,0.17777 0,1.43706 -2.88967,6.48719 -4.70204,8.21707 -1.27332,1.21537 -2.13189,2.36338 -1.9079,2.55126 0.224,0.18789 0.10474,0.21137 -0.26458,0.0522 -0.68643,-0.29583 -1.84602,0.45888 -1.93632,1.26038 -0.0276,0.24513 -0.24982,0.45186 -0.49351,0.45786 -0.24368,0.006 -1.68334,0.56703 -3.19928,1.24592 -1.51595,0.6789 -3.64101,1.42589 -4.7222,1.65984 v -5.1e-4 c -2.75339,0.59578 -5.76922,0.5019 -8.06875,-0.25167 -1.96044,-0.64246 -1.96066,-0.64229 -0.29559,-2.93729 1.00349,-1.38311 3.17797,-3.2467 5.47305,-4.68963 4.47878,-2.81582 16.52214,-7.48588 19.46289,-7.7432 z m 28.37191,-71.0064 c -0.17909,0.0103 -0.37281,0.0491 -0.57877,0.11873 -0.733,0.24812 -1.2478,1.33537 -1.49707,3.1617 -0.20895,1.53086 -1.03863,5.70886 -1.84381,9.28385 -4.10187,18.21218 -4.99008,22.88516 -5.08548,26.75389 -0.0572,2.31897 -0.34745,4.44403 -0.64492,4.72217 -0.72078,0.67397 -0.93141,32.23934 -0.21911,32.83791 0.30186,0.25369 0.70218,3.8668 0.88935,8.02928 0.18716,4.1625 0.54535,7.74268 0.79582,7.95656 0.25046,0.21389 0.54334,4.34341 0.65112,9.17657 -0.18446,3.64098 3.26815,-5.63851 3.39722,-9.28651 0.0264,-1.10855 -0.34922,-3.00146 -0.83458,-4.20614 -0.67678,-1.67982 -0.88325,-1.84842 -0.88625,-0.72436 -0.85404,3.36174 0.12591,-2.80312 0.20826,-3.1369 0.7236,44.97659 0.90616,14.35368 3.66303,-13.79825 0.0648,-3.27542 -1.87537,11.82939 -0.37026,9.81143 0.36294,-0.74295 4.23107,-52.78419 3.7648,-53.17561 -9.80968,28.17809 -1.89361,10.08518 0.0727,-2.19704 0.0761,-0.50063 0.46666,-2.4072 0.86765,-4.23716 0.40088,-1.82996 0.57862,-3.52225 0.39481,-3.76019 -0.18381,-0.23793 -0.33435,0.12097 -0.33435,0.79708 0,0.67616 -0.20789,1.39578 -0.4625,1.59946 -0.2546,0.20372 -1.30058,-11.55509 -1.28968,-12.46999 -7.14819,4.01289 2.52242,3.49133 0.0949,0.42884 -0.66789,-0.53435 -0.51165,-2.73687 0.33693,-4.75408 0.71826,-1.70744 0.16384,-3.00665 -1.08986,-2.93119 z" /><path
       id="path27560"
       style="fill:#1e3a8a;stroke-width:2;fill-opacity:1;stroke:#000000;stroke-opacity:1;stroke-dasharray:none"
       d="m 155.60507,244.10693 c -0.21649,0.0173 -0.34313,0.18319 -0.34313,0.52297 0,0.38699 -1.49015,4.25481 -3.31194,8.59534 -3.50818,8.35846 -4.71489,13.1698 -7.5675,30.17697 -0.82234,4.90273 -1.92974,11.36412 -2.46083,14.35829 -1.27955,7.21377 -0.953,21.31853 0.55242,23.8616 3.87398,6.54421 9.65589,10.56711 14.36037,9.99112 1.36663,-0.16733 1.87217,-0.0904 1.59835,0.24391 -0.27465,0.33529 0.18111,0.40144 1.45107,0.20981 2.03343,-0.30684 7.19336,-3.69009 7.19336,-4.71651 0,-0.35449 0.3966,-0.97542 0.8816,-1.37976 1.0549,-0.87946 5.27218,-10.49962 6.25492,-14.26838 0.86565,-3.3197 1.11982,-3.31666 3.8256,0.0439 2.76908,3.43921 4.70455,4.37633 8.41551,4.07521 3.33557,-0.27066 5.76164,-1.13134 6.62699,-2.35128 0.35083,-0.4946 0.93155,-0.76211 1.29036,-0.5948 0.35875,0.16735 0.50423,0.12251 0.32349,-0.0992 -0.18075,-0.22173 0.5985,-1.20537 1.73116,-2.18592 2.05937,-1.78282 2.05945,-1.78242 1.75907,0.22324 -0.3177,2.12125 -1.85101,8.9064 -3.91863,17.34313 -6.00864,24.51788 -25.79815,47.6441 -51.7064,60.42474 -4.34521,2.14351 -17.96099,7.36131 -19.20917,7.36131 -0.4996,0 -1.43289,0.27623 -2.07377,0.61391 -1.223,0.64438 -7.63057,2.4349 -17.93121,5.01003 -11.893984,2.97346 -12.944226,3.49678 -10.67325,5.32061 1.407041,1.13001 5.858028,1.39622 10.42675,0.62373 2.09973,-0.35505 2.84114,-0.3322 3.19412,0.0987 0.36097,0.44066 1.10736,0.38555 3.47318,-0.25631 1.92909,-0.5232 3.6928,-0.71489 4.90306,-0.53227 1.202,0.18137 3.18214,-0.029 5.43843,-0.57774 5.0798,-1.2354 13.23128,-2.75101 15.71894,-2.92282 4.55545,-0.31463 19.41034,-8.90968 30.1227,-17.42891 4.17761,-3.32233 12.21137,-10.68864 12.85658,-11.78843 0.21572,-0.3677 1.96854,-2.47358 3.89486,-4.67982 1.92633,-2.20622 4.77226,-5.91668 6.32416,-8.24549 1.5519,-2.3288 3.19581,-4.53535 3.65352,-4.90306 1.03062,-0.82797 2.94742,-3.66576 4.55683,-6.74636 0.67053,-1.28347 1.85587,-3.34912 2.63395,-4.59041 2.96488,-4.72995 6.28136,-16.72637 8.26358,-29.89069 2.07536,-13.78284 2.80573,-16.59351 5.47253,-21.06021 1.16565,-1.95241 -1.08504,-7.50148 -4.07314,-10.04228 -1.16876,-0.99383 -2.87259,0.3126 -4.11654,3.1564 -3.33714,7.62895 -16.99764,18.80918 -22.98206,18.80918 -2.0512,0 -2.06742,-0.63864 -0.20102,-8.02276 2.25459,-8.91989 2.14642,-11.19783 -0.76378,-16.04502 -1.65355,-2.75413 -2.51602,-2.89557 -4.08502,-0.66921 -2.39674,3.40092 -5.06251,10.70128 -5.77794,15.82281 -0.1541,1.10311 -0.94781,4.11196 -1.76372,6.6859 -0.81592,2.57393 -1.8177,5.78258 -2.22622,7.13083 -0.40851,1.34826 -1.06376,2.75251 -1.45624,3.12022 -1.25433,1.17515 -2.62878,3.49227 -2.62878,4.43229 0,2.5295 -11.06917,6.42115 -14.11955,4.96404 -1.06639,-0.5094 -0.59545,-15.10544 0.82837,-25.66459 3.3904,-25.14331 5.26183,-33.97666 8.79998,-41.54268 1.79311,-3.83427 1.78421,-6.13637 -0.0336,-8.85166 -1.29245,-1.93054 -2.75289,-3.21539 -3.40238,-3.16363 z M 77.471005,227.82975 c -4.171174,-0.071 -14.032183,0.77749 -17.152869,1.69968 -9.520408,2.81336 -24.177377,12.83322 -33.019415,22.5732 -8.440458,9.29762 -10.772882,17.69877 -6.864602,24.72183 1.543793,2.77416 1.760071,7.30967 0.723195,15.16081 -1.213102,9.18555 -1.116205,84.82117 0.110554,86.27643 2.060138,2.44391 5.496181,5.73293 6.797234,6.50611 0.724046,0.43034 2.352929,0.68021 3.62001,0.55597 2.828856,-0.27723 2.542158,2.93322 2.90142,-32.44772 0.285212,-28.08837 0.285017,-28.08871 3.46397,-29.28412 16.563666,-6.22863 33.014473,-17.27262 44.162734,-29.64781 4.120433,-4.57392 11.964182,-19.8217 11.039675,-21.46041 -0.198544,-0.35193 -0.05734,-0.75064 0.313808,-0.88621 1.309694,-0.47825 2.167855,-13.14373 1.419329,-20.94794 -1.217102,-12.68963 -6.881298,-21.53068 -13.923822,-21.73297 -1.572853,-0.0452 -2.256552,-0.30595 -1.776897,-0.67802 0.334328,-0.25936 -0.423932,-0.38517 -1.814324,-0.40883 z m 0.479635,14.45688 c 0.259216,0.0287 0.604791,0.0864 1.044488,0.16971 1.221829,0.23169 2.755763,0.42137 3.408694,0.42137 0.652938,0 1.578924,0.42678 2.057308,0.94892 0.478389,0.52215 1.758347,1.57097 2.844416,2.33089 1.961994,1.37277 1.967905,1.37286 0.986909,-0.0477 -0.899718,-1.30284 -0.891242,-1.34766 0.09156,-0.50664 0.621685,0.53199 1.261633,2.53239 1.511455,4.7228 1.371693,12.02708 -11.320682,32.2249 -28.171239,44.82954 -5.92552,4.43242 -9.41699,7.36745 -7.659196,6.43838 0.543034,-0.28703 1.97521,-1.32289 3.182406,-2.30163 1.466983,-1.18945 2.413732,-1.53992 2.854782,-1.05676 0.441049,0.48316 0.367712,0.9295 -0.220529,1.3452 -2.444729,1.7277 -3.670551,2.48679 -5.323205,3.29652 -0.995563,0.48778 -1.809716,1.14005 -1.809716,1.44971 0,0.30964 -0.444451,0.56349 -0.987485,0.56349 -1.322395,0 -1.258714,-1.17432 0.09443,-1.74316 0.594851,-0.25005 0.918338,-0.6329 0.719165,-0.85109 -0.55256,-0.60533 -9.713249,5.59176 -9.313449,6.30043 0.711809,1.26171 -0.436985,2.08357 -1.797625,1.28585 -0.997494,-0.58482 -1.606048,-0.54038 -2.428118,0.17807 -0.603425,0.52733 -1.759548,1.36446 -2.569188,1.8602 -0.809639,0.49573 -1.662316,0.90125 -1.894934,0.90125 -0.636974,0 0.540587,-16.2964 1.797625,-24.87734 2.059972,-14.06201 1.693076,-20.00652 -1.160799,-18.80681 -1.156782,0.48629 -1.122636,-0.23659 0.173314,-3.63846 2.545557,-6.68213 19.419828,-18.83045 28.840312,-20.76317 1.888529,-0.38745 2.333036,-0.70495 1.645615,-1.17465 -0.596377,-0.40749 -0.03661,-0.48412 1.526427,-0.20901 1.742378,0.30668 2.468424,0.17107 2.468424,-0.46232 0,-0.85924 3.679732,-0.64708 7.569373,0.43641 1.103486,0.30737 1.156963,0.23257 0.329353,-0.46234 -0.586265,-0.49225 -0.588212,-0.66374 0.189435,-0.57769 z m 29.16592,64.30434 c -9.672364,0.0128 -11.949349,0.61174 -21.532023,5.66529 -12.130331,6.3971 -17.591708,18.59551 -11.438578,25.54935 3.383619,3.82392 9.049055,8.14684 11.992032,9.15034 1.602283,0.54634 2.783654,1.15165 2.625163,1.34514 -0.371212,0.45316 3.60205,1.02483 4.432288,0.63769 0.345992,-0.16133 0.629419,-0.0559 0.629419,0.23409 0,0.84107 6.212059,0.19048 11.235489,-1.17667 13.04101,-3.54918 24.30237,-12.923 25.19692,-20.9734 0.52115,-4.69004 -2.27087,-10.4576 -7.88944,-16.2972 -3.63161,-3.77445 -5.01014,-4.14823 -15.25127,-4.13463 z m 7.43675,8.01502 c 2.4406,-0.12582 6.83894,1.45689 7.65794,2.94866 3.81167,6.94286 -10.06586,18.91448 -25.983435,22.41516 -5.976126,1.3143 -13.195325,0.36021 -15.89257,-2.10013 -1.30336,-1.18887 0.10002,-6.48142 2.722831,-10.26862 2.602589,-3.75801 13.129431,-12.03542 13.129431,-10.32392 0,0.13451 0.800005,-0.0676 1.777669,-0.44907 1.264389,-0.4933 2.090324,-0.56743 2.860804,-0.25631 0.75266,0.30391 2.05822,0.2259 4.27778,-0.25632 1.75689,-0.38171 4.12451,-0.78535 5.26169,-0.8971 1.13719,-0.11175 2.61218,-0.40359 3.27784,-0.64854 0.25262,-0.093 0.56136,-0.14584 0.91002,-0.16381 z" /></g></svg>
