<?xml version="1.0" encoding="utf-8"?>
<!-- Generator: Adobe Illustrator 26.5.0, SVG Export Plug-In . SVG Version: 6.00 Build 0)  -->
<svg version="1.1" id="Layer_1" xmlns="http://www.w3.org/2000/svg" xmlns:xlink="http://www.w3.org/1999/xlink" x="0px" y="0px"
	 viewBox="0 0 412.43 412.43" style="enable-background:new 0 0 412.43 412.43;" xml:space="preserve">
<style type="text/css">
	.st0{fill:#0DB14B;}
	.st1{fill:#2FA8E0;}
	.st2{fill:#EB3A3B;}
</style>
<g>
	<polygon class="st0" points="166.81,231.78 166.81,242.64 127.54,268.29 127.54,283.99 139.19,291.6 139.19,276.04 178.48,250.39 
		178.48,239.4 	"/>
	<path class="st0" d="M92.99,92.99V199.4h13.63v-92.78h92.78v92.78h13.63V92.99H92.99z M106.62,213.03h92.78V199.4h-92.78V213.03z"
		/>
	<path class="st1" d="M106.62,199.4v13.63h92.78V199.4H106.62z M199.4,213.03v92.78h13.63v-92.78H199.4z M106.62,213.03H92.99
		v106.41H199.4v-13.63h-92.78V213.03z"/>
	<g>
		<rect x="252.61" y="221.46" class="st2" width="13.63" height="55.69"/>
		
			<ellipse transform="matrix(0.9732 -0.2298 0.2298 0.9732 -59.555 67.3447)" class="st2" cx="259.42" cy="289.42" rx="7.96" ry="7.96"/>
		<path class="st2" d="M213.03,199.4v13.63h92.78v92.78h-92.78v13.63h106.41V199.4H213.03z M199.4,213.03v92.78h13.63v-92.78H199.4z
			"/>
	</g>
	<circle class="st0" cx="153.01" cy="153.01" r="12.43"/>
</g>
</svg>
