<?xml version="1.0" encoding="utf-8"?>
<!-- Generator: Adobe Illustrator 26.5.0, SVG Export Plug-In . SVG Version: 6.00 Build 0)  -->
<svg version="1.1" id="Layer_1" xmlns="http://www.w3.org/2000/svg" xmlns:xlink="http://www.w3.org/1999/xlink" x="0px" y="0px"
	 viewBox="0 0 412.43 412.43" style="enable-background:new 0 0 412.43 412.43;" xml:space="preserve">
<style type="text/css">
	.st0{fill:#EB3A3B;}
	.st1{fill:#2FA8E0;}
	.st2{fill:#0DB14B;}
</style>
<g>
	<g>
		<path class="st0" d="M123.67,284.71h-12.33v33.37h5.48v-11.33h6.86c6.5,0,11.37-4.72,11.37-11.02
			C135.04,289.39,130.13,284.71,123.67,284.71z M123.4,301.55h-6.59V289.9h6.59c3.57,0,6.07,2.47,6.07,5.82
			C129.47,299.08,126.98,301.55,123.4,301.55z"/>
		<path class="st0" d="M151.76,291.71c-7.87,0-13.76,5.71-13.76,13.5c0,7.74,5.89,13.5,13.76,13.5v0c7.86,0,13.76-5.76,13.76-13.5
			C165.52,297.45,159.62,291.71,151.76,291.71z M151.76,313.65c-4.87,0-8.38-3.52-8.38-8.44c0-4.93,3.5-8.44,8.38-8.44
			c4.87,0,8.38,3.52,8.38,8.44C160.14,310.13,156.63,313.65,151.76,313.65z"/>
		<rect x="171.16" y="283.11" class="st0" width="5.29" height="34.97"/>
		<path class="st0" d="M202.35,292.33l-7.68,17.95l-8.18-17.95h-5.75l11.21,23.88l-0.58,1.21c-1.88,4.12-2.93,5.11-6.34,5.11h-2.21
			v4.77h2.62c5.25,0,7.81-2.29,10.71-8.76l11.83-26.21H202.35z"/>
	</g>
	<path class="st1" d="M235.87,292.33v22.37c0,8.21-4.88,13.22-12.84,13.22c-6.59,0-11.27-3.42-12.59-9.07h5.28
		c0.99,2.82,4.02,4.38,7.27,4.38c4.45,0,7.7-2.93,7.7-7.81v-1.19c-2.23,1.93-5.19,3.08-8.52,3.08c-7.16,0-12.72-5.57-12.72-12.78
		c0-7.2,5.56-12.83,12.72-12.83c3.78,0,7.08,1.5,9.39,3.95l0.84-3.32L235.87,292.33z M222.77,312.41c4.58,0,7.9-3.33,7.9-7.87
		c0-4.56-3.31-7.89-7.9-7.89c-4.58,0-7.94,3.37-7.94,7.89C214.84,309.04,218.18,312.41,222.77,312.41L222.77,312.41z"/>
	<path class="st1" d="M243.42,283.11h5.29v34.97h-5.29V283.11z"/>
	<path class="st1" d="M268.11,318.7c-7.87,0-13.76-5.76-13.76-13.5c0-7.78,5.89-13.5,13.76-13.5c7.86,0,13.76,5.75,13.76,13.5
		C281.88,312.94,275.97,318.7,268.11,318.7L268.11,318.7z M276.49,305.2c0-4.93-3.5-8.44-8.38-8.44s-8.38,3.52-8.38,8.44
		c0,4.93,3.5,8.44,8.38,8.44S276.49,310.13,276.49,305.2z"/>
	<path class="st1" d="M301.59,313.27v4.81h-3.93c-5.64,0-9.12-3.48-9.12-9.17v-12.04h-4.6v-1.02l8.95-9.52h0.9v6.01h7.66v4.53h-7.62
		v11.62c0,3.07,1.71,4.78,4.82,4.78H301.59z"/>
	<polygon class="st2" points="172.97,201.59 172.97,210.75 139.84,232.39 139.84,245.63 149.67,252.06 149.67,238.93 182.82,217.29 
		182.82,208.02 	"/>
	<path class="st2" d="M110.7,84.51v89.77h11.5V96h78.27v78.27h11.5V84.51H110.7z M122.2,185.77h78.27v-11.5H122.2V185.77z"/>
	<path class="st1" d="M122.2,174.27v11.5h78.27v-11.5H122.2z M200.47,185.77v78.27h11.5v-78.27H200.47z M122.2,185.77h-11.5v89.77
		h89.77v-11.5H122.2V185.77z"/>
	<g>
		<rect x="245.35" y="192.89" class="st0" width="11.5" height="46.98"/>
		
			<ellipse transform="matrix(0.9732 -0.2298 0.2298 0.9732 -50.7701 64.3845)" class="st0" cx="251.1" cy="250.21" rx="6.71" ry="6.71"/>
		<path class="st0" d="M211.96,174.27v11.5h78.27v78.27h-78.27v11.5h89.77V174.27H211.96z M200.47,185.77v78.27h11.5v-78.27H200.47z
			"/>
	</g>
	<circle class="st2" cx="161.33" cy="135.14" r="10.49"/>
</g>
</svg>
