<?xml version="1.0" standalone="no"?>
<!DOCTYPE svg PUBLIC "-//W3C//DTD SVG 20010904//EN"
 "http://www.w3.org/TR/2001/REC-SVG-20010904/DTD/svg10.dtd">
<svg version="1.0" xmlns="http://www.w3.org/2000/svg"
 width="875.000000pt" height="961.000000pt" viewBox="0 0 875.000000 961.000000"
 preserveAspectRatio="xMidYMid meet">
<metadata>
Created by potrace 1.16, written by Peter Selinger 2001-2019
</metadata>
<g transform="translate(0.000000,961.000000) scale(0.100000,-0.100000)"
fill="#000000" stroke="none">
<path d="M5147 7844 c-9 -9 4 -35 14 -28 5 3 9 0 9 -6 0 -6 4 -9 9 -5 6 3 8
-6 5 -21 -3 -16 -1 -23 6 -19 7 4 9 -6 6 -28 -3 -27 0 -36 13 -40 13 -3 17 2
15 24 -2 33 11 30 44 -11 22 -28 22 -29 3 -25 -12 2 -24 -1 -27 -7 -4 -6 -2
-8 4 -4 19 11 9 -38 -10 -52 -10 -7 -16 -17 -13 -22 3 -5 0 -12 -6 -16 -8 -4
-9 -3 -5 4 4 7 2 12 -4 12 -6 0 -2 10 10 22 11 12 18 24 15 26 -8 8 -45 -42
-40 -55 2 -7 -1 -13 -7 -13 -7 0 -7 -4 1 -13 14 -17 4 -28 -17 -19 -14 5 -15
3 -4 -10 10 -13 8 -18 -13 -32 -14 -9 -22 -22 -19 -30 5 -14 -11 -31 -31 -31
-8 0 -9 -22 -2 -70 3 -18 21 -24 36 -12 11 9 15 9 18 0 3 -7 10 -13 16 -13 18
1 69 78 61 92 -4 6 -3 8 3 5 6 -4 18 4 27 17 12 18 12 26 3 30 -7 3 -3 7 10
11 19 6 28 16 32 37 1 4 19 26 41 49 22 23 40 51 40 61 0 11 4 17 8 14 5 -3
19 13 31 34 12 22 30 44 39 49 9 5 13 13 8 18 -4 4 -18 -5 -30 -21 -11 -16
-38 -49 -58 -75 -21 -25 -38 -52 -38 -60 0 -8 -3 -12 -6 -8 -8 7 -54 -46 -54
-63 0 -6 -4 -9 -9 -6 -9 6 -61 -63 -61 -82 0 -7 -4 -12 -10 -12 -5 0 -10 -8
-10 -17 0 -15 -2 -16 -10 -3 -9 13 -10 13 -11 0 -1 -8 -1 -19 0 -23 1 -5 -3
-6 -8 -3 -5 4 -12 2 -16 -4 -11 -18 -23 -11 -18 10 3 11 10 17 15 14 5 -3 8 0
6 7 -1 8 10 34 25 59 15 25 27 41 27 35 0 -5 8 5 17 23 10 22 19 29 23 21 5
-8 10 -5 15 10 3 11 4 25 0 30 -3 5 -1 12 5 16 5 3 10 0 10 -7 0 -7 6 -4 12 7
6 11 16 23 22 27 7 5 6 8 -4 8 -11 0 -12 2 -3 8 17 11 -26 70 -124 175 -17 18
-26 21 -36 11z"/>
<path d="M5930 7840 c0 -6 4 -10 9 -10 5 0 13 -9 16 -21 4 -11 11 -19 17 -17
12 4 9 24 -3 21 -5 -2 -9 3 -9 11 0 8 -7 16 -15 20 -8 3 -15 1 -15 -4z"/>
<path d="M3965 7818 c-11 -13 -18 -27 -17 -31 1 -5 -1 -6 -6 -3 -5 3 -21 -11
-38 -30 -16 -19 -44 -48 -61 -66 -18 -17 -33 -36 -33 -41 0 -6 10 2 23 16 12
15 28 27 34 27 6 0 16 7 23 15 7 8 16 12 21 9 5 -3 9 -1 9 5 0 16 32 42 45 37
8 -3 11 2 8 15 -4 13 0 19 11 19 10 0 15 4 12 9 -3 5 3 11 14 14 11 3 20 0 20
-6 0 -6 3 -7 6 -4 4 4 1 14 -6 22 -11 13 -15 13 -21 3 -7 -10 -9 -10 -9 0 0
18 -13 15 -35 -10z"/>
<path d="M5526 7833 c-3 -3 -6 -13 -6 -21 0 -12 3 -12 15 -2 12 10 15 9 15 -4
0 -11 5 -14 12 -10 7 4 8 3 4 -5 -4 -6 -11 -9 -16 -6 -10 6 -35 -23 -26 -32 3
-3 6 -1 6 5 0 7 7 12 16 12 8 0 12 -4 9 -10 -3 -5 2 -10 12 -11 14 0 14 -2 -4
-9 -23 -10 -32 -40 -12 -40 8 0 8 -5 -1 -15 -7 -8 -9 -15 -5 -15 4 0 2 -7 -5
-15 -7 -8 -9 -15 -4 -15 4 0 -2 -9 -14 -20 -12 -12 -22 -25 -22 -30 0 -4 -3
-15 -6 -24 -9 -24 42 -21 68 4 25 23 36 59 12 39 -7 -6 -12 -15 -9 -19 3 -4
-7 -11 -21 -14 -30 -8 -46 0 -20 10 9 3 16 10 16 15 0 6 10 23 21 39 13 17 20
37 16 50 -4 15 -1 20 11 18 10 -2 17 4 17 12 0 8 3 18 7 21 9 6 -33 66 -60 85
-11 7 -22 10 -26 7z"/>
<path d="M5917 7819 c7 -7 15 -10 18 -7 3 3 -2 9 -12 12 -14 6 -15 5 -6 -5z"/>
<path d="M6440 7795 c-10 -12 -8 -14 8 -10 12 2 29 -7 43 -23 13 -15 20 -24
15 -20 -5 4 -18 3 -28 -3 -15 -8 -23 -8 -32 2 -8 9 -7 10 8 5 16 -6 17 -4 6 9
-11 13 -15 13 -22 3 -5 -9 1 -21 17 -35 29 -25 30 -30 10 -30 -8 0 -11 5 -8
10 3 5 0 8 -6 6 -7 -3 -13 -9 -14 -14 0 -6 -7 -16 -14 -23 -19 -20 -5 -37 16
-18 20 18 36 9 35 -19 0 -11 4 -25 8 -32 5 -6 4 -14 -2 -18 -6 -4 -15 -18 -20
-31 -5 -13 -15 -24 -22 -24 -10 0 -10 2 0 9 11 6 9 9 -6 13 -15 4 -18 1 -14
-20 3 -16 1 -23 -6 -18 -6 3 -13 2 -17 -4 -4 -6 -11 -7 -17 -4 -7 4 -8 2 -4
-5 4 -6 12 -9 17 -6 5 3 6 0 4 -7 -3 -8 -15 -14 -25 -15 -13 -1 -18 2 -14 10
4 7 3 8 -2 4 -5 -5 -9 -12 -9 -17 0 -18 -61 -80 -78 -80 -11 0 -15 -5 -11 -11
4 -8 -1 -9 -17 -5 -13 3 -19 3 -12 0 11 -5 11 -12 -3 -51 -10 -28 -11 -53 -2
-53 4 0 8 4 8 9 0 5 9 11 20 14 11 3 20 9 19 14 -3 19 2 33 12 33 8 0 8 -5 -1
-15 -9 -10 -9 -15 -1 -15 10 0 15 13 12 33 0 4 4 7 11 7 6 0 8 3 5 7 -9 8 34
39 48 35 5 -2 7 -1 3 3 -8 8 65 75 81 75 7 0 9 5 5 12 -5 7 -3 8 5 4 9 -6 9
-12 -3 -25 -9 -10 -16 -23 -16 -31 0 -9 -3 -10 -13 -1 -18 14 -29 3 -14 -14
14 -15 47 -2 47 19 0 8 13 25 29 39 17 14 28 27 25 30 -10 9 34 14 47 5 11 -7
11 -11 1 -15 -6 -2 -9 -9 -6 -14 3 -6 0 -17 -8 -26 -11 -14 -11 -16 1 -9 10 7
12 3 6 -15 -12 -38 -11 -41 10 -45 30 -5 42 13 40 60 -1 28 -9 51 -23 66 -16
18 -19 27 -11 42 5 10 13 16 17 14 5 -3 14 -1 22 5 11 6 12 9 2 9 -7 0 -10 5
-7 10 12 20 -6 29 -25 13 -10 -9 -17 -20 -14 -24 2 -4 -5 -5 -15 -2 -24 6 -36
43 -14 43 10 0 12 6 8 19 -4 13 2 25 19 39 l25 19 -30 22 c-16 12 -29 27 -29
35 0 15 -42 56 -57 56 -6 0 -16 -7 -23 -15z m85 -155 c3 -5 1 -10 -4 -10 -6 0
-11 5 -11 10 0 6 2 10 4 10 3 0 8 -4 11 -10z m-35 -130 c0 -5 -2 -10 -4 -10
-3 0 -8 5 -11 10 -3 6 -1 10 4 10 6 0 11 -4 11 -10z"/>
<path d="M4047 7794 c-10 -11 -9 -26 2 -19 5 3 11 -3 13 -12 2 -11 6 -14 10
-7 9 13 -14 48 -25 38z"/>
<path d="M5853 7739 c-24 -32 -43 -63 -43 -68 0 -5 -7 -12 -16 -15 -8 -3 -13
-10 -10 -15 3 -4 -5 -8 -17 -7 -16 1 -21 7 -19 22 2 19 -46 74 -66 74 -5 0
-27 -22 -50 -48 -23 -28 -35 -49 -27 -49 8 0 12 4 9 8 -2 4 2 11 9 16 8 4 19
18 26 31 15 27 41 29 48 2 3 -11 9 -18 13 -15 5 3 12 0 16 -7 4 -7 4 -10 -1
-6 -5 5 -15 -1 -22 -12 -8 -11 -19 -18 -24 -15 -5 4 -9 1 -9 -6 0 -8 -4 -9
-13 0 -10 8 -14 7 -14 -4 0 -8 7 -15 15 -15 9 0 12 -3 9 -7 -4 -3 0 -15 10
-25 13 -14 13 -18 2 -19 -8 -1 1 -4 19 -8 l33 -6 -22 -24 -23 -24 24 6 c13 3
31 1 39 -6 9 -6 8 -2 -3 11 -18 21 -18 23 -3 40 10 10 17 24 17 31 0 7 4 10 8
7 5 -3 15 10 22 29 8 19 17 35 22 35 4 0 8 7 8 16 0 9 5 12 12 8 7 -4 8 -3 4
4 -4 7 -2 12 3 12 6 0 10 3 10 8 -3 20 3 32 17 32 9 0 12 5 8 12 -5 8 -1 9 12
4 15 -6 16 -5 7 5 -10 10 -9 16 4 31 9 10 12 18 7 17 -5 0 -28 -27 -51 -60z
m-123 -159 c-6 -11 -15 -18 -20 -15 -6 4 -2 17 7 32 19 29 30 15 13 -17z m-30
16 c0 -11 -19 -15 -25 -6 -3 5 1 10 9 10 9 0 16 -2 16 -4z"/>
<path d="M5965 7781 c-11 -5 -23 -7 -26 -5 -4 2 -9 -3 -13 -11 -3 -8 0 -15 7
-15 8 0 6 -4 -3 -10 -13 -8 -12 -10 3 -10 10 0 16 -4 12 -9 -3 -5 -1 -12 5
-16 5 -3 10 -11 10 -18 0 -6 -6 -3 -13 7 -13 17 -14 17 -31 1 -9 -10 -24 -28
-33 -41 -8 -13 -20 -24 -27 -24 -6 0 -4 5 4 10 9 6 10 10 3 10 -19 0 -33 -33
-22 -52 8 -14 5 -16 -15 -12 -14 2 -27 0 -31 -6 -3 -6 1 -7 10 -4 12 5 14 2 6
-17 -5 -14 -15 -23 -25 -21 -9 2 -16 -4 -16 -13 0 -9 5 -13 10 -10 6 3 10 0
10 -8 0 -28 37 -26 63 4 13 15 22 31 19 33 -3 3 2 8 11 12 9 3 13 12 10 20 -4
10 2 17 16 21 22 6 24 12 21 50 -1 15 3 21 12 18 7 -3 20 0 28 5 12 8 13 13 3
30 -7 11 -13 25 -13 32 0 10 2 11 8 0 6 -9 14 -6 29 12 15 17 18 27 10 35 -13
13 -15 13 -42 2z m-152 -266 c-3 -9 -8 -14 -10 -11 -3 3 -2 9 2 15 9 16 15 13
8 -4z"/>
<path d="M4256 7745 c-15 -14 -25 -29 -22 -33 10 -17 -40 -10 -57 8 -19 22
-37 26 -37 10 0 -5 4 -10 9 -10 5 0 13 -9 16 -20 4 -11 15 -20 27 -20 15 0 18
-4 14 -17 -5 -13 0 -11 18 6 14 13 29 33 32 45 4 11 16 28 28 38 11 9 16 17
10 18 -6 0 -23 -11 -38 -25z"/>
<path d="M6340 7704 c-97 -97 -117 -114 -152 -133 -25 -13 -28 -12 -51 12 -19
21 -26 24 -36 14 -11 -10 -12 -7 -6 13 l8 24 -29 -19 c-106 -69 -224 -177
-224 -204 0 -13 -2 -13 -9 -2 -6 9 -11 10 -15 2 -14 -22 -35 -12 -30 15 3 18
1 23 -7 18 -8 -4 -9 -3 -5 4 4 7 14 12 22 12 21 0 17 17 -6 23 -21 5 -44 -15
-32 -29 4 -4 -2 -2 -12 6 -18 13 -19 13 -14 -2 5 -11 2 -15 -10 -13 -9 1 -20
-3 -24 -9 -5 -8 -11 -7 -20 2 -10 10 -10 17 0 32 7 12 8 20 2 20 -5 0 -10 -4
-10 -10 0 -5 -5 -10 -11 -10 -6 0 -8 9 -4 20 7 24 -2 25 -29 5 -17 -13 -17
-15 -3 -15 13 0 45 -38 39 -47 -11 -16 4 -23 36 -17 20 4 44 8 53 9 18 4 22
-23 6 -42 -7 -9 -5 -13 7 -13 11 0 15 5 10 13 -4 6 2 4 14 -7 12 -10 19 -24
15 -30 -5 -8 -3 -8 8 0 19 14 45 11 41 -4 -3 -15 24 -16 33 -2 4 6 1 9 -6 8
-7 -2 -13 3 -14 10 0 7 -7 17 -15 22 -11 7 -11 10 -2 10 7 0 11 4 8 8 -2 4 0
14 6 22 8 12 9 12 4 -2 -3 -11 2 -21 14 -28 16 -9 18 -7 15 11 -3 15 0 19 13
17 10 -2 16 -11 14 -23 -3 -20 -2 -20 13 -1 8 11 15 25 15 30 0 6 -4 5 -9 -2
-6 -11 -10 -10 -15 5 -5 12 0 24 17 38 13 12 22 26 20 32 -7 19 33 35 46 19 8
-9 8 -16 2 -20 -5 -3 -11 0 -14 6 -3 9 -8 6 -13 -7 -4 -11 -14 -25 -22 -31
-12 -9 -12 -13 -2 -19 7 -4 15 -4 19 1 3 5 13 10 21 12 8 2 17 8 18 13 2 5 10
9 18 9 10 0 12 -5 8 -12 -5 -9 -2 -9 9 1 15 12 17 11 17 -3 0 -32 15 -15 17
19 1 19 0 35 -2 35 -2 0 -15 -4 -30 -10 -17 -7 -24 -7 -20 0 3 6 0 10 -8 10
-17 0 -30 27 -18 35 5 2 14 -2 21 -11 10 -12 15 -12 21 -2 6 9 14 7 31 -9 24
-23 58 -17 43 7 -5 8 -4 11 3 6 6 -3 22 -2 36 4 17 6 26 6 26 0 0 -6 -6 -10
-12 -10 -7 0 -5 -5 5 -11 21 -12 46 -1 26 12 -12 8 -11 12 2 22 9 6 14 17 12
24 -3 8 4 11 18 8 12 -2 19 -2 16 1 -3 3 11 21 31 40 20 19 33 34 30 34 -3 0
10 17 31 38 20 21 39 36 42 35 4 -2 9 4 13 12 10 28 -9 15 -74 -51z m-255
-121 c2 -10 4 -21 4 -25 1 -5 6 -8 11 -8 6 0 9 5 8 11 -2 6 2 13 9 16 7 3 9
-3 6 -16 -6 -24 -31 -28 -39 -6 -5 12 -10 13 -20 4 -17 -14 -17 -9 -4 27 11
28 19 28 25 -3z"/>
<path d="M4676 7715 c-33 -31 -57 -45 -75 -44 -14 0 -35 -2 -46 -5 -11 -2 -22
-5 -24 -5 -3 -1 4 -7 14 -15 11 -8 24 -12 30 -10 6 3 12 -7 13 -21 2 -22 -1
-25 -18 -20 -11 4 -19 3 -18 -2 4 -14 -34 -63 -49 -63 -13 0 -13 -3 -3 -15 10
-12 10 -18 1 -29 -9 -11 -9 -16 0 -22 8 -5 10 -2 5 7 -4 8 1 4 10 -8 l16 -23
41 35 c22 19 45 35 49 35 5 0 6 5 3 10 -3 6 -2 10 3 10 5 0 12 10 15 22 4 12
9 19 13 16 7 -8 34 16 34 31 0 5 8 17 18 27 9 10 17 25 17 33 0 9 6 17 13 17
6 1 19 2 27 3 13 1 14 5 4 24 -7 12 -12 23 -11 25 1 1 2 9 2 17 0 28 -35 15
-84 -30z m49 -15 c-3 -5 -11 -10 -16 -10 -6 0 -7 5 -4 10 3 6 11 10 16 10 6 0
7 -4 4 -10z m-57 -99 c-7 -11 -15 -18 -19 -15 -4 2 -9 -6 -12 -17 -3 -12 -10
-18 -16 -15 -15 10 -4 29 27 49 34 21 35 21 20 -2z m-62 -63 c3 -4 -1 -5 -10
-4 -8 1 -18 5 -22 8 -3 4 1 5 10 4 8 -1 18 -5 22 -8z m-38 -23 c-3 -3 -9 2
-12 12 -6 14 -5 15 5 6 7 -7 10 -15 7 -18z m-8 -29 c0 -11 -19 -15 -25 -6 -3
5 1 10 9 10 9 0 16 -2 16 -4z"/>
<path d="M3167 7711 c-21 -22 -44 -38 -51 -35 -7 3 -30 -17 -52 -45 -38 -51
-50 -59 -56 -41 -6 20 -49 19 -68 0 -28 -28 -46 -25 -79 12 -19 21 -30 28 -35
19 -4 -7 -2 -10 4 -9 7 2 14 -5 15 -15 7 -38 52 -52 99 -32 11 5 26 3 37 -4
11 -6 19 -7 19 -2 0 5 11 12 25 15 14 4 25 12 25 20 0 16 26 40 32 29 3 -4 3
-2 2 5 -2 6 3 12 10 12 14 0 116 92 116 104 0 10 -4 7 -43 -33z m-47 -45 c0
-3 -4 -8 -10 -11 -5 -3 -10 -1 -10 4 0 6 5 11 10 11 6 0 10 -2 10 -4z m-120
-86 c0 -13 -11 -13 -30 0 -12 8 -11 10 8 10 12 0 22 -4 22 -10z"/>
<path d="M3234 7737 c3 -10 6 -28 6 -40 0 -18 2 -19 10 -7 8 12 10 9 10 -13 0
-15 6 -34 13 -41 10 -12 16 -11 40 2 15 9 27 20 27 24 0 4 5 8 11 8 5 0 7 -4
4 -10 -3 -5 0 -10 9 -10 16 0 56 -59 56 -84 0 -9 -6 -16 -12 -16 -9 0 -8 -4 2
-11 12 -9 11 -10 -7 -6 -16 4 -20 1 -16 -11 4 -9 2 -13 -4 -9 -5 3 -10 0 -10
-8 0 -8 4 -15 9 -15 5 0 6 -4 3 -10 -3 -5 -1 -10 4 -10 10 0 15 14 12 33 -1 5
3 5 10 2 6 -4 17 2 25 14 19 26 71 54 78 42 3 -5 -8 -14 -24 -21 -31 -13 -37
-24 -20 -35 6 -3 10 1 10 9 0 10 6 13 15 10 8 -4 12 -11 8 -18 -3 -6 5 -1 19
12 13 12 30 22 36 22 23 0 12 18 -18 30 -16 7 -30 17 -30 22 0 5 -5 6 -10 3
-6 -4 -8 -10 -6 -13 2 -4 -7 -12 -20 -19 -22 -10 -25 -8 -40 22 -18 39 -66 95
-81 95 -6 0 -16 -7 -23 -15 -13 -15 -32 -17 -31 -2 1 4 -7 15 -16 25 -10 9
-26 29 -36 42 -12 17 -16 19 -13 7z m296 -203 c0 -8 -19 -13 -24 -6 -3 5 1 9
9 9 8 0 15 -2 15 -3z"/>
<path d="M4310 7741 c0 -12 29 -41 40 -41 5 0 4 -15 -2 -32 -6 -18 -13 -27
-16 -20 -3 9 -9 7 -19 -7 -8 -12 -11 -27 -7 -34 6 -9 5 -9 -8 0 -12 11 -19 9
-38 -7 -13 -11 -20 -20 -17 -20 4 0 -2 -9 -13 -20 -11 -11 -20 -24 -20 -30 0
-18 20 -11 42 15 12 14 28 25 35 25 23 0 128 85 128 104 1 6 7 10 14 8 7 -1
10 1 7 6 -3 5 8 9 25 10 17 0 36 6 43 12 14 11 46 4 46 -10 0 -5 -6 -11 -12
-13 -7 -3 -1 -6 15 -6 33 -1 34 3 3 34 -22 22 -25 22 -45 8 -13 -8 -32 -12
-44 -9 -16 4 -31 -3 -51 -20 -15 -14 -28 -24 -30 -23 -1 2 -10 16 -19 32 -10
15 -24 27 -33 27 -8 0 -12 5 -9 10 3 6 1 10 -4 10 -6 0 -11 -4 -11 -9z m70
-97 c0 -8 -19 -13 -24 -6 -3 5 1 9 9 9 8 0 15 -2 15 -3z"/>
<path d="M4101 7717 c-11 -14 -5 -27 12 -27 6 0 7 3 4 7 -4 3 -2 12 4 20 7 8
8 13 1 13 -5 0 -15 -6 -21 -13z"/>
<path d="M5900 7720 c8 -5 20 -10 25 -10 6 0 3 5 -5 10 -8 5 -19 10 -25 10 -5
0 -3 -5 5 -10z"/>
<path d="M5170 7710 c0 -20 -3 -26 -32 -63 -24 -30 -28 -41 -19 -50 10 -9 12
-9 9 3 -2 8 3 14 10 13 6 -2 13 3 14 10 0 6 2 17 2 23 1 6 9 18 18 28 10 9 15
23 12 31 -7 17 -14 20 -14 5z"/>
<path d="M5195 7680 c-3 -5 -1 -10 4 -10 6 0 11 5 11 10 0 6 -2 10 -4 10 -3 0
-8 -4 -11 -10z"/>
<path d="M6400 7681 c0 -9 -8 -11 -24 -7 -14 3 -27 2 -30 -2 -2 -4 8 -9 24
-10 27 -2 49 13 36 25 -3 4 -6 1 -6 -6z"/>
<path d="M4046 7672 c-3 -5 1 -9 9 -9 8 0 15 4 15 9 0 4 -4 8 -9 8 -6 0 -12
-4 -15 -8z"/>
<path d="M3211 7654 c0 -11 3 -14 6 -6 3 7 2 16 -1 19 -3 4 -6 -2 -5 -13z"/>
<path d="M4743 7652 c11 -12 13 -22 7 -28 -7 -7 -6 -11 4 -11 8 0 13 4 10 9
-3 4 -1 8 4 8 5 0 12 -9 15 -19 3 -13 0 -18 -8 -15 -7 3 -16 0 -21 -7 -5 -8
-3 -10 7 -4 11 6 11 5 2 -5 -8 -9 -9 -19 -2 -31 7 -14 16 -17 41 -12 19 4 29
2 25 -3 -3 -6 3 -15 14 -22 11 -7 19 -8 19 -2 0 5 -4 10 -8 10 -14 0 -33 73
-21 81 7 4 5 9 -5 12 -9 4 -16 1 -16 -5 0 -6 -3 -9 -6 -6 -3 4 -1 15 5 27 11
19 1 37 -13 24 -10 -10 -36 -12 -36 -3 0 4 -8 11 -17 14 -16 6 -16 6 0 -12z"/>
<path d="M4145 7640 c-3 -11 -11 -20 -16 -20 -5 0 -9 -6 -9 -12 1 -7 9 -3 19
9 10 12 22 19 25 15 4 -3 4 1 0 11 -8 22 -11 21 -19 -3z"/>
<path d="M6367 7644 c-4 -4 -2 -13 4 -21 14 -16 -3 -17 -19 -1 -9 9 -12 8 -12
-6 0 -9 -4 -15 -10 -11 -5 3 -6 13 -3 22 6 15 5 16 -9 3 -14 -13 -13 -17 5
-32 19 -17 12 -24 -17 -19 -5 1 -4 -5 4 -13 10 -13 10 -16 -3 -16 -9 0 -18 8
-21 18 -3 10 -4 6 -3 -8 3 -33 23 -32 63 5 18 17 40 36 49 43 9 8 14 19 12 25
-4 14 -30 21 -40 11z"/>
<path d="M3612 7609 c-35 -35 -39 -50 -17 -69 17 -14 19 -7 5 19 -7 14 -3 24
19 45 27 26 29 26 34 7 3 -12 12 -18 23 -17 11 2 25 -1 32 -7 6 -5 12 -6 12
-1 0 5 5 2 11 -6 9 -13 10 -13 6 0 -2 8 -11 14 -18 12 -8 -2 -10 0 -6 5 5 4
14 8 20 8 7 1 11 7 9 14 -2 10 4 12 22 7 14 -3 27 -3 30 2 9 14 -47 12 -70 -3
-30 -19 -54 -19 -68 0 -10 14 -16 12 -44 -16z"/>
<path d="M4406 7628 c3 -5 10 -6 15 -3 13 9 11 12 -6 12 -8 0 -12 -4 -9 -9z"/>
<path d="M5018 7612 c-12 -15 -36 -37 -52 -50 -24 -19 -26 -22 -10 -23 11 -1
28 -3 39 -4 11 -1 26 4 33 11 9 9 9 14 2 14 -6 0 -4 7 5 16 9 9 14 23 11 30
-4 11 1 13 22 8 26 -6 26 -6 7 9 -27 22 -30 21 -57 -11z"/>
<path d="M3350 7626 c0 -2 7 -7 16 -10 8 -3 12 -2 9 4 -6 10 -25 14 -25 6z"/>
<path d="M4050 7610 c-8 -15 -8 -18 3 -14 8 3 14 11 14 19 0 20 -4 19 -17 -5z"/>
<path d="M4166 7611 c-4 -5 3 -7 14 -4 23 6 26 13 6 13 -8 0 -17 -4 -20 -9z"/>
<path d="M2807 7595 c3 -8 9 -12 14 -9 12 7 11 11 -5 17 -10 4 -13 1 -9 -8z"/>
<path d="M5060 7589 c0 -5 5 -7 10 -4 6 3 10 8 10 11 0 2 -4 4 -10 4 -5 0 -10
-5 -10 -11z"/>
<path d="M2775 7580 c-3 -5 -2 -10 4 -10 5 0 13 5 16 10 3 6 2 10 -4 10 -5 0
-13 -4 -16 -10z"/>
<path d="M4080 7584 c0 -7 27 -34 33 -34 3 0 3 9 0 20 -5 17 -33 30 -33 14z"/>
<path d="M4515 7580 c-3 -5 1 -10 9 -10 8 0 18 5 21 10 3 6 -1 10 -9 10 -8 0
-18 -4 -21 -10z"/>
<path d="M4056 7557 c3 -10 9 -15 12 -12 3 3 0 11 -7 18 -10 9 -11 8 -5 -6z"/>
<path d="M4316 7554 c-5 -14 -4 -15 8 -5 10 8 16 9 19 1 3 -6 4 -5 3 2 -4 19
-23 20 -30 2z"/>
<path d="M2735 7531 c-25 -32 -65 -101 -59 -101 2 0 20 25 40 55 19 31 39 53
43 50 5 -3 11 1 14 8 9 23 -18 15 -38 -12z"/>
<path d="M4913 7542 c1 -14 5 -18 11 -12 7 7 6 14 -1 21 -9 9 -12 7 -10 -9z"/>
<path d="M4030 7539 c0 -5 5 -7 10 -4 6 3 10 8 10 11 0 2 -4 4 -10 4 -5 0 -10
-5 -10 -11z"/>
<path d="M5650 7542 c0 -15 28 -23 36 -9 4 7 4 9 -1 5 -4 -4 -14 -3 -22 3 -8
7 -13 8 -13 1z"/>
<path d="M4881 7522 c-8 -14 -6 -19 5 -19 7 0 14 9 14 19 0 10 -2 18 -5 18 -2
0 -9 -8 -14 -18z"/>
<path d="M3980 7519 c0 -5 5 -7 10 -4 6 3 10 8 10 11 0 2 -4 4 -10 4 -5 0 -10
-5 -10 -11z"/>
<path d="M4179 7528 c0 -2 -2 -11 -4 -21 -3 -15 -1 -16 11 -6 7 6 11 15 8 20
-5 9 -13 12 -15 7z"/>
<path d="M4736 7522 c-3 -5 1 -9 9 -9 8 0 12 4 9 9 -3 4 -7 8 -9 8 -2 0 -6 -4
-9 -8z"/>
<path d="M6253 7509 c-1 -12 3 -19 10 -16 15 5 16 29 2 34 -6 2 -11 -6 -12
-18z"/>
<path d="M6217 7499 c7 -7 15 -10 18 -7 3 3 -2 9 -12 12 -14 6 -15 5 -6 -5z"/>
<path d="M3456 7481 c-3 -5 1 -12 10 -15 22 -8 25 -4 9 11 -8 7 -16 9 -19 4z"/>
<path d="M3500 7479 c0 -5 5 -7 10 -4 6 3 10 8 10 11 0 2 -4 4 -10 4 -5 0 -10
-5 -10 -11z"/>
<path d="M4503 7435 c-3 -9 -11 -14 -18 -11 -8 3 -11 -2 -8 -14 5 -17 7 -18
27 -5 11 8 25 14 29 14 17 -1 16 7 -4 19 -16 10 -20 10 -26 -3z"/>
<path d="M6480 7440 c-8 -5 -10 -10 -4 -10 7 0 14 -6 17 -14 4 -10 0 -13 -14
-11 -11 2 -17 0 -14 -6 4 -5 15 -9 26 -9 11 0 18 -4 14 -10 -3 -5 -12 -7 -19
-4 -8 3 -17 0 -21 -6 -3 -6 -1 -9 6 -8 7 2 15 -5 17 -14 2 -12 -3 -18 -13 -18
-12 0 -16 -6 -12 -20 3 -11 1 -18 -3 -15 -17 10 -21 -15 -6 -31 9 -8 16 -19
16 -24 0 -5 9 -7 20 -5 11 2 20 -1 20 -6 0 -6 8 -6 20 1 11 6 18 15 15 21 -4
5 -3 9 2 8 17 -4 43 14 44 30 0 13 2 12 8 -3 5 -13 10 -16 14 -9 4 6 0 18 -8
26 -16 17 -19 28 -7 26 19 -3 33 2 27 11 -3 6 -1 10 5 10 6 0 8 5 5 10 -3 6
-2 10 4 10 5 0 18 3 28 7 16 6 16 5 4 -10 -12 -15 -12 -17 3 -11 19 7 20 16 5
31 -8 8 -4 16 15 29 38 24 56 6 31 -32 -9 -14 -13 -24 -7 -20 5 3 12 -1 16 -9
7 -18 -14 -32 -24 -15 -5 9 -9 9 -14 1 -4 -6 -4 -11 1 -11 10 0 33 -49 33 -71
0 -9 7 -19 15 -23 8 -3 15 -1 15 4 0 6 -4 10 -9 10 -14 0 0 54 22 77 21 23 17
53 -7 53 -8 0 -17 -6 -19 -12 -3 -8 -6 -6 -6 4 -1 9 6 21 14 25 13 8 12 12 -5
31 -12 12 -27 22 -34 22 -14 0 -56 -45 -56 -61 0 -5 -4 -8 -9 -5 -5 3 -39 -26
-76 -65 -42 -44 -72 -69 -81 -65 -18 7 -14 27 9 44 19 15 24 37 5 26 -9 -5 -9
-3 1 9 7 9 17 15 21 12 4 -3 13 2 20 10 10 12 10 15 -3 15 -13 0 -30 27 -32
52 -1 17 -21 27 -35 18z"/>
<path d="M2660 7394 c0 -15 35 -46 43 -37 4 3 7 0 7 -9 0 -8 11 -21 25 -28 14
-7 25 -17 25 -20 0 -4 -13 -25 -30 -46 -16 -22 -33 -43 -37 -49 -5 -5 -20 -25
-36 -43 l-27 -34 32 -34 c31 -32 54 -40 28 -9 -7 8 -9 15 -5 15 4 0 -3 9 -16
19 l-24 20 23 21 c19 18 23 19 28 6 3 -9 11 -16 17 -16 5 0 3 8 -6 18 -14 16
-14 19 2 41 10 13 23 21 30 17 7 -5 11 1 11 15 0 12 3 19 6 16 12 -12 44 36
41 60 -2 13 -6 23 -10 23 -4 0 -13 0 -19 0 -9 0 -9 -3 -2 -8 15 -10 25 -42 14
-42 -6 0 -10 6 -10 13 0 8 -12 19 -26 26 -16 7 -24 17 -20 26 3 8 2 14 -2 13
-11 -2 -46 15 -54 26 -6 8 -8 8 -8 0z"/>
<path d="M4444 7382 c21 -24 40 -29 34 -9 -3 6 -9 12 -14 12 -5 0 -16 4 -24 9
-9 6 -7 1 4 -12z"/>
<path d="M6176 7293 c-6 -14 -5 -15 5 -6 7 7 10 15 7 18 -3 3 -9 -2 -12 -12z"/>
<path d="M6923 7293 c-15 -5 -17 -29 -4 -37 5 -3 8 0 7 7 0 6 4 12 9 12 6 0
10 -7 10 -15 1 -8 6 -14 11 -13 6 1 11 -4 11 -11 0 -16 -13 -15 -44 2 -13 7
-23 19 -23 28 0 8 -29 -15 -65 -51 -36 -36 -69 -65 -74 -65 -6 0 -19 24 -30
53 -11 28 -21 48 -21 42 -1 -5 -3 -18 -5 -27 -2 -10 1 -18 7 -18 6 0 8 -7 4
-15 -3 -8 0 -14 7 -12 6 1 13 -8 15 -20 2 -14 -2 -23 -9 -23 -7 0 -9 -3 -6 -6
4 -4 12 -2 19 3 7 5 22 13 33 16 17 6 17 4 -4 -13 -16 -14 -19 -20 -8 -20 8 0
18 6 21 13 5 10 7 10 12 0 3 -7 10 -13 15 -13 6 0 7 6 2 13 -13 21 -12 37 3
37 9 0 13 4 10 9 -3 5 1 11 9 15 8 3 15 13 15 21 0 9 4 14 9 10 6 -3 14 2 19
11 12 22 47 10 49 -17 1 -12 -7 -23 -20 -29 -12 -5 -16 -9 -8 -9 11 -1 10 -5
-4 -15 -11 -8 -23 -12 -27 -10 -4 3 -5 -2 -2 -10 3 -9 2 -16 -4 -16 -6 0 -12
5 -14 12 -3 7 -7 6 -11 -5 -3 -9 -2 -17 3 -17 6 0 10 -9 10 -20 0 -18 -10 -25
-32 -21 -5 0 -8 -5 -8 -11 0 -9 -4 -8 -10 2 -5 8 -10 11 -10 6 0 -6 -7 -1 -15
10 -8 10 -15 14 -15 7 0 -6 7 -18 15 -26 13 -13 13 -16 -1 -21 -8 -3 -13 -10
-10 -15 3 -5 -4 -7 -16 -5 -13 2 -18 2 -11 -2 18 -8 4 -33 -16 -29 -14 3 -17
-2 -13 -21 2 -13 -1 -31 -8 -39 -8 -10 -9 -15 -2 -15 6 0 15 6 19 13 13 23 43
28 60 12 13 -14 18 -14 36 -2 26 17 36 43 13 34 -9 -4 -16 -4 -16 -1 0 2 11 9
25 14 36 14 30 37 -8 31 -4 -1 -3 8 3 20 7 11 18 18 25 15 8 -3 17 -1 20 4 4
6 0 10 -7 11 -7 0 -3 5 9 11 28 14 37 36 21 57 -12 14 -11 14 4 3 21 -17 53
-12 53 8 1 8 6 14 13 13 18 -4 15 8 -10 36 -13 14 -15 19 -5 12 9 -7 17 -10
17 -6 0 4 6 2 14 -4 10 -8 16 -8 25 3 9 11 8 15 -4 20 -8 3 -14 9 -13 13 7 26
-44 75 -69 66z m-116 -309 c-3 -3 -12 -4 -19 -1 -8 3 -5 6 6 6 11 1 17 -2 13
-5z"/>
<path d="M6420 7275 c0 -17 -2 -18 -11 -5 -9 12 -10 12 -5 -4 4 -11 1 -23 -6
-27 -7 -4 -10 -10 -7 -13 3 -3 15 4 27 17 15 16 18 27 12 37 -8 12 -10 11 -10
-5z"/>
<path d="M6118 7243 c7 -3 16 -2 19 1 4 3 -2 6 -13 5 -11 0 -14 -3 -6 -6z"/>
<path d="M6900 7211 c0 -5 5 -13 10 -16 6 -3 10 -2 10 4 0 5 -4 13 -10 16 -5
3 -10 2 -10 -4z"/>
<path d="M2740 7185 c-7 -9 -8 -15 -2 -15 5 0 12 7 16 15 3 8 4 15 2 15 -2 0
-9 -7 -16 -15z"/>
<path d="M6720 7100 c21 -7 22 -8 5 -9 -19 -2 -19 -2 -2 -12 22 -13 32 -6 24
16 -4 8 -17 15 -29 14 -22 -1 -22 -1 2 -9z"/>
<path d="M5869 7053 c-7 -7 -6 -13 1 -18 10 -6 14 1 11 18 -1 5 3 5 9 2 6 -4
9 -13 6 -21 -3 -8 1 -14 9 -14 8 0 15 -7 15 -15 0 -8 5 -15 10 -15 7 0 7 7 -1
21 -6 12 -9 29 -6 39 3 14 -1 17 -20 16 -14 0 -29 -6 -34 -13z"/>
<path d="M2680 7041 c0 -4 5 -12 11 -18 13 -13 -4 -53 -22 -53 -6 0 -9 -7 -6
-14 4 -10 1 -13 -9 -9 -8 3 -25 -6 -39 -21 -26 -28 -32 -46 -16 -46 5 0 12 -7
15 -15 4 -11 -3 -19 -19 -25 -27 -10 -33 -34 -12 -47 24 -15 38 -11 49 12 6
14 15 22 21 18 6 -4 7 -1 2 7 -4 7 -2 16 6 21 7 4 10 11 6 15 -3 4 -13 1 -22
-6 -11 -9 -15 -9 -15 -1 0 6 7 14 15 18 9 3 15 13 13 22 -1 9 10 33 25 53 35
46 42 84 16 91 -11 3 -19 2 -19 -2z"/>
<path d="M6745 7040 c4 -6 11 -8 16 -5 14 9 11 15 -7 15 -8 0 -12 -5 -9 -10z"/>
<path d="M6686 7025 c4 -8 11 -15 16 -15 6 0 5 6 -2 15 -7 8 -14 15 -16 15 -2
0 -1 -7 2 -15z"/>
<path d="M5874 7000 c6 -22 6 -23 -5 -6 -9 15 -13 16 -20 5 -14 -23 -10 -29
14 -25 12 3 28 5 35 5 6 1 12 9 12 18 0 9 -3 13 -7 10 -3 -4 -13 -1 -21 6 -13
10 -14 8 -8 -13z"/>
<path d="M6874 7000 c4 -14 8 -33 7 -43 0 -9 4 -15 9 -12 4 3 10 -2 13 -10 5
-12 2 -12 -19 -3 -19 9 -27 8 -37 -2 -8 -8 -8 -11 -1 -7 7 4 15 0 18 -9 3 -8
2 -12 -4 -9 -5 3 -12 -6 -16 -20 -3 -14 -11 -25 -18 -25 -6 0 -4 -5 4 -10 10
-6 11 -10 3 -10 -7 0 -13 -7 -13 -15 0 -8 -7 -15 -15 -15 -8 0 -15 -7 -15 -16
0 -8 -5 -12 -10 -9 -16 10 -35 -17 -37 -53 -1 -21 4 -35 13 -39 7 -3 11 -10 7
-17 -3 -6 -3 -8 2 -4 4 4 14 3 22 -3 16 -14 17 3 1 19 -25 25 -13 93 13 76 5
-3 9 4 9 14 0 12 9 22 21 25 14 4 18 10 13 19 -4 7 -4 10 1 6 4 -4 14 -3 22 3
11 10 11 15 1 27 -7 9 -8 13 -3 10 11 -6 36 16 29 26 -2 3 1 2 7 -3 15 -12 39
11 39 36 -1 10 -17 36 -37 58 -31 34 -35 36 -29 15z"/>
<path d="M5816 6994 c-8 -22 -4 -25 11 -9 7 8 9 16 4 19 -5 3 -12 -1 -15 -10z"/>
<path d="M5839 6955 c-1 -3 -2 -9 -3 -14 -2 -15 -16 -26 -16 -13 0 7 -4 12
-10 12 -5 0 -10 -9 -10 -20 0 -19 1 -19 34 -2 20 10 28 18 20 20 -8 2 -12 8
-9 13 4 5 4 9 1 9 -3 0 -7 -2 -7 -5z"/>
<path d="M5728 6893 c7 -3 16 -2 19 1 4 3 -2 6 -13 5 -11 0 -14 -3 -6 -6z"/>
<path d="M5778 6873 c7 -3 16 -2 19 1 4 3 -2 6 -13 5 -11 0 -14 -3 -6 -6z"/>
<path d="M5736 6861 c-3 -5 2 -15 12 -22 16 -13 16 -13 2 5 -14 18 -13 19 3
13 11 -4 16 -3 12 3 -8 12 -22 13 -29 1z"/>
<path d="M5716 6821 c-4 -5 -2 -12 3 -15 5 -4 12 -2 15 3 4 5 2 12 -3 15 -5 4
-12 2 -15 -3z"/>
<path d="M2840 6797 c0 -8 9 -22 20 -32 11 -10 20 -13 20 -7 0 7 -4 12 -10 12
-5 0 -10 6 -10 14 0 8 -4 18 -10 21 -5 3 -10 0 -10 -8z"/>
<path d="M5513 6781 c-12 -11 -24 -17 -27 -14 -3 4 -6 1 -6 -5 0 -7 -6 -12
-13 -12 -7 0 -13 -9 -14 -20 -1 -13 2 -18 9 -14 7 4 8 2 4 -4 -4 -7 -16 -12
-27 -12 -10 0 -19 -4 -19 -10 0 -5 9 -6 23 -2 30 10 57 9 56 -3 0 -6 -8 -9
-17 -7 -11 1 -9 -2 6 -11 12 -7 19 -17 15 -22 -4 -5 0 -3 9 4 10 7 15 17 12
22 -3 5 1 9 9 9 7 0 14 -6 14 -12 0 -7 4 -22 9 -32 5 -13 4 -17 -3 -13 -11 7
-48 -41 -39 -50 3 -3 8 2 12 11 3 9 10 13 15 10 5 -3 6 3 2 12 -4 11 -2 15 4
11 6 -4 22 2 34 13 13 11 18 19 11 20 -10 0 -10 5 -2 20 7 14 7 20 0 20 -5 0
-10 -4 -10 -10 0 -5 -5 -10 -11 -10 -5 0 -7 5 -4 10 4 6 1 9 -7 8 -8 -2 -13 6
-12 19 0 12 -3 20 -8 17 -4 -3 -8 -12 -8 -20 0 -8 -5 -14 -11 -14 -5 0 -7 5
-3 12 5 8 0 9 -15 5 -17 -4 -21 -2 -17 9 3 9 1 12 -4 9 -6 -3 -10 -1 -10 5 0
8 9 10 24 6 20 -5 23 -3 19 13 -8 29 17 36 35 10 9 -13 16 -27 14 -31 -4 -15
14 -8 31 12 17 21 9 28 -10 9 -8 -8 -15 -4 -26 12 -9 12 -14 26 -11 31 10 15
-12 8 -33 -11z"/>
<path d="M2600 6780 c-8 -18 -4 -90 4 -90 6 0 5 -4 -2 -9 -10 -6 -9 -10 7 -14
27 -7 34 5 17 29 -10 13 -11 24 -5 36 6 12 6 18 0 18 -5 0 -12 8 -14 18 -3 9
-6 15 -7 12z"/>
<path d="M2893 6734 c-3 -9 2 -23 13 -32 17 -16 17 -16 5 0 -7 10 -11 25 -7
33 3 8 3 15 0 15 -2 0 -7 -7 -11 -16z"/>
<path d="M5649 6745 c-1 -3 -2 -8 -3 -12 -1 -5 -5 -14 -10 -22 -6 -10 -5 -12
2 -7 18 11 35 46 22 46 -5 0 -11 -2 -11 -5z"/>
<path d="M2798 6733 c7 -3 16 -2 19 1 4 3 -2 6 -13 5 -11 0 -14 -3 -6 -6z"/>
<path d="M2750 6720 c0 -5 7 -10 15 -10 8 0 15 -5 15 -12 0 -6 3 -8 6 -5 8 8
-14 37 -27 37 -5 0 -9 -4 -9 -10z"/>
<path d="M2860 6707 c0 -8 12 -19 28 -26 23 -10 25 -10 10 2 -10 8 -18 19 -18
26 0 6 -4 11 -10 11 -5 0 -10 -6 -10 -13z"/>
<path d="M2660 6689 c0 -5 -4 -8 -9 -4 -6 3 -8 -4 -6 -16 2 -11 -7 -38 -20
-59 -20 -32 -22 -39 -9 -44 9 -3 12 -1 9 4 -3 6 1 10 9 10 9 0 16 5 16 10 0 6
6 9 13 8 7 -2 11 6 9 22 -2 14 -3 37 -3 53 0 15 -2 27 -4 27 -3 0 -5 -5 -5
-11z"/>
<path d="M2682 6655 c-1 -13 3 -27 9 -31 8 -4 9 1 4 16 -4 14 -3 20 3 16 5 -3
16 2 23 12 12 15 12 16 -2 5 -10 -8 -19 -9 -25 -3 -6 6 -10 1 -12 -15z"/>
<path d="M5372 6673 c-6 -3 -10 -8 -7 -13 3 -4 -3 -7 -13 -6 -9 0 -16 -5 -14
-11 1 -7 -2 -13 -8 -13 -5 0 -10 -6 -10 -14 0 -7 -10 -20 -22 -28 -19 -13 -20
-15 -4 -21 10 -4 15 -3 11 3 -3 6 -2 10 4 10 5 0 13 -4 16 -10 13 -22 25 -8
20 23 -4 22 -2 28 4 17 5 -8 7 -18 5 -22 -10 -16 13 -8 29 10 13 15 14 21 4
32 -6 8 -2 6 10 -3 12 -11 24 -14 27 -9 3 6 -1 12 -9 16 -8 3 -12 12 -9 19 6
16 -13 27 -34 20z"/>
<path d="M2735 6640 c-3 -5 -1 -10 4 -10 6 0 11 5 11 10 0 6 -2 10 -4 10 -3 0
-8 -4 -11 -10z"/>
<path d="M6790 6640 c0 -5 5 -9 11 -7 6 1 13 -3 16 -10 3 -7 -3 -10 -16 -6
-13 3 -23 0 -27 -11 -3 -9 -10 -13 -15 -10 -16 10 -9 -8 8 -21 13 -9 13 -14 3
-20 -9 -6 -11 -4 -5 5 6 10 4 12 -8 7 -10 -4 -17 -1 -17 5 0 6 -3 9 -6 5 -7
-7 27 -56 39 -57 5 0 5 5 2 10 -3 6 2 13 12 17 10 3 26 13 36 21 12 10 17 11
17 3 0 -7 5 -9 10 -6 14 8 13 21 -3 37 -7 7 -16 21 -20 31 -7 18 -37 24 -37 7z
m7 -45 c0 -8 -4 -12 -9 -9 -4 3 -8 9 -8 15 0 5 4 9 8 9 5 0 9 -7 9 -15z"/>
<path d="M2557 6626 c-12 -9 -14 -16 -8 -21 6 -3 11 -11 11 -16 0 -6 -5 -7
-12 -3 -8 5 -9 2 -3 -12 16 -39 16 -61 1 -76 -14 -14 -13 -16 7 -14 22 1 25 8
29 53 1 7 4 12 7 11 21 -2 21 4 3 20 -15 13 -20 27 -16 45 5 31 5 31 -19 13z"/>
<path d="M5440 6619 c0 -5 5 -7 10 -4 6 3 10 8 10 11 0 2 -4 4 -10 4 -5 0 -10
-5 -10 -11z"/>
<path d="M5255 6533 c-28 -29 -31 -41 -11 -49 15 -6 58 30 49 40 -4 3 1 6 10
6 23 0 21 17 -3 23 -12 3 -28 -4 -45 -20z m5 -33 c0 -5 -5 -10 -11 -10 -5 0
-7 5 -4 10 3 6 8 10 11 10 2 0 4 -4 4 -10z"/>
<path d="M2723 6532 c0 -9 4 -22 9 -29 6 -8 2 -13 -12 -18 -11 -3 -18 -11 -15
-16 9 -13 -9 -11 -23 3 -7 7 -12 8 -12 2 0 -5 5 -15 11 -21 14 -14 -8 -13 -30
1 -9 6 -12 5 -7 -2 3 -6 2 -14 -4 -17 -6 -4 -10 -3 -9 2 1 4 1 15 0 23 -1 11
-4 10 -13 -5 -11 -19 -11 -19 -19 0 -7 19 -8 19 -8 1 -1 -17 -2 -17 -26 -2
-33 22 -32 9 1 -17 28 -22 70 -31 88 -19 14 9 82 12 69 3 -5 -3 -25 -28 -45
-54 -26 -34 -35 -55 -32 -73 3 -15 -4 -35 -16 -52 -20 -27 -19 -62 1 -62 5 0
9 -8 9 -19 0 -10 10 -31 22 -47 13 -15 17 -25 10 -20 -8 5 -12 0 -12 -13 0
-23 33 -30 46 -10 4 8 9 7 15 -2 6 -11 12 -10 27 4 10 9 22 17 27 17 4 0 21
14 37 32 15 17 28 28 28 24 0 -5 6 -3 13 3 10 8 14 7 14 -4 0 -7 -5 -13 -10
-12 -6 1 -16 -9 -23 -21 -6 -13 -17 -29 -23 -35 -6 -6 -11 -18 -11 -26 0 -8
-8 -23 -17 -33 -22 -24 -25 -48 -7 -48 8 0 14 -7 14 -15 0 -8 6 -15 13 -15 8
0 13 13 13 34 0 27 -3 33 -13 24 -19 -16 -16 5 5 33 18 23 35 60 32 68 -1 2
11 12 27 22 15 10 22 19 16 19 -7 0 -12 3 -12 8 4 22 -3 31 -18 25 -12 -5 -14
-3 -8 8 8 12 6 12 -8 0 -15 -12 -17 -11 -17 4 0 10 -3 15 -7 11 -5 -4 -8 -13
-8 -19 0 -7 -10 -16 -22 -22 -13 -5 -23 -15 -23 -22 0 -7 -7 -10 -15 -7 -8 4
-15 2 -15 -4 0 -5 -9 -12 -20 -15 -11 -3 -18 -1 -14 4 3 5 -1 9 -9 9 -22 0
-39 46 -23 62 27 28 37 57 26 76 -9 14 -10 13 -4 -8 3 -14 3 -22 -1 -18 -5 4
-14 3 -22 -3 -10 -9 -13 -8 -13 4 0 9 4 18 8 21 5 3 7 19 4 37 -3 22 -1 30 7
25 7 -5 9 -1 5 8 -4 9 1 18 10 22 9 3 16 13 16 21 0 9 6 13 15 9 8 -3 15 -1
15 4 0 6 -6 10 -12 10 -7 0 -4 7 7 16 11 8 21 20 21 27 1 7 2 16 3 21 0 5 7 4
14 -2 10 -8 13 -6 14 9 1 13 -2 17 -10 12 -8 -4 -8 -1 1 9 9 11 10 18 2 23 -5
3 -10 1 -10 -5 0 -6 -4 -8 -10 -5 -5 3 -10 15 -10 25 0 24 -17 35 -17 12z
m-73 -317 c10 -12 10 -15 -4 -15 -9 0 -16 7 -16 15 0 8 2 15 4 15 2 0 9 -7 16
-15z"/>
<path d="M6715 6540 c-3 -5 -1 -10 5 -10 7 0 5 -7 -4 -16 -20 -19 -20 -24 0
-24 8 0 12 5 9 10 -3 6 0 13 9 16 8 3 12 12 9 20 -6 16 -19 18 -28 4z"/>
<path d="M6803 6534 c3 -4 0 -13 -8 -21 -8 -8 -15 -22 -15 -30 0 -9 3 -13 8
-9 4 4 7 12 7 17 0 5 5 8 10 7 6 -2 9 -9 9 -15 -1 -7 2 -10 7 -7 5 3 9 -1 9
-9 0 -19 34 -49 51 -45 8 2 14 -5 14 -17 1 -11 4 -25 8 -32 8 -13 -1 -43 -14
-43 -4 0 -13 8 -18 18 -6 9 -11 12 -11 7 0 -6 5 -16 12 -23 9 -9 9 -12 -2 -12
-9 0 -8 -5 6 -16 10 -8 13 -13 7 -9 -8 4 -13 0 -13 -10 0 -9 -5 -13 -10 -10
-6 4 -8 11 -5 16 11 16 -7 9 -20 -8 -11 -15 -10 -22 8 -47 16 -22 18 -32 9
-46 -9 -14 -7 -17 11 -16 22 2 24 7 13 36 -4 9 5 28 21 46 42 45 60 77 57 97
-1 10 -22 37 -46 60 -23 23 -55 61 -70 85 -15 23 -31 42 -34 42 -4 0 -5 -3 -1
-6z m117 -150 c0 -8 -5 -12 -10 -9 -6 4 -8 11 -5 16 9 14 15 11 15 -7z"/>
<path d="M5205 6470 c-3 -6 1 -7 9 -4 18 7 21 14 7 14 -6 0 -13 -4 -16 -10z"/>
<path d="M6746 6455 c-3 -8 -1 -15 4 -15 6 0 10 7 10 15 0 8 -2 15 -4 15 -2 0
-6 -7 -10 -15z"/>
<path d="M6800 6364 c0 -8 5 -12 10 -9 6 4 8 11 5 16 -9 14 -15 11 -15 -7z"/>
<path d="M5126 6343 c-6 -14 -5 -15 5 -6 7 7 10 15 7 18 -3 3 -9 -2 -12 -12z"/>
<path d="M2777 6176 c-4 -10 -1 -13 8 -9 8 3 12 9 9 14 -7 12 -11 11 -17 -5z"/>
<path d="M6913 6172 c10 -10 14 -22 10 -26 -5 -4 1 -14 11 -22 11 -8 15 -14
10 -14 -6 0 -14 3 -18 7 -11 11 -46 14 -46 3 0 -6 7 -10 16 -10 8 0 12 -5 9
-10 -4 -6 -10 -8 -15 -5 -4 3 -6 -5 -2 -17 5 -21 4 -22 -11 -9 -14 11 -17 11
-18 0 -1 -8 -1 -17 0 -21 0 -5 -4 -8 -10 -8 -5 0 -8 -4 -4 -9 3 -5 0 -13 -6
-17 -8 -4 -9 -3 -5 4 4 7 1 12 -9 12 -9 0 -14 -4 -11 -9 11 -17 -5 -40 -25
-36 -10 2 -19 0 -19 -6 0 -5 8 -9 18 -10 14 0 14 -2 -3 -8 -11 -5 -24 -6 -30
-3 -5 3 -3 -3 5 -13 12 -14 12 -19 2 -23 -8 -2 -1 -13 19 -28 21 -15 27 -24
17 -24 -9 0 -18 7 -22 15 -7 19 -23 19 -23 0 0 -8 13 -17 29 -20 15 -4 30 -11
33 -16 11 -16 14 -50 5 -44 -5 3 -11 1 -15 -5 -3 -5 -1 -10 4 -10 17 0 13 -17
-5 -24 -9 -4 -23 -1 -30 5 -11 9 -12 6 -3 -20 6 -17 15 -34 20 -37 5 -3 9 -10
9 -15 0 -6 -4 -8 -9 -5 -4 3 -6 -6 -3 -19 2 -15 0 -25 -7 -25 -7 0 -9 -5 -6
-10 3 -6 -1 -13 -9 -16 -9 -3 -13 -10 -10 -15 7 -12 56 1 69 18 8 11 14 7 28
-17 10 -16 22 -30 28 -30 5 0 9 -5 9 -11 0 -5 -5 -7 -10 -4 -6 4 -17 1 -25 -5
-8 -6 -19 -9 -24 -5 -7 3 -8 0 -5 -10 4 -9 3 -15 -2 -14 -23 4 -26 -3 -8 -22
14 -15 15 -20 4 -17 -8 2 -21 14 -28 28 -7 14 -10 17 -7 8 2 -11 -1 -18 -9
-18 -7 0 -19 -7 -26 -15 -11 -13 -11 -18 0 -28 10 -9 11 -9 6 1 -4 6 -2 12 4
12 6 0 8 5 5 10 -3 6 -1 10 4 10 10 0 12 -5 11 -25 0 -3 11 -22 25 -42 13 -20
21 -40 17 -43 -5 -3 -8 -32 -8 -65 0 -33 1 -52 4 -42 4 20 37 23 49 5 4 -7 7
-27 8 -45 0 -24 -3 -29 -12 -21 -7 6 -10 15 -6 22 3 6 2 7 -3 3 -5 -5 -9 -12
-9 -15 0 -4 -11 -22 -24 -40 -24 -35 -23 -49 5 -38 10 4 14 13 11 26 -3 11 0
23 5 27 6 3 8 1 4 -5 -3 -6 -2 -13 4 -17 5 -3 10 -1 10 5 0 7 7 10 15 6 8 -3
14 -1 12 5 -1 6 8 17 20 26 20 13 22 13 33 -6 8 -16 8 -21 -2 -21 -7 -1 -2 -7
12 -14 l25 -14 -38 -7 c-21 -4 -41 -13 -44 -21 -2 -7 -12 -10 -21 -7 -13 4
-13 2 2 -9 15 -12 16 -17 6 -23 -9 -6 -11 -4 -5 5 5 9 4 11 -4 6 -6 -4 -9 -12
-5 -17 3 -5 10 -6 16 -3 8 5 9 1 5 -10 -4 -10 -7 -22 -7 -27 0 -4 -7 -6 -15
-3 -11 5 -13 2 -8 -12 4 -12 3 -15 -5 -10 -17 10 -15 -16 2 -40 14 -18 14 -18
13 0 -2 22 33 48 40 29 3 -7 9 -13 15 -13 6 0 6 6 -2 15 -7 8 -9 15 -5 15 4 0
2 7 -5 15 -12 14 -7 19 13 16 5 -1 20 8 34 19 14 11 22 20 17 20 -5 0 2 7 14
16 21 14 22 41 1 29 -5 -4 -9 -1 -9 4 0 6 5 11 10 11 6 0 -4 18 -21 40 -18 22
-41 40 -51 40 -10 0 -18 5 -18 11 0 5 -14 23 -32 39 -35 33 -43 56 -22 68 11
6 11 12 -1 35 -7 15 -12 27 -9 27 3 0 0 9 -5 19 -9 16 -7 20 14 25 14 4 25 13
25 21 0 8 6 15 14 15 40 0 19 84 -36 147 -35 40 -40 62 -21 88 10 13 25 25 33
25 13 0 13 1 0 10 -11 7 -12 12 -3 21 15 15 -1 49 -24 49 -9 0 -13 3 -10 7 4
3 0 15 -10 25 -14 16 -14 22 -3 43 7 13 16 23 19 22 4 -1 19 10 34 26 16 15
25 27 21 27 -3 0 -1 7 6 15 7 8 17 12 23 8 6 -4 8 3 5 19 -4 20 -1 24 12 21
10 -3 23 6 34 22 17 25 16 27 -14 65 -18 22 -36 40 -42 40 -6 0 -4 -8 5 -18z
m47 -1062 c0 -5 -2 -10 -4 -10 -3 0 -8 5 -11 10 -3 6 -1 10 4 10 6 0 11 -4 11
-10z"/>
<path d="M6797 6131 c7 -26 19 -27 33 -1 7 14 7 20 0 20 -5 0 -10 -5 -10 -11
0 -8 -4 -8 -14 0 -12 10 -13 8 -9 -8z"/>
<path d="M4063 5933 c4 -6 2 -13 -3 -15 -6 -2 -12 -13 -13 -26 -1 -14 -6 -21
-14 -18 -17 7 -16 -2 2 -20 13 -14 15 -14 15 0 0 8 7 19 15 24 16 8 16 45 0
59 -4 5 -5 3 -2 -4z m-2 -46 c-10 -9 -11 -8 -5 6 3 10 9 15 12 12 3 -3 0 -11
-7 -18z"/>
<path d="M2763 5907 c-28 -30 -32 -49 -16 -65 7 -8 10 -19 6 -25 -4 -7 1 -6
10 2 16 12 16 16 2 31 -19 21 -20 44 -1 37 9 -4 17 2 21 14 10 30 1 32 -22 6z"/>
<path d="M6720 5879 c0 -5 5 -7 10 -4 6 3 10 8 10 11 0 2 -4 4 -10 4 -5 0 -10
-5 -10 -11z"/>
<path d="M3200 5856 c0 -3 9 -10 20 -16 11 -6 20 -8 20 -6 0 3 -9 10 -20 16
-11 6 -20 8 -20 6z"/>
<path d="M3975 5840 c2 -4 -2 -13 -10 -20 -17 -14 -20 -30 -5 -30 6 0 10 7 10
15 0 12 4 13 19 5 28 -15 35 -12 20 7 -13 15 -11 16 10 10 17 -4 21 -3 13 5
-13 13 -65 21 -57 8z"/>
<path d="M3175 5833 c-11 -3 -23 -10 -27 -17 -9 -14 -31 -15 -40 -1 -5 6 -8 5
-8 -3 0 -21 29 -26 49 -8 10 9 23 16 29 16 6 0 14 5 17 10 3 6 5 9 3 9 -2 -1
-12 -4 -23 -6z"/>
<path d="M3906 5821 c-4 -5 3 -7 14 -4 23 6 26 13 6 13 -8 0 -17 -4 -20 -9z"/>
<path d="M2732 5784 c2 -14 -2 -18 -17 -16 -19 2 -19 2 -1 -9 14 -9 20 -8 27
2 12 19 11 26 -2 34 -6 4 -9 0 -7 -11z"/>
<path d="M3918 5773 c-6 -7 -15 -10 -21 -6 -5 3 -7 1 -3 -5 3 -6 -6 -20 -21
-32 -24 -19 -26 -23 -14 -43 l14 -22 -23 20 c-13 11 -20 14 -16 8 4 -7 2 -13
-4 -13 -6 0 -8 -5 -4 -11 5 -8 -1 -10 -19 -7 -18 4 -24 1 -20 -9 3 -7 10 -10
16 -6 6 3 7 1 3 -6 -4 -6 -11 -9 -16 -6 -5 3 -10 0 -13 -7 -2 -7 -3 -6 -2 3 2
15 -2 16 -34 10 -2 -1 1 -7 6 -13 15 -18 12 -48 -4 -48 -7 0 -13 5 -13 10 0 6
-5 10 -12 10 -6 0 -3 -10 8 -22 10 -12 13 -18 7 -14 -16 9 -16 1 -3 -25 14
-24 45 -26 36 -2 -4 10 -4 14 0 10 9 -9 66 32 59 44 -4 5 0 9 8 9 7 0 23 10
35 23 21 22 21 23 2 24 -13 1 -18 -2 -14 -9 4 -7 2 -8 -4 -4 -17 10 -15 13 18
30 20 9 28 10 24 3 -3 -7 11 6 30 28 20 22 36 45 36 50 -1 6 -8 1 -16 -10 -15
-20 -15 -19 -12 5 2 19 10 26 33 28 47 5 50 18 4 18 -22 -1 -45 -7 -51 -13z
m-22 -57 c0 -16 -4 -22 -14 -19 -11 5 -11 7 0 14 7 5 9 9 5 9 -5 0 -5 5 -2 10
9 15 11 12 11 -14z"/>
<path d="M2684 5739 c-4 -7 -3 -9 4 -5 5 3 13 0 15 -6 4 -9 6 -10 6 -1 1 17
-16 25 -25 12z"/>
<path d="M6727 5734 c-8 -9 11 -44 24 -44 6 0 3 7 -6 16 -13 14 -14 19 -3 25
7 5 8 9 2 9 -6 0 -14 -3 -17 -6z"/>
<path d="M2656 5711 c-9 -13 23 -36 34 -25 6 6 2 14 -10 22 -10 6 -21 8 -24 3z"/>
<path d="M3030 5709 c0 -5 -4 -7 -10 -4 -5 3 -10 -1 -10 -9 0 -22 13 -20 28 4
7 12 8 20 2 20 -5 0 -10 -5 -10 -11z"/>
<path d="M2935 5649 c-4 -6 -5 -12 -2 -15 2 -3 7 2 10 11 7 17 1 20 -8 4z"/>
<path d="M2636 5625 c-4 -11 8 -24 39 -44 24 -15 42 -30 39 -33 -2 -3 2 -11
11 -18 12 -10 18 -10 30 0 10 9 15 9 15 1 0 -6 -4 -11 -10 -11 -5 0 -10 -5
-10 -11 0 -6 -10 -25 -23 -42 -25 -35 -50 -87 -41 -87 11 0 33 28 27 34 -4 3
-1 6 5 6 6 0 9 6 6 14 -3 8 5 21 18 30 12 9 19 16 15 16 -4 0 2 10 13 23 47
49 61 104 23 90 -11 -4 -14 -3 -9 5 4 7 1 12 -8 12 -8 0 -17 -6 -20 -12 -5
-10 -7 -10 -12 0 -8 17 -27 15 -21 -2 4 -9 0 -13 -11 -11 -9 2 -21 4 -27 4 -5
1 -3 6 5 12 12 8 11 9 -5 7 -14 -2 -20 2 -19 15 2 21 -22 23 -30 2z"/>
<path d="M6710 5620 c0 -5 1 -11 3 -13 1 -2 -6 -11 -16 -21 -9 -10 -14 -23
-11 -29 5 -8 2 -8 -7 1 -18 16 -26 15 -33 -4 -5 -14 -4 -15 9 -4 12 10 15 10
15 -4 0 -9 -5 -16 -12 -16 -20 0 1 -13 25 -16 21 -2 23 1 21 34 -3 29 -1 33 7
19 8 -13 14 -15 30 -7 11 6 25 8 31 4 15 -9 1 14 -25 44 -22 23 -37 29 -37 12z"/>
<path d="M3686 5572 c-2 -4 -1 -14 5 -22 12 -20 11 -40 -2 -40 -5 0 -7 6 -3
13 6 9 4 9 -8 -1 -13 -10 -17 -10 -21 0 -3 7 -4 -5 -1 -27 3 -33 2 -36 -6 -17
-8 19 -30 23 -30 6 0 -3 5 -2 12 2 7 4 8 3 4 -4 -4 -7 -15 -12 -26 -12 -14 0
-17 -5 -12 -22 3 -14 2 -19 -6 -14 -7 4 -12 5 -12 2 0 -3 10 -10 22 -17 19
-10 20 -9 14 7 -6 15 -5 16 5 7 10 -10 16 -10 28 0 12 10 13 9 7 -3 -4 -8 0
-6 8 4 11 13 16 15 16 6 0 -7 3 -10 6 -7 4 4 3 12 -3 19 -11 15 -11 38 0 38 4
0 11 0 17 0 5 0 6 -7 3 -17 -4 -11 -3 -14 6 -9 6 4 11 15 9 24 -1 10 1 23 5
29 5 8 0 19 -12 30 -15 13 -17 19 -8 25 9 6 9 8 0 8 -6 0 -14 -4 -17 -8z"/>
<path d="M6710 5539 c0 -4 11 -6 25 -5 14 0 25 4 25 8 0 4 -11 7 -25 6 -14 -1
-25 -5 -25 -9z"/>
<path d="M2780 5443 c0 -6 8 -17 18 -24 16 -13 16 -13 2 6 -8 11 -16 22 -17
24 -2 2 -3 0 -3 -6z"/>
<path d="M3560 5410 c0 -15 -5 -20 -14 -17 -15 6 -49 -30 -41 -43 4 -6 1 -11
-4 -11 -6 -1 -15 -2 -21 -3 -5 0 -10 -5 -9 -10 0 -5 -14 -16 -31 -24 -22 -11
-27 -17 -18 -23 7 -4 19 -2 27 4 8 7 17 12 20 12 3 0 5 3 4 7 -1 3 4 9 12 12
9 3 12 0 8 -10 -3 -9 1 -14 12 -14 9 0 13 5 10 10 -9 14 8 12 25 -2 8 -7 6 -3
-3 9 -19 21 -14 30 13 28 8 0 14 -6 13 -13 -2 -7 2 -12 7 -12 12 0 13 6 1 28
-10 20 3 62 19 62 6 0 8 -5 3 -12 -13 -23 -11 -34 7 -34 10 0 18 3 18 6 -2 20
4 30 17 30 8 0 15 4 15 8 0 5 -7 9 -15 9 -8 0 -15 -4 -15 -9 0 -5 -13 0 -30
12 l-30 21 0 -21z"/>
<path d="M2690 5356 c0 -8 16 -28 35 -45 20 -17 30 -31 24 -31 -16 0 -50 -41
-43 -52 3 -5 13 1 22 14 9 13 22 28 29 33 11 8 5 19 -27 52 -22 23 -40 36 -40
29z"/>
<path d="M4275 5260 c4 -6 11 -8 16 -5 14 9 11 15 -7 15 -8 0 -12 -5 -9 -10z"/>
<path d="M6717 5223 c-4 -3 -7 -13 -7 -21 0 -18 13 -7 16 13 2 17 1 18 -9 8z"/>
<path d="M2666 5186 c-28 -37 -31 -46 -17 -46 5 0 11 10 14 22 5 16 9 19 19
10 10 -8 14 -4 14 19 1 16 0 29 -1 29 -1 0 -14 -15 -29 -34z"/>
<path d="M2618 5105 c-3 -16 1 -30 13 -41 11 -10 19 -12 19 -6 0 7 -4 12 -10
12 -15 0 -12 47 3 53 7 4 6 6 -4 6 -10 1 -19 -9 -21 -24z"/>
<path d="M6247 5117 c-3 -11 -105 -13 -187 -3 -40 4 -64 2 -88 -10 -32 -15
-118 -14 -144 3 -7 4 -8 1 -3 -8 8 -12 6 -12 -8 0 -15 12 -17 11 -17 -3 0 -14
-13 -21 -23 -13 -2 1 -10 -3 -18 -9 -8 -7 -33 -10 -56 -8 -23 2 -45 -1 -48 -7
-4 -5 -11 -6 -17 -3 -7 4 -8 2 -4 -4 9 -15 -83 -4 -104 12 -8 6 -28 10 -45 8
-16 -1 -61 -4 -100 -5 -38 -2 -79 -8 -90 -14 -13 -7 -44 -8 -85 -4 -64 6 -144
-5 -135 -19 2 -4 42 -5 87 -3 46 2 122 5 169 7 48 2 90 6 95 8 13 8 88 2 158
-11 47 -9 66 -9 90 1 17 7 45 11 62 9 18 -1 50 7 72 18 34 17 52 20 101 15 48
-5 66 -3 87 10 21 14 37 16 87 10 75 -9 102 -8 146 1 25 5 38 3 45 -7 6 -8 22
-20 34 -27 18 -10 22 -18 18 -36 -5 -18 -1 -25 14 -30 11 -3 20 -11 20 -16 0
-5 5 -9 11 -9 5 0 24 -15 41 -32 18 -20 26 -25 20 -12 -6 11 -29 39 -51 62
-23 23 -42 47 -42 52 -1 6 -2 16 -3 23 0 6 -7 12 -14 12 -7 0 -16 6 -21 13 -5
8 -12 14 -17 14 -5 -1 -8 5 -6 12 2 15 -26 18 -31 3z"/>
<path d="M2825 5055 c-17 -12 -18 -16 -5 -24 12 -8 12 -13 2 -23 -6 -6 -12 -8
-12 -3 0 4 -9 0 -20 -10 -11 -10 -17 -23 -13 -29 5 -7 2 -7 -8 1 -11 9 -19 8
-34 -4 -15 -11 -15 -14 -3 -10 9 3 18 0 21 -7 4 -11 -6 -14 -50 -18 -7 -1 -10
-5 -7 -9 2 -4 -2 -10 -8 -12 -10 -4 -9 -8 2 -16 13 -9 13 -11 -2 -11 -10 0
-22 9 -28 20 -9 18 -40 29 -40 15 0 -16 34 -55 48 -55 8 0 24 -7 34 -17 16
-14 18 -14 18 0 0 21 34 15 38 -7 3 -13 -2 -16 -24 -13 -24 3 -35 -5 -71 -49
-24 -29 -43 -56 -43 -59 0 -4 -19 -29 -41 -57 -23 -27 -39 -51 -36 -54 2 -3
20 13 39 36 19 22 40 40 46 40 7 0 12 6 12 13 0 7 9 18 20 25 12 7 18 17 15
22 -3 6 1 10 10 10 9 0 25 9 37 20 17 16 24 17 37 7 12 -10 14 -9 8 5 -4 12
-2 15 7 12 17 -6 31 12 16 21 -22 13 -9 32 20 30 20 -1 27 2 21 8 -6 6 0 20
20 39 16 16 27 34 23 39 -3 5 0 9 6 9 6 0 8 5 4 13 -5 7 0 6 11 -3 10 -8 16
-10 13 -5 -4 6 7 29 23 53 16 23 25 42 20 42 -5 0 -11 -5 -13 -11 -2 -6 -16
-11 -32 -11 -22 0 -27 -4 -23 -20 4 -14 2 -17 -7 -9 -9 7 -16 7 -24 -1 -16
-16 -16 3 1 36 8 14 18 22 22 18 4 -4 6 0 3 8 -7 21 -30 23 -53 5z m22 -16 c2
-17 -1 -18 -13 -8 -13 11 -10 20 11 29 1 0 1 -9 2 -21z m-11 -76 c-3 -3 -1
-15 5 -26 9 -15 8 -18 -3 -11 -7 5 -16 9 -20 9 -8 0 -9 12 -1 32 3 7 9 10 15
7 5 -3 7 -8 4 -11z m-36 -44 c0 -5 6 -7 13 -3 6 5 -1 -6 -17 -23 -16 -17 -35
-29 -43 -26 -10 4 -11 9 -2 19 6 7 7 19 3 25 -4 7 -3 9 4 5 6 -3 13 -2 17 4 8
13 25 13 25 -1z"/>
<path d="M2660 5040 c0 -9 14 -14 33 -11 14 2 6 -15 -23 -49 -16 -19 -29 -39
-29 -45 0 -5 8 0 18 13 13 15 21 18 24 10 3 -7 6 -3 6 10 1 18 7 22 34 23 17
1 25 3 16 6 -9 2 -21 15 -27 28 -11 24 -52 36 -52 15z"/>
<path d="M2771 5029 c5 -11 7 -25 3 -32 -5 -8 -2 -7 9 2 23 18 21 38 -3 44
-17 4 -18 2 -9 -14z"/>
<path d="M2905 5030 c-3 -6 1 -7 9 -4 18 7 21 14 7 14 -6 0 -13 -4 -16 -10z"/>
<path d="M4689 5018 c-30 -22 -94 -32 -121 -17 -12 7 -35 5 -74 -7 -30 -9 -66
-13 -79 -10 -13 3 -36 1 -50 -4 -19 -7 -39 -7 -68 1 -52 15 -77 18 -71 8 2 -4
-45 -7 -106 -6 -60 1 -110 -1 -110 -5 0 -7 40 -13 62 -9 4 0 19 -4 32 -9 14
-5 28 -6 30 -1 5 7 72 14 126 12 159 -6 199 -6 220 2 43 15 84 17 117 5 24 -9
38 -9 55 -1 42 21 73 28 128 29 30 1 87 3 125 4 39 2 80 0 92 -4 23 -7 63 8
63 24 0 6 -9 6 -24 1 -13 -6 -40 -6 -60 -1 -20 4 -49 5 -64 1 -15 -4 -42 -4
-60 0 -17 4 -34 4 -36 0 -7 -11 -77 -13 -90 -3 -7 6 -20 3 -37 -10z"/>
<path d="M3596 5012 c-16 -2 -40 -10 -52 -19 -15 -9 -34 -12 -52 -9 -16 4 -43
0 -64 -8 -19 -8 -38 -12 -42 -9 -3 4 -6 0 -6 -8 0 -11 -2 -11 -10 1 -8 13 -10
13 -11 -2 -1 -10 -3 -22 -4 -28 -1 -5 -3 -13 -4 -16 0 -4 -8 -1 -17 6 -8 8
-14 9 -13 4 4 -25 -3 -42 -18 -40 -12 0 -19 -7 -21 -22 -2 -13 -8 -20 -14 -16
-6 4 -8 3 -5 -3 8 -12 -36 -56 -46 -46 -14 14 -6 -43 9 -65 8 -12 14 -30 13
-40 -5 -30 30 -117 60 -147 48 -50 60 -56 92 -51 21 3 35 -1 48 -15 10 -11 31
-22 47 -25 22 -4 26 -2 18 6 -6 6 -18 12 -26 14 -8 1 -23 10 -33 20 -13 13
-27 16 -48 12 -22 -5 -38 0 -61 18 -37 28 -80 105 -74 132 3 11 -4 36 -14 56
-20 42 -22 52 -8 43 6 -3 10 0 10 8 0 8 12 22 26 32 17 11 23 22 19 33 -3 9
-3 13 1 9 4 -3 36 23 71 58 36 36 68 63 73 60 5 -3 11 -1 15 5 3 5 25 10 48
10 23 0 51 7 61 15 19 15 139 15 371 0 56 -3 65 -2 45 7 -14 6 -81 12 -150 13
-69 2 -143 5 -165 7 -22 3 -53 3 -69 0z"/>
<path d="M6815 5000 c4 -6 11 -8 16 -5 14 9 11 15 -7 15 -8 0 -12 -5 -9 -10z"/>
<path d="M6921 4991 c-11 -7 -11 -9 0 -14 9 -4 10 -6 2 -6 -7 -1 -10 -8 -7
-16 4 -8 10 -13 14 -10 4 3 11 -2 14 -11 6 -15 4 -15 -17 -1 -23 15 -23 15
-22 -29 2 -28 -1 -41 -8 -37 -6 4 3 -11 19 -32 16 -22 24 -36 18 -32 -15 9
-48 -28 -38 -44 4 -8 3 -10 -5 -5 -6 4 -18 0 -26 -8 -14 -14 -14 -17 5 -36 24
-24 43 -68 34 -81 -3 -5 0 -9 7 -9 8 0 7 -6 -4 -18 -17 -19 -19 -63 -4 -73 12
-8 18 -59 8 -59 -4 0 -8 -6 -8 -14 0 -7 7 -13 16 -12 10 1 15 -6 13 -16 -1 -9
1 -19 5 -21 5 -3 9 11 9 30 2 40 25 63 36 35 4 -9 7 -14 7 -9 1 4 10 -2 22
-14 17 -17 18 -23 8 -35 -7 -9 -21 -13 -30 -11 -10 3 -23 -1 -30 -9 -6 -8 -15
-11 -20 -8 -5 3 -9 2 -8 -3 4 -22 -2 -43 -12 -43 -6 0 -9 7 -6 14 4 10 1 13
-9 9 -12 -4 -12 -8 -2 -21 10 -12 10 -16 1 -19 -7 -3 -13 -9 -13 -14 0 -15 26
-10 49 11 18 15 26 16 36 7 7 -7 9 -13 4 -15 -10 -4 20 -37 33 -37 5 0 12 -6
17 -13 4 -7 12 -12 17 -11 20 3 28 -2 15 -10 -9 -6 -5 -8 13 -8 26 0 61 -21
51 -31 -3 -3 0 -11 5 -17 8 -9 6 -14 -5 -19 -9 -3 -13 -2 -10 4 3 6 0 10 -8
10 -9 0 -13 -9 -12 -25 3 -27 -4 -32 -22 -14 -7 7 -10 3 -8 -15 2 -14 -1 -28
-5 -31 -5 -3 -7 -12 -3 -20 3 -8 0 -15 -7 -15 -6 0 -8 -4 -5 -10 3 -5 1 -10
-5 -10 -6 0 -8 -4 -5 -10 3 -5 -1 -10 -9 -10 -9 0 -15 -3 -15 -7 3 -19 -2 -27
-10 -15 -7 11 -9 10 -14 -3 -4 -9 -3 -13 3 -10 6 3 10 -1 10 -10 0 -11 -5 -15
-16 -11 -9 3 -12 2 -9 -5 4 -6 -2 -13 -14 -16 -11 -3 -18 -9 -15 -14 3 -5 -4
-18 -15 -30 -11 -12 -18 -26 -15 -31 3 -4 1 -8 -5 -8 -6 0 -8 -7 -4 -16 4 -10
0 -20 -10 -26 -10 -5 -17 -15 -17 -23 0 -8 -5 -17 -12 -21 -7 -4 -8 -3 -4 4 5
8 2 10 -9 6 -11 -5 -13 -10 -5 -19 5 -6 7 -15 3 -19 -4 -3 -8 -14 -9 -23 -2
-12 0 -13 9 -4 16 16 44 14 51 -5 8 -22 8 -26 -3 -20 -5 4 -7 -3 -4 -14 5 -19
6 -20 20 -3 13 16 13 16 3 -5 -6 -12 -15 -20 -21 -17 -5 4 -9 0 -9 -7 -1 -8
-7 -5 -16 7 -16 20 -16 20 -10 -1 3 -11 0 -29 -8 -40 -14 -18 -15 -18 -10 6 5
22 4 23 -6 7 -6 -10 -16 -14 -23 -10 -8 5 -8 2 1 -9 10 -13 10 -17 -4 -22 -9
-3 -14 -12 -11 -19 3 -7 -1 -21 -9 -32 -19 -26 -18 -30 13 -60 32 -29 43 -31
43 -9 0 10 6 14 15 10 8 -3 15 -1 15 3 0 5 -4 11 -9 13 -5 2 2 11 15 21 14 10
23 13 22 6 -2 -6 4 -14 12 -16 9 -3 11 -1 5 4 -13 11 -17 33 -6 33 12 0 22
-45 15 -64 -3 -9 -10 -16 -16 -16 -5 0 -6 4 -3 10 4 6 -1 7 -11 3 -11 -4 -13
-8 -6 -11 7 -2 12 -8 12 -13 0 -6 -8 -6 -19 1 -26 13 -31 13 -25 -3 3 -8 -5
-18 -18 -24 l-23 -10 23 -7 c12 -4 22 -11 22 -16 0 -11 28 -6 41 7 6 6 18 9
27 6 9 -4 13 -2 9 4 -4 6 -25 9 -48 7 -35 -3 -38 -2 -25 11 15 16 31 21 23 8
-3 -5 9 -7 26 -7 18 1 31 7 30 13 -2 6 2 12 7 12 6 1 16 2 23 3 6 0 13 10 15
21 2 15 -10 30 -41 52 l-44 31 -34 -26 c-19 -15 -40 -33 -48 -40 -16 -15 -20
-12 -26 17 -2 11 0 21 6 21 20 0 70 55 66 72 -4 12 -1 16 6 11 7 -4 20 -9 31
-10 15 -3 16 -1 7 11 -9 11 -8 15 4 20 9 3 13 2 10 -4 -3 -6 -1 -10 4 -10 10
0 15 14 12 32 0 5 2 7 7 7 23 -4 18 6 -28 51 -32 31 -45 50 -35 50 9 0 14 4
11 9 -3 5 1 12 10 15 8 3 12 10 9 16 -3 5 0 10 9 10 9 0 13 8 11 25 -1 14 1
28 6 31 4 2 5 12 2 21 -4 11 -3 14 5 9 7 -4 12 -3 12 3 0 5 16 25 35 44 19 19
35 38 35 43 0 5 10 14 23 19 12 6 22 19 23 30 1 11 5 28 9 38 4 9 5 23 2 30
-4 10 2 13 20 9 17 -3 24 -1 19 6 -3 6 1 17 9 25 8 9 15 24 15 34 0 21 -49 73
-71 77 -8 1 -26 10 -41 20 -15 10 -31 15 -37 12 -5 -3 -7 2 -4 13 3 10 0 22
-6 25 -6 4 -11 13 -11 19 0 7 4 6 10 -3 8 -13 10 -13 10 2 0 10 16 34 35 54
19 19 35 42 35 49 0 13 -62 65 -77 65 -4 0 -20 -7 -35 -14 -27 -14 -27 -14
-34 20 -4 20 -11 31 -17 27 -6 -3 -7 -1 -3 5 4 6 13 9 21 5 8 -3 15 -1 15 5 0
6 -5 12 -11 14 -9 3 -9 9 0 25 16 30 15 34 -17 68 -33 34 -33 60 -3 82 12 8
19 19 15 24 -3 5 0 8 7 7 20 -4 17 22 -8 69 -17 33 -19 44 -9 52 7 6 15 8 19
5 6 -6 30 32 33 54 1 6 -7 12 -19 13 -12 0 -16 3 -9 6 6 2 12 9 12 14 0 11
-21 11 -39 0z m94 -501 c3 -6 -1 -7 -9 -4 -18 7 -21 14 -7 14 6 0 13 -4 16
-10z m-25 -111 c0 -5 -4 -7 -10 -4 -5 3 -10 1 -10 -4 0 -6 -8 -11 -17 -11 -16
1 -16 2 1 15 23 18 36 19 36 4z m-27 -879 c3 -11 1 -18 -4 -14 -5 3 -9 12 -9
20 0 20 7 17 13 -6z"/>
<path d="M6435 4891 c-3 -5 -1 -12 5 -16 5 -3 10 1 10 9 0 18 -6 21 -15 7z"/>
<path d="M6450 4850 c0 -5 6 -10 14 -10 8 0 18 -9 21 -20 3 -11 11 -20 16 -20
16 0 10 16 -14 38 -25 24 -37 28 -37 12z"/>
<path d="M6477 4764 c-10 -13 -15 -29 -11 -36 4 -7 3 -8 -4 -4 -7 4 -12 3 -12
-2 0 -17 30 -23 31 -7 2 19 4 25 14 48 12 27 2 28 -18 1z"/>
<path d="M2699 4725 c-1 -3 -2 -10 -3 -15 0 -6 -8 -15 -16 -20 -15 -9 -16 -13
-19 -45 0 -8 -6 -15 -12 -15 -5 0 -7 4 -4 10 3 6 -1 7 -9 4 -13 -5 -12 -9 7
-23 12 -10 31 -21 42 -25 13 -5 15 -10 8 -13 -7 -3 -13 -14 -13 -24 0 -11 -4
-18 -9 -14 -6 3 -15 -3 -21 -14 -15 -29 5 -36 36 -12 15 12 23 21 18 21 -5 1
2 10 15 20 13 11 21 20 17 20 -3 0 13 18 35 39 32 30 39 43 32 55 -8 15 -11
14 -20 -6 -6 -13 -14 -31 -17 -41 -3 -10 -10 -15 -16 -12 -5 3 -16 3 -22 -2
-21 -13 -36 -12 -48 3 -12 14 -4 38 10 29 4 -3 11 11 14 30 5 24 11 33 19 28
7 -4 7 0 -2 10 -14 17 -20 21 -22 12z m-4 -45 c-3 -5 -12 -10 -18 -10 -7 0 -6
4 3 10 19 12 23 12 15 0z"/>
<path d="M2761 4708 c-1 -23 15 -32 23 -12 3 8 2 13 -3 9 -5 -3 -12 1 -14 7
-4 8 -6 7 -6 -4z"/>
<path d="M6455 4680 c3 -5 1 -10 -5 -10 -6 0 -8 -5 -4 -11 3 -6 -9 -27 -27
-47 l-34 -36 35 29 c41 33 68 85 44 85 -8 0 -12 -4 -9 -10z"/>
<path d="M6069 4603 c-13 -16 -12 -17 4 -4 16 13 21 21 13 21 -2 0 -10 -8 -17
-17z"/>
<path d="M6112 4612 c-17 -5 14 -22 88 -47 72 -25 88 -39 73 -64 -11 -18 -10
-18 18 -8 16 6 29 16 29 21 0 5 -3 6 -7 3 -3 -4 -15 3 -27 16 -12 12 -48 31
-80 42 -33 11 -64 25 -70 31 -6 6 -17 9 -24 6z"/>
<path d="M5978 4589 c-21 -15 -32 -18 -46 -10 -23 12 -96 8 -132 -7 -21 -9
-18 -10 26 -8 27 1 55 5 61 9 6 4 27 0 47 -8 28 -12 36 -12 36 -3 0 9 3 9 9
-1 8 -12 11 -9 16 12 4 15 11 24 16 21 5 -3 7 -9 4 -14 -3 -4 4 -6 15 -3 19 5
20 6 3 19 -23 17 -23 17 -55 -7z"/>
<path d="M2600 4576 c0 -34 -15 -40 -52 -22 -17 9 -32 15 -33 14 0 -2 11 -16
25 -31 l26 -28 27 21 c15 12 32 18 38 14 7 -4 9 -3 5 4 -3 5 -1 12 5 14 8 3 6
10 -5 21 -24 24 -36 21 -36 -7z m30 -7 c0 -6 -4 -7 -10 -4 -5 3 -10 11 -10 16
0 6 5 7 10 4 6 -3 10 -11 10 -16z"/>
<path d="M4522 4588 c-14 -14 -42 -19 -42 -8 0 10 -40 7 -43 -4 -2 -9 30 -23
48 -21 6 0 20 4 33 9 15 5 30 1 51 -13 34 -25 64 -27 81 -6 15 18 7 19 -19 3
-16 -10 -25 -6 -58 20 -30 23 -43 28 -51 20z"/>
<path d="M2528 4583 c7 -3 16 -2 19 1 4 3 -2 6 -13 5 -11 0 -14 -3 -6 -6z"/>
<path d="M4199 4559 c-13 -10 -20 -19 -15 -19 5 0 17 7 26 15 10 9 24 13 34 9
14 -5 15 -9 4 -16 -9 -7 -7 -7 7 -2 11 4 40 7 65 6 41 -1 43 0 20 10 -42 19
-115 17 -141 -3z"/>
<path d="M5680 4568 c35 -14 92 -19 84 -6 -3 5 -17 7 -29 4 -13 -3 -27 -2 -30
4 -3 5 -16 10 -28 9 -21 0 -21 -1 3 -11z"/>
<path d="M4113 4559 c-13 -5 -23 -11 -23 -15 0 -3 7 -3 16 0 9 4 23 1 30 -5 7
-6 19 -9 26 -6 8 3 6 6 -5 6 -10 1 -16 5 -12 10 8 15 -8 20 -32 10z"/>
<path d="M4378 4563 c6 -2 18 -2 25 0 6 3 1 5 -13 5 -14 0 -19 -2 -12 -5z"/>
<path d="M5577 4557 c14 -6 31 -6 50 1 25 9 23 9 -22 9 -40 0 -45 -2 -28 -10z"/>
<path d="M6352 4545 c-12 -13 -18 -26 -14 -29 4 -2 15 9 24 25 21 35 18 37
-10 4z"/>
<path d="M4670 4553 c0 -13 38 -46 55 -49 8 -1 15 2 15 7 0 5 12 9 27 9 38 0
25 7 -24 13 -24 2 -50 10 -58 17 -8 7 -15 8 -15 3z"/>
<path d="M5120 4550 c-12 -8 -11 -10 6 -10 12 0 25 -10 32 -25 15 -33 39 -31
82 7 34 29 16 25 -25 -6 -18 -13 -22 -12 -50 14 -22 21 -34 27 -45 20z"/>
<path d="M5289 4547 c7 -10 20 -17 27 -17 8 0 14 -4 14 -10 0 -5 12 -10 28
-10 18 0 23 3 14 9 -19 12 15 20 63 14 24 -2 41 1 47 9 6 10 10 10 16 1 5 -8
12 -8 26 2 16 12 9 13 -55 9 -41 -3 -86 -10 -100 -15 -21 -8 -34 -7 -60 7 -31
15 -33 15 -20 1z"/>
<path d="M3856 4533 c-3 -3 -6 -11 -6 -16 0 -6 3 -8 6 -4 3 3 16 2 28 -2 11
-5 30 -4 41 1 19 8 19 8 -2 4 -12 -2 -30 2 -41 10 -11 7 -22 10 -26 7z"/>
<path d="M4000 4536 c0 -9 39 -13 51 -5 10 6 4 9 -18 9 -18 0 -33 -2 -33 -4z"/>
<path d="M5078 4533 c7 -3 16 -2 19 1 4 3 -2 6 -13 5 -11 0 -14 -3 -6 -6z"/>
<path d="M2595 4521 c-4 -7 -1 -19 7 -28 9 -12 9 -15 1 -9 -27 16 -11 -16 27
-54 43 -43 55 -48 63 -26 4 9 0 12 -12 9 -13 -3 -20 2 -24 17 -3 12 -10 19
-15 16 -5 -3 -15 1 -21 8 -10 11 -8 17 6 25 17 9 17 11 -3 31 -15 15 -24 18
-29 11z"/>
<path d="M3095 4520 c-3 -5 -1 -10 4 -10 6 0 11 5 11 10 0 6 -2 10 -4 10 -3 0
-8 -4 -11 -10z"/>
<path d="M4844 4515 c10 -10 26 -14 44 -10 21 3 32 0 36 -10 4 -12 10 -12 42
1 24 10 40 12 47 5 11 -11 37 -4 37 11 0 5 -5 6 -11 2 -6 -3 -15 0 -20 7 -7
12 -14 11 -40 -4 -29 -16 -34 -16 -56 -2 -19 13 -27 14 -39 4 -11 -9 -18 -9
-26 -1 -7 7 -16 12 -21 12 -5 0 -2 -7 7 -15z"/>
<path d="M3735 4498 c-22 -10 -47 -20 -55 -21 -8 -2 -20 -6 -27 -10 -7 -4 -25
-2 -40 6 -24 11 -34 11 -63 0 l-35 -13 39 6 c28 4 49 0 73 -13 22 -12 36 -14
41 -7 11 16 106 62 120 57 16 -6 16 3 -1 10 -7 3 -31 -4 -52 -15z"/>
<path d="M3818 4513 c7 -3 16 -2 19 1 4 3 -2 6 -13 5 -11 0 -14 -3 -6 -6z"/>
<path d="M3050 4489 c0 -6 -4 -8 -9 -5 -5 3 -12 -6 -15 -19 -4 -14 -11 -23
-16 -20 -9 5 -50 -46 -50 -62 0 -5 -10 -9 -21 -9 -13 1 -23 -6 -24 -16 -4 -24
18 -23 40 2 9 10 21 18 26 17 5 -1 15 9 22 23 8 14 19 24 25 23 7 -2 12 1 12
6 0 5 11 22 24 38 23 27 23 29 5 30 -10 1 -19 -3 -19 -8z"/>
<path d="M2736 4438 c3 -4 -4 -15 -15 -24 -16 -14 -17 -21 -9 -40 6 -13 15
-21 20 -17 6 3 2 -6 -7 -21 -9 -14 -21 -23 -26 -20 -5 3 -14 -8 -20 -23 -6
-15 -15 -35 -19 -44 -4 -8 -3 -24 3 -35 9 -16 8 -17 -5 -7 -12 11 -19 8 -37
-13 -12 -14 -24 -34 -26 -44 -4 -20 25 -60 44 -60 6 0 11 -4 11 -9 0 -17 29
-20 45 -5 8 8 19 12 25 9 5 -3 10 3 10 14 0 13 7 21 16 21 10 0 14 6 11 14 -6
14 13 27 46 31 13 1 16 -3 11 -17 -4 -14 0 -18 18 -18 18 0 20 -2 8 -10 -8 -5
-10 -10 -4 -10 6 0 23 17 36 38 21 32 24 41 13 55 -13 19 -30 24 -19 6 3 -6 0
-15 -7 -20 -10 -6 -10 -9 -2 -9 7 0 10 -7 7 -15 -4 -8 -10 -15 -15 -15 -5 0
-9 7 -9 15 0 10 -10 15 -31 15 -16 0 -28 4 -25 9 4 5 -5 8 -20 6 -17 -1 -24 2
-20 10 3 9 -2 11 -16 7 -13 -3 -16 -7 -8 -12 8 -5 7 -9 -3 -13 -9 -3 -18 1
-21 9 -9 23 -8 24 20 34 l27 10 -28 24 c-20 17 -24 26 -15 31 8 5 20 -1 31
-16 15 -19 19 -20 19 -7 0 9 -5 20 -10 23 -7 4 -6 14 2 28 7 12 11 26 10 30
-1 5 2 6 8 2 5 -3 10 -1 10 6 0 7 2 10 5 7 7 -7 -18 -58 -29 -58 -5 0 -1 -9 9
-20 22 -24 33 -19 30 14 -2 14 0 25 3 25 20 -3 32 3 32 14 0 8 10 22 22 33 14
12 19 14 13 4 -6 -12 -5 -12 5 -3 18 17 5 49 -14 34 -8 -7 -23 -14 -35 -16
-16 -3 -21 1 -22 18 0 12 -3 16 -6 9 -2 -6 -9 -10 -14 -6 -5 3 -12 -2 -15 -10
-3 -9 -11 -16 -17 -16 -5 0 -3 8 5 18 25 29 27 38 8 38 -10 0 -16 -4 -14 -8z
m61 -90 c-3 -8 -6 -5 -6 6 -1 11 2 17 5 13 3 -3 4 -12 1 -19z m-103 -186 c4
-37 -17 -44 -34 -11 -9 17 -8 23 7 34 22 16 22 16 27 -23z m-36 -27 c16 -34
15 -35 -7 -35 -15 0 -19 7 -19 30 1 37 11 38 26 5z"/>
<path d="M6213 4435 c0 -8 4 -15 9 -15 4 0 8 4 8 9 0 6 -4 12 -8 15 -5 3 -9
-1 -9 -9z"/>
<path d="M6991 4431 c-7 -5 -9 -11 -4 -14 5 -3 15 -2 22 2 7 5 9 11 4 14 -5 3
-15 2 -22 -2z"/>
<path d="M6246 4422 c-3 -5 1 -9 9 -9 8 0 12 4 9 9 -3 4 -7 8 -9 8 -2 0 -6 -4
-9 -8z"/>
<path d="M6180 4410 c0 -5 5 -10 11 -10 5 0 7 5 4 10 -3 6 -8 10 -11 10 -2 0
-4 -4 -4 -10z"/>
<path d="M6240 4393 c0 -5 5 -15 10 -23 8 -12 10 -11 10 8 0 12 -4 22 -10 22
-5 0 -10 -3 -10 -7z"/>
<path d="M6213 4358 c-16 -21 -23 -48 -13 -48 9 0 14 14 11 33 0 4 6 7 14 7 8
0 15 5 15 10 0 14 -16 12 -27 -2z"/>
<path d="M6866 4327 c3 -10 9 -15 12 -12 3 3 0 11 -7 18 -10 9 -11 8 -5 -6z"/>
<path d="M6860 4281 c-16 -30 -12 -36 10 -16 21 19 26 35 10 35 -5 0 -14 -9
-20 -19z"/>
<path d="M6825 4270 c3 -5 8 -10 11 -10 2 0 4 5 4 10 0 6 -5 10 -11 10 -5 0
-7 -4 -4 -10z"/>
<path d="M7005 4229 c-4 -6 -5 -12 -2 -15 2 -3 7 2 10 11 7 17 1 20 -8 4z"/>
<path d="M2782 4050 c-18 -17 -30 -30 -27 -30 4 0 -1 -10 -9 -21 -8 -12 -12
-28 -9 -35 3 -9 -1 -14 -12 -14 -9 0 -13 -5 -9 -11 4 -7 1 -10 -7 -7 -15 5
-61 -31 -54 -42 3 -5 -6 -11 -20 -14 -16 -4 -22 -11 -19 -21 4 -8 11 -12 17
-8 6 4 7 1 2 -6 -5 -9 -10 -10 -18 -2 -13 13 -51 15 -43 2 4 -5 -3 -7 -15 -4
-17 5 -20 2 -17 -13 2 -11 11 -18 21 -18 9 1 17 -2 17 -7 0 -5 5 -9 10 -9 5 0
9 3 9 8 -3 19 2 26 10 13 7 -11 12 -10 26 7 10 11 24 18 31 15 9 -3 14 2 14
13 0 11 7 28 15 38 10 13 15 15 15 6 0 -13 15 -5 15 8 0 13 16 32 26 32 5 0
10 -10 10 -22 1 -18 2 -19 6 -5 4 17 6 17 29 2 13 -8 24 -11 24 -6 0 10 -51
47 -61 44 -19 -6 1 60 30 95 39 50 37 52 -7 12z"/>
<path d="M2841 3846 c27 -25 34 -38 28 -52 -11 -28 -10 -34 4 -34 6 0 17 11
24 25 6 14 7 25 2 25 -13 0 -7 33 9 45 9 7 6 10 -13 11 -14 1 -23 -2 -20 -6 3
-5 1 -12 -5 -15 -6 -4 -9 -1 -8 6 2 6 -10 15 -27 20 l-30 8 36 -33z"/>
<path d="M2875 3730 c-11 -17 -26 -28 -33 -25 -9 3 -11 -1 -7 -15 5 -15 3 -18
-9 -14 -9 4 -16 1 -16 -6 0 -7 -8 -19 -17 -26 -13 -9 -14 -13 -4 -14 7 0 11
-6 7 -15 -4 -10 1 -15 14 -15 20 0 23 7 21 45 0 11 2 14 5 7 4 -10 9 -10 19
-2 11 9 13 4 11 -27 -1 -21 -7 -48 -14 -60 -8 -15 -9 -24 -2 -28 6 -4 10 -3 9
2 -4 21 2 33 16 33 9 0 12 6 9 15 -4 9 0 15 7 15 9 0 10 3 4 8 -14 10 -17 32
-5 32 14 0 12 27 -2 33 -8 4 -7 6 4 6 35 2 67 61 33 61 -8 0 -15 5 -15 10 0
19 -15 10 -35 -20z"/>
<path d="M2910 3539 c0 -5 -5 -7 -12 -3 -7 4 -8 3 -4 -5 6 -9 11 -9 22 0 17
14 18 19 4 19 -5 0 -10 -5 -10 -11z"/>
<path d="M2827 3523 c-13 -12 -7 -22 8 -17 10 4 13 2 10 -8 -8 -20 20 -44 31
-27 4 8 3 9 -4 5 -19 -11 -14 5 6 21 9 8 11 11 4 8 -7 -4 -21 0 -31 9 -10 9
-21 13 -24 9z"/>
<path d="M2790 3485 c-6 -8 -9 -19 -5 -25 3 -5 -1 -10 -10 -10 -14 0 -14 -3 2
-25 23 -31 48 -43 34 -16 -6 10 -7 22 -3 26 4 5 1 5 -5 1 -7 -4 -13 -3 -13 1
0 5 6 15 13 22 10 11 10 13 0 7 -15 -8 -18 10 -4 19 13 7 30 -26 23 -44 -4
-12 -3 -12 10 -1 13 12 12 17 -6 37 -23 27 -21 27 -36 8z"/>
<path d="M3093 3450 c5 -18 2 -21 -13 -17 -11 3 -19 2 -18 -2 2 -18 -4 -44 -9
-33 -7 18 -21 15 -19 -5 1 -20 -60 -37 -68 -19 -3 8 -5 8 -5 -1 -1 -6 -10 -9
-21 -6 -11 3 -17 10 -14 15 4 6 -3 5 -14 -1 -12 -6 -24 -16 -27 -21 -4 -6 -11
-7 -17 -4 -7 4 -8 2 -4 -4 13 -21 -3 -31 -28 -19 -13 7 -22 15 -20 19 3 5 1 8
-5 8 -5 0 -16 3 -25 6 -26 10 -18 -12 15 -45 30 -31 49 -38 63 -23 4 4 11 7
14 8 28 4 71 28 66 36 -4 6 1 8 14 4 42 -14 66 -15 73 -5 3 6 9 7 11 3 3 -5
-6 -24 -19 -43 -12 -19 -23 -28 -23 -21 0 10 -3 10 -15 0 -9 -7 -13 -21 -10
-31 3 -9 1 -20 -5 -24 -5 -3 -10 1 -10 9 0 9 -6 13 -15 10 -13 -5 -13 -8 1
-21 11 -11 12 -19 5 -26 -15 -15 -14 -27 3 -27 8 0 18 9 21 21 5 15 10 17 20
9 10 -8 14 -5 17 14 4 19 1 23 -11 19 -11 -4 -9 0 4 10 15 11 22 12 27 4 6 -9
8 -8 8 2 0 7 25 37 55 67 30 30 51 54 47 54 -4 0 0 5 8 11 13 9 13 10 0 6 -8
-2 -14 -10 -12 -17 4 -16 -21 -7 -26 10 -3 7 -1 10 4 7 5 -3 18 1 29 9 19 14
19 14 -1 14 -18 1 -18 1 -1 14 20 15 22 28 5 24 -7 -1 -24 4 -37 11 -22 12
-24 12 -18 -9z m7 -101 c0 -11 -4 -18 -9 -15 -5 4 -11 0 -14 -6 -2 -7 -8 -10
-11 -6 -4 3 1 15 11 26 23 26 23 26 23 1z"/>
<path d="M6875 3360 c-3 -6 1 -7 9 -4 18 7 21 14 7 14 -6 0 -13 -4 -16 -10z"/>
<path d="M6892 3341 c-8 -5 -14 -12 -15 -17 -1 -5 -8 -7 -16 -6 -9 2 -12 -2
-8 -12 3 -8 1 -18 -5 -22 -7 -5 -8 -2 -3 7 5 8 4 11 -1 6 -4 -4 -9 -20 -10
-34 -1 -25 0 -25 14 -7 12 15 14 16 9 2 -4 -12 4 -23 29 -38 19 -12 32 -26 29
-30 -3 -5 -1 -11 5 -15 17 -10 11 -25 -9 -25 -11 0 -26 -8 -33 -18 -7 -11 -23
-24 -35 -30 -35 -19 -53 -41 -47 -60 4 -12 3 -13 -3 -4 -5 7 -16 10 -25 7 -12
-5 -10 -11 11 -34 14 -16 34 -44 44 -64 18 -33 18 -35 1 -55 -10 -12 -21 -19
-25 -16 -4 2 -5 -4 -2 -15 3 -11 -3 -24 -14 -32 -29 -21 -36 -38 -22 -55 10
-12 8 -17 -7 -29 -10 -8 -13 -15 -7 -15 9 0 10 -7 2 -27 -5 -14 -8 -32 -5 -40
3 -7 -1 -13 -9 -13 -8 0 -15 -6 -15 -13 0 -19 34 -57 51 -57 8 1 1 12 -16 25
-23 19 -25 23 -9 19 19 -5 21 -1 20 41 -1 26 4 51 10 56 7 5 10 18 7 29 -4 14
2 23 19 30 31 14 81 103 67 117 -6 6 -11 17 -13 26 -1 8 -17 32 -35 54 -26 30
-29 39 -17 41 9 2 16 10 16 18 0 11 6 13 22 8 19 -6 21 -5 10 8 -10 12 -8 17
13 26 14 6 25 16 25 22 0 5 5 10 11 10 6 0 17 7 26 16 9 8 22 13 29 10 27 -10
13 21 -28 62 -22 23 -45 42 -50 42 -4 0 -8 7 -8 15 0 8 5 15 10 15 6 0 10 5
10 11 0 5 -6 7 -12 3 -9 -5 -9 -3 1 9 7 9 17 15 21 12 13 -8 22 13 13 29 -5
10 -13 12 -21 7z"/>
<path d="M3040 3216 c6 -6 3 -14 -8 -22 -10 -8 -12 -14 -5 -14 6 0 18 9 26 20
8 11 17 17 20 13 4 -3 7 -2 7 4 0 6 -11 10 -24 9 -15 0 -21 -5 -16 -10z"/>
<path d="M6890 3183 c0 -12 -6 -23 -12 -26 -7 -2 -11 -7 -8 -10 3 -3 13 1 23
8 15 11 17 17 8 32 -10 17 -10 16 -11 -4z"/>
<path d="M2883 3108 c-24 -34 -40 -64 -36 -67 3 -3 8 0 10 7 3 6 9 10 14 6 5
-3 9 -2 8 3 -3 19 14 53 27 53 16 0 45 40 38 52 -10 15 -19 7 -61 -54z"/>
<path d="M6835 3120 c-3 -6 1 -7 9 -4 18 7 21 14 7 14 -6 0 -13 -4 -16 -10z"/>
<path d="M2937 3074 c5 -13 2 -15 -15 -9 -26 8 -30 -16 -7 -35 12 -10 13 -15
4 -21 -22 -13 -2 -40 27 -35 21 4 23 2 14 -9 -8 -10 -8 -15 1 -20 6 -4 15 -2
19 5 8 13 30 6 30 -9 0 -5 -13 -25 -30 -46 -16 -21 -30 -34 -30 -29 0 5 -4 4
-8 -2 -12 -17 -72 -43 -87 -38 -12 5 -13 -6 -6 -34 1 -1 13 5 29 15 l27 17
-23 -23 c-19 -19 -21 -25 -11 -32 8 -5 23 -2 36 6 12 8 26 15 30 15 4 0 0 -5
-10 -11 -17 -10 -17 -12 -2 -29 11 -12 13 -20 5 -25 -6 -4 -9 -23 -6 -45 3
-28 0 -40 -11 -44 -25 -10 -27 -7 -9 13 10 11 15 25 11 31 -9 15 -27 1 -21
-17 4 -10 2 -13 -7 -10 -15 6 -41 -29 -32 -43 3 -4 -1 -11 -7 -13 -10 -4 -10
-8 1 -15 14 -10 18 -63 5 -83 -5 -8 -8 -8 -14 0 -4 7 -12 -5 -19 -28 -10 -35
-9 -43 6 -61 21 -24 33 -26 33 -4 0 8 4 12 10 9 6 -3 7 1 3 10 -4 11 -8 13
-13 5 -6 -10 -40 -4 -40 7 0 17 45 63 56 59 8 -3 13 -2 13 2 -3 20 3 34 23 54
14 14 16 19 6 15 -9 -3 -23 2 -33 13 -17 18 -16 20 18 40 30 18 35 26 32 50
-2 16 1 33 7 36 7 5 8 2 3 -6 -5 -9 -4 -11 4 -6 7 4 10 13 8 19 -5 16 24 47
37 40 6 -3 6 0 -1 7 -6 7 -9 19 -6 28 4 8 -2 21 -12 28 -18 13 -18 15 1 49 10
19 21 35 25 35 3 0 11 11 17 25 9 20 8 27 -6 37 -9 7 -27 27 -38 44 -19 26
-20 33 -8 48 16 23 10 36 -16 36 -14 0 -18 -5 -13 -16z m-6 -31 c13 -16 12
-17 -3 -4 -17 13 -22 21 -14 21 2 0 10 -8 17 -17z m12 -216 c3 -8 -1 -14 -8
-14 -7 0 -11 6 -8 14 3 7 6 13 8 13 2 0 5 -6 8 -13z m20 -55 c-3 -12 -9 -22
-14 -22 -12 0 -11 7 2 32 13 25 20 19 12 -10z m-78 -152 c-3 -5 -11 -10 -16
-10 -6 0 -7 5 -4 10 3 6 11 10 16 10 6 0 7 -4 4 -10z"/>
<path d="M2856 3031 c-3 -4 6 -13 19 -19 27 -12 33 -4 13 16 -14 14 -25 15
-32 3z"/>
<path d="M3730 2880 c0 -5 5 -10 10 -10 6 0 10 5 10 10 0 6 -4 10 -10 10 -5 0
-10 -4 -10 -10z"/>
<path d="M3653 2801 c1 -9 -2 -17 -8 -17 -5 -1 -9 2 -7 8 1 5 -3 6 -9 3 -7 -5
-4 -14 10 -29 18 -18 23 -19 31 -6 5 8 6 18 4 22 -3 4 -1 8 5 8 5 0 11 -4 13
-9 2 -4 11 -1 20 9 17 16 16 16 -14 12 -18 -3 -28 -1 -25 5 3 5 0 10 -8 10 -8
0 -13 -7 -12 -16z"/>
<path d="M3463 2638 c-24 -31 -26 -40 -6 -27 11 6 20 18 20 25 0 17 -2 17 -14
2z"/>
<path d="M3954 2548 c1 -15 -5 -23 -14 -22 -10 1 -17 -8 -18 -22 -2 -29 18
-32 25 -4 3 11 10 17 16 13 5 -3 7 -2 4 4 -3 5 3 16 14 23 10 8 19 18 19 23 0
5 -6 5 -13 -2 -9 -7 -17 -7 -24 0 -6 6 -9 2 -9 -13z"/>
<path d="M6715 2561 c6 -11 3 -13 -16 -8 -28 7 -55 -6 -45 -22 4 -6 0 -11 -11
-11 -17 -1 -17 -2 1 -15 16 -12 22 -12 28 -2 6 9 8 9 8 0 0 -7 -8 -16 -17 -22
-10 -5 -15 -12 -11 -16 11 -11 48 38 42 57 -6 19 11 25 22 7 4 -8 9 -8 17 0 8
8 6 16 -7 29 -11 9 -15 11 -11 3z"/>
<path d="M6755 2549 c-10 -15 3 -25 16 -12 7 7 7 13 1 17 -6 3 -14 1 -17 -5z"/>
<path d="M6511 2453 c4 -28 -3 -33 -42 -28 -23 3 -47 1 -54 -5 -10 -8 -20 -7
-38 5 -24 15 -26 15 -61 -18 -20 -19 -36 -40 -36 -48 0 -7 8 -2 17 11 25 37
34 41 86 34 26 -3 47 -2 47 3 0 12 150 5 166 -8 8 -7 17 -9 20 -6 10 9 -6 27
-23 27 -9 0 -25 8 -36 18 -11 9 -18 12 -14 6 3 -6 0 -11 -7 -11 -8 0 -12 6 -9
14 3 7 0 13 -6 13 -6 0 -10 -3 -10 -7z"/>
<path d="M6621 2452 c-1 -7 -6 -10 -12 -6 -6 3 -3 -5 6 -20 18 -28 30 -32 40
-16 4 6 11 8 16 5 5 -4 9 1 9 9 0 10 -9 16 -24 16 -13 0 -27 6 -29 13 -4 9 -6
9 -6 -1z"/>
<path d="M2840 2366 c0 -17 50 -58 63 -53 16 6 17 -9 4 -30 -5 -7 -5 -13 0
-13 4 0 1 -5 -7 -10 -12 -8 -11 -10 8 -10 22 0 32 20 10 20 -9 1 -8 5 2 13 9
7 16 22 17 35 2 18 -2 21 -23 18 -15 -3 -27 1 -34 12 -5 9 -10 13 -10 8 0 -5
-7 -3 -15 4 -8 7 -15 9 -15 6z"/>
<path d="M6256 2355 c4 -8 1 -15 -5 -15 -6 0 -11 -5 -11 -11 0 -8 5 -8 15 1
17 14 20 40 5 40 -5 0 -7 -7 -4 -15z"/>
<path d="M5657 2320 c-14 -11 -27 -17 -30 -13 -2 5 -2 2 -1 -5 4 -16 -21 -26
-38 -16 -22 14 -36 13 -42 -3 -5 -13 -9 -13 -23 -2 -10 8 -14 9 -10 2 4 -6 3
-14 -3 -18 -6 -4 -8 -11 -4 -16 3 -5 2 -9 -3 -8 -32 6 -51 -2 -46 -20 4 -14
12 -18 36 -15 18 1 38 3 46 3 11 1 11 4 1 16 -7 8 -9 15 -4 15 5 0 2 5 -6 10
-13 8 -12 10 3 10 9 0 17 -7 17 -16 0 -13 3 -14 15 -4 8 7 12 16 9 21 -7 13
19 7 28 -6 5 -6 8 -5 8 3 0 7 4 11 9 7 5 -3 12 -1 16 5 4 6 11 8 16 5 5 -4 10
-1 10 4 1 6 2 16 3 23 1 15 26 23 26 9 0 -6 3 -10 8 -10 23 4 21 -5 -12 -41
-20 -22 -36 -46 -36 -53 0 -8 4 -7 10 3 8 12 10 11 10 -7 0 -12 5 -25 11 -28
16 -11 23 3 10 19 -7 8 -9 21 -5 27 4 8 3 9 -4 5 -24 -14 -11 12 12 28 23 14
26 14 40 0 21 -20 20 -24 -5 -19 -18 4 -19 2 -8 -11 11 -13 10 -15 -3 -12 -9
1 -16 -1 -15 -7 1 -5 5 -9 8 -8 3 1 5 -8 5 -20 -1 -15 6 -23 20 -25 23 -3 30
26 10 41 -7 6 -5 7 6 4 9 -3 19 -3 22 1 11 10 36 11 36 1 0 -6 4 -8 9 -5 4 3
7 17 6 30 -3 20 1 24 18 23 12 -1 28 -7 35 -14 7 -7 25 -13 38 -13 14 0 23 -4
20 -9 -9 -14 18 -20 34 -7 8 6 15 18 15 26 0 8 6 14 13 13 6 -2 12 2 12 8 0 5
5 7 12 3 8 -5 9 -2 5 9 -3 10 -2 17 3 17 6 0 10 -8 10 -17 0 -15 2 -16 10 -3
6 9 5 17 -3 22 -22 14 -45 8 -50 -13 -3 -12 -10 -18 -15 -15 -6 3 -12 1 -14
-5 -4 -13 -78 -20 -78 -8 0 9 -41 24 -54 20 -5 -1 -4 4 3 13 9 11 9 16 0 22
-8 4 -9 3 -5 -4 4 -7 1 -12 -9 -12 -9 0 -13 4 -10 10 3 6 -1 7 -10 4 -11 -5
-13 -10 -5 -19 8 -9 8 -15 0 -20 -5 -3 -10 -1 -10 4 0 6 -5 11 -10 11 -6 0 -8
-11 -6 -25 3 -15 1 -23 -5 -20 -5 4 -7 10 -5 14 3 4 -5 14 -18 21 -16 8 -22
18 -19 31 6 21 -13 49 -32 49 -7 0 -24 -9 -38 -20z"/>
<path d="M2960 2320 c0 -5 5 -10 11 -10 5 0 7 5 4 10 -3 6 -8 10 -11 10 -2 0
-4 -4 -4 -10z"/>
<path d="M6033 2317 c-11 -18 15 -30 31 -14 9 9 16 17 16 19 0 8 -42 3 -47 -5z"/>
<path d="M6116 2315 c-9 -26 -7 -32 5 -12 6 10 9 21 6 23 -2 3 -7 -2 -11 -11z"/>
<path d="M6150 2320 c0 -5 5 -10 11 -10 5 0 7 5 4 10 -3 6 -8 10 -11 10 -2 0
-4 -4 -4 -10z"/>
<path d="M6183 2323 c4 -6 0 -14 -9 -17 -9 -3 -12 -11 -8 -18 5 -7 2 -9 -7 -6
-15 6 -42 -16 -32 -26 4 -3 1 -6 -5 -6 -7 0 -12 -4 -12 -9 0 -5 10 -7 23 -4
12 3 19 2 15 -2 -4 -4 -18 -9 -32 -10 -19 -2 -23 1 -19 13 4 10 2 13 -5 8 -7
-4 -12 -2 -12 4 0 6 -4 8 -10 5 -19 -12 -10 -25 30 -44 22 -10 40 -15 40 -10
0 20 46 79 58 74 6 -2 12 0 12 5 0 6 7 10 15 10 8 0 15 5 15 10 0 13 -17 13
-25 0 -4 -6 -11 -8 -16 -4 -5 3 -7 9 -4 14 3 5 0 12 -6 16 -7 4 -9 3 -6 -3z"/>
<path d="M5526 2312 c-2 -4 -1 -14 4 -22 7 -11 9 -9 7 8 -1 24 -3 26 -11 14z"/>
<path d="M5593 2305 c0 -8 4 -12 9 -9 5 3 6 10 3 15 -9 13 -12 11 -12 -6z"/>
<path d="M2945 2289 c-4 -6 -5 -13 -2 -16 7 -7 27 6 27 18 0 12 -17 12 -25 -2z"/>
<path d="M3916 2268 c-9 -12 -16 -18 -17 -13 0 6 -4 0 -9 -12 -5 -13 -16 -23
-25 -23 -8 0 -15 -5 -15 -11 0 -6 -7 -8 -17 -5 -10 4 -14 4 -10 0 4 -4 2 -13
-4 -21 -10 -11 -14 -10 -26 4 -8 10 -12 13 -9 6 7 -14 -1 -20 -37 -27 -16 -3
-25 -1 -22 5 4 5 1 9 -6 9 -21 0 -120 50 -115 58 3 4 -4 9 -15 9 -11 1 -17 -2
-14 -7 3 -4 -2 -11 -11 -14 -9 -3 -12 -11 -8 -18 5 -8 2 -9 -10 -5 -12 5 -20
-1 -28 -19 -6 -13 -17 -23 -24 -20 -8 3 -11 -2 -9 -13 3 -14 -2 -17 -21 -13
-15 3 -24 0 -24 -8 0 -10 -3 -10 -15 0 -8 7 -15 19 -15 26 0 8 -5 14 -11 14
-5 0 -7 -4 -4 -10 8 -13 -8 -13 -21 0 -6 6 -10 3 -11 -11 -1 -13 3 -19 11 -16
11 4 11 0 2 -19 -6 -13 -15 -24 -19 -24 -5 0 -5 5 -2 10 3 6 2 10 -3 10 -15 0
-22 -28 -9 -34 8 -3 7 -5 -2 -5 -8 -1 -22 6 -32 15 -17 15 -16 17 4 42 12 14
33 37 47 50 15 15 19 23 10 21 -21 -4 -60 10 -60 22 0 6 5 7 10 4 15 -10 12 5
-6 22 -14 15 -15 14 -12 -3 2 -14 -3 -19 -19 -18 -13 0 -23 -4 -23 -9 0 -6 -3
-7 -7 -4 -3 4 -13 1 -21 -6 -9 -6 -13 -7 -9 -1 3 6 0 11 -8 11 -10 0 -11 -5
-4 -18 7 -15 4 -22 -16 -35 -14 -9 -25 -21 -25 -27 0 -6 3 -7 6 -4 4 3 15 2
25 -3 14 -8 19 -5 25 13 5 12 7 25 6 29 -1 4 6 4 15 1 12 -5 15 -2 11 8 -4 11
3 14 33 13 47 -1 54 -7 39 -31 -10 -15 -11 -16 -6 -1 3 10 1 20 -4 23 -6 4
-10 0 -10 -8 0 -8 -6 -17 -14 -20 -28 -11 -25 -46 6 -78 17 -16 33 -28 35 -25
3 3 15 1 28 -4 27 -10 41 9 22 31 -10 12 -9 12 2 2 20 -18 28 -16 34 6 4 16
11 19 37 15 21 -4 30 -2 25 5 -3 6 0 11 9 11 8 0 27 15 42 33 15 17 31 32 37
32 5 0 13 7 16 16 7 20 48 9 57 -16 3 -8 10 -13 14 -10 5 3 12 1 15 -5 4 -6 1
-9 -6 -8 -21 5 -20 -17 2 -41 17 -18 23 -20 30 -9 5 7 9 9 9 3 0 -5 5 -2 11 7
7 13 15 15 34 8 15 -6 25 -5 27 1 2 6 12 11 23 13 12 2 19 10 17 19 -1 8 2 18
8 22 6 3 7 0 4 -9 -9 -25 14 -19 40 9 l24 26 33 -37 c19 -19 55 -47 82 -60 43
-22 52 -23 48 -1 0 4 6 7 14 7 8 0 24 9 35 20 11 11 23 20 28 20 19 0 48 14
59 29 9 11 12 12 13 3 0 -7 5 -10 10 -7 6 4 8 10 5 15 -7 12 16 25 24 14 3 -5
14 -10 23 -12 10 -2 29 -14 43 -28 15 -15 32 -23 41 -20 8 3 17 -1 20 -9 4 -8
10 -15 15 -15 5 0 5 10 0 23 -7 19 -6 23 8 22 9 0 22 -4 28 -8 14 -9 27 9 17
24 -4 7 0 9 13 5 38 -12 113 -16 113 -6 0 6 -6 11 -12 11 -62 6 -83 11 -95 26
-8 10 -11 12 -7 4 5 -10 3 -12 -7 -5 -19 11 -40 14 -34 4 3 -4 -2 -11 -11 -14
-8 -3 -12 -10 -9 -16 3 -5 1 -10 -4 -10 -6 0 -11 7 -11 16 0 8 -5 12 -11 8 -8
-4 -9 1 -4 17 7 23 6 23 -7 5 -9 -12 -20 -16 -28 -11 -10 6 -9 9 1 17 9 6 0 7
-25 3 -22 -3 -42 -8 -45 -10 -2 -3 -13 3 -23 12 -11 10 -19 13 -18 8 5 -21 -1
-25 -14 -13 -8 7 -12 16 -10 20 3 4 -5 12 -16 18 -20 11 -21 10 -11 -9 12 -21
15 -59 5 -48 -3 3 -17 -6 -30 -20 -13 -14 -24 -21 -24 -16 0 6 -7 13 -14 16
-10 4 -13 1 -9 -9 3 -7 1 -14 -4 -14 -6 0 -14 -10 -20 -22 -8 -19 -10 -20 -16
-4 -4 10 -3 15 3 11 6 -3 10 -2 10 4 0 12 -20 26 -21 14 -1 -16 -10 -57 -12
-59 -1 -1 -18 5 -38 13 -25 10 -42 26 -55 53 -10 21 -23 36 -29 32 -5 -3 -3 3
6 14 25 30 30 42 20 48 -5 4 -17 -4 -25 -16z m-616 -138 c-6 -11 -13 -20 -16
-20 -2 0 0 9 6 20 6 11 13 20 16 20 2 0 0 -9 -6 -20z"/>
<path d="M5435 2270 c-4 -6 -11 -7 -17 -4 -7 4 -8 2 -4 -5 6 -9 11 -9 22 0 14
11 18 19 10 19 -3 0 -8 -5 -11 -10z"/>
<path d="M3965 2250 c3 -5 8 -10 11 -10 2 0 4 5 4 10 0 6 -5 10 -11 10 -5 0
-7 -4 -4 -10z"/>
<path d="M4783 2240 c-3 -11 -14 -20 -24 -20 -17 0 -17 -3 -7 -20 12 -19 13
-19 37 3 13 12 21 16 17 10 -4 -7 -4 -13 1 -14 4 0 18 -2 30 -3 12 -1 20 1 17
6 -3 4 0 8 5 8 6 0 11 -4 11 -10 0 -5 5 -10 10 -10 15 0 12 30 -2 31 -7 1 -21
0 -32 -1 -11 -1 -15 3 -12 9 5 7 1 8 -10 4 -11 -4 -15 -2 -11 4 4 6 0 14 -9
17 -11 4 -18 -1 -21 -14z"/>
<path d="M5300 2228 c-5 -13 -9 -19 -9 -14 -1 5 -9 2 -19 -7 -10 -9 -29 -18
-42 -20 -16 -3 -24 -11 -25 -25 -1 -12 -5 -25 -10 -29 -4 -5 -5 0 -2 10 5 14
2 16 -20 11 -20 -5 -24 -4 -19 7 4 8 0 5 -8 -5 -16 -20 -16 -19 -16 1 0 21
-21 26 -37 8 -4 -4 -2 -5 5 -1 8 5 12 -2 12 -22 0 -32 -23 -61 -35 -42 -3 5
-16 10 -28 11 -21 0 -21 1 -2 8 14 6 24 3 32 -8 13 -17 14 -17 18 16 2 20 1
21 -37 7 l-39 -14 -14 33 c-7 17 -11 36 -8 42 4 5 3 7 -2 3 -4 -4 -15 -2 -23
5 -13 10 -14 9 -7 -3 18 -28 15 -43 -4 -26 -19 18 -41 21 -41 7 0 -5 -10 -7
-22 -4 -13 3 -3 -6 22 -19 25 -14 48 -21 51 -16 3 5 9 2 13 -8 3 -9 9 -14 12
-11 3 3 24 -8 46 -24 29 -20 45 -26 53 -19 6 5 15 7 18 3 4 -3 7 1 7 10 0 20
20 22 39 5 11 -11 13 -10 9 2 -5 12 1 16 23 14 27 -2 34 6 29 31 -1 6 4 4 11
-2 19 -19 36 -16 42 7 3 12 14 20 26 20 14 0 21 6 21 19 0 19 1 19 43 -1 56
-28 107 -34 107 -13 0 9 -7 18 -15 21 -8 4 -13 9 -11 13 2 3 -2 12 -10 18 -8
8 -15 9 -19 3 -3 -6 -1 -10 4 -10 13 0 15 -37 2 -44 -5 -4 -14 6 -19 21 -6 17
-11 21 -11 11 -1 -15 -4 -15 -28 -2 -16 7 -34 14 -42 14 -8 0 -11 6 -7 15 3 8
3 15 0 15 -2 0 -9 -10 -14 -22z m-345 -59 c11 -17 -1 -21 -15 -4 -8 9 -8 15
-2 15 6 0 14 -5 17 -11z m295 7 c0 -2 -7 -7 -16 -10 -8 -3 -12 -2 -9 4 6 10
25 14 25 6z"/>
<path d="M3953 2227 c3 -10 2 -17 -4 -17 -6 0 -7 -4 -4 -10 10 -16 21 -12 22
10 1 11 -3 23 -9 26 -7 5 -9 1 -5 -9z"/>
<path d="M4117 2213 c3 -7 6 -13 8 -13 1 0 7 6 13 13 8 10 6 13 -7 13 -11 0
-17 -6 -14 -13z"/>
<path d="M2899 2186 c25 -26 42 -37 23 -13 -6 6 -10 17 -11 22 0 6 -8 12 -18
14 -15 3 -14 -1 6 -23z"/>
<path d="M4720 2195 c14 -7 27 -11 30 -9 6 7 -22 24 -40 23 -9 0 -5 -6 10 -14z"/>
<path d="M5063 2196 c0 -16 13 -15 42 2 18 10 18 11 3 12 -10 0 -18 -5 -18
-11 0 -8 -4 -8 -13 0 -10 8 -14 7 -14 -3z"/>
<path d="M3160 2185 c0 -7 30 -13 34 -7 3 4 -4 9 -15 9 -10 1 -19 0 -19 -2z"/>
<path d="M5010 2179 c0 -5 4 -8 9 -5 5 3 11 -1 15 -9 3 -8 12 -12 21 -9 13 5
10 9 -11 20 -32 17 -34 17 -34 3z"/>
<path d="M2917 2138 c-2 -7 -6 -17 -8 -23 -2 -5 -13 -19 -24 -31 -11 -12 -34
-39 -52 -62 -30 -37 -31 -40 -13 -45 12 -3 20 -14 20 -26 0 -13 5 -19 14 -15
8 3 16 2 19 -3 3 -4 -8 -9 -24 -10 -21 -2 -29 2 -29 14 0 13 -2 14 -17 2 -15
-13 -16 -12 -11 9 4 12 2 20 -3 16 -32 -19 32 -83 76 -75 11 2 26 4 34 6 15 2
32 34 25 46 -2 4 4 6 13 5 28 -2 25 21 -5 32 -31 11 -59 1 -48 -16 9 -15 -31
-3 -45 14 -8 10 -6 19 9 38 11 14 23 22 27 18 3 -4 5 -2 4 3 -4 12 46 87 53
80 3 -3 8 3 11 15 6 22 -17 29 -26 8z"/>
<path d="M3126 2133 c3 -12 -9 -17 -28 -14 -5 0 -7 -5 -5 -11 1 -8 -6 -12 -17
-10 -14 3 -17 -1 -13 -12 5 -11 0 -16 -14 -16 -14 0 -19 -5 -16 -13 3 -8 -1
-14 -9 -14 -8 0 -13 6 -10 14 4 10 1 11 -14 3 -24 -13 -33 -13 -25 0 6 9 2 12
-27 14 -7 1 -16 5 -19 10 -13 17 -15 -10 -3 -34 8 -14 14 -19 14 -12 0 6 5 12
12 12 6 0 4 -7 -5 -18 -10 -10 -17 -24 -17 -30 0 -16 39 -15 46 1 3 8 10 14
17 15 32 3 49 10 58 23 7 12 9 12 9 0 0 -11 4 -9 14 4 8 11 12 23 9 28 -2 4
-1 6 4 5 4 -1 24 13 43 32 19 18 27 31 18 27 -9 -3 -19 -3 -21 1 -2 4 -2 1 -1
-5z"/>
<path d="M2907 2039 c4 -13 8 -18 11 -10 2 7 -1 18 -6 23 -8 8 -9 4 -5 -13z"/>
<path d="M2881 2006 c-10 -11 -7 -14 13 -12 18 1 22 4 14 14 -13 15 -13 15
-27 -2z"/>
</g>
</svg>
