<?xml version="1.0" standalone="no"?>
<!DOCTYPE svg PUBLIC "-//W3C//DTD SVG 20010904//EN"
 "http://www.w3.org/TR/2001/REC-SVG-20010904/DTD/svg10.dtd">
<svg version="1.0" xmlns="http://www.w3.org/2000/svg"
 width="875.000000pt" height="571.000000pt" viewBox="0 0 875.000000 571.000000"
 preserveAspectRatio="xMidYMid meet">
<metadata>
Created by potrace 1.16, written by Peter Selinger 2001-2019
</metadata>
<g transform="translate(0.000000,571.000000) scale(0.100000,-0.100000)"
fill="#000000" stroke="none">
<path d="M1968 4583 c-21 -26 -82 -179 -124 -313 -36 -116 -56 -158 -119 -260
-19 -30 -39 -64 -45 -75 -5 -11 -26 -40 -44 -65 -50 -65 -138 -215 -171 -290
-15 -36 -36 -76 -45 -90 -9 -14 -31 -52 -47 -85 -42 -83 -93 -174 -117 -210
-33 -47 -41 -62 -102 -185 -32 -63 -72 -133 -89 -155 -33 -42 -99 -148 -112
-181 -7 -16 -69 -128 -103 -184 -5 -8 -31 -51 -57 -95 -80 -134 -240 -316
-310 -354 -20 -10 -23 -20 -23 -69 0 -32 5 -63 12 -70 7 -7 41 -12 81 -12 70
0 70 0 137 55 78 64 192 195 269 310 30 44 93 136 141 205 48 69 102 151 120
183 50 89 159 146 308 161 l71 7 -2 -158 c-2 -180 5 -204 78 -255 75 -52 304
-98 340 -68 10 8 15 32 15 71 0 54 -2 60 -29 73 -16 9 -48 18 -72 22 -57 9
-114 40 -128 71 -6 13 -11 45 -11 72 0 48 52 531 70 651 6 36 15 94 20 130 5
36 16 115 25 175 25 173 73 383 101 436 44 89 111 252 139 342 32 103 32 190
0 213 -29 22 -158 19 -177 -3z m-302 -1243 c-8 -52 -19 -142 -25 -200 -7 -58
-14 -119 -17 -136 l-4 -31 -108 -10 c-59 -5 -109 -8 -111 -7 -3 3 68 131 246
442 14 24 26 42 28 40 2 -2 -2 -46 -9 -98z"/>
<path d="M4526 4498 c-9 -12 -16 -26 -16 -30 0 -5 -34 -95 -75 -201 -42 -105
-99 -250 -127 -322 -44 -114 -136 -325 -237 -550 -18 -38 -53 -112 -79 -163
-44 -87 -50 -95 -104 -125 -66 -36 -83 -66 -75 -133 4 -43 1 -53 -47 -128 -29
-44 -73 -115 -98 -156 -26 -41 -60 -88 -77 -104 -27 -26 -31 -37 -31 -80 0
-46 3 -54 34 -78 29 -23 45 -28 91 -28 71 0 95 12 95 49 0 16 8 39 19 52 18
24 233 372 285 462 31 52 38 55 142 61 82 5 244 35 261 48 23 18 31 -3 42
-119 27 -279 33 -321 46 -368 19 -64 77 -129 130 -144 55 -15 214 -14 245 2
23 11 25 18 25 77 l0 65 -70 3 c-81 4 -94 13 -129 86 -23 50 -34 121 -51 346
-3 41 -10 111 -15 155 -58 470 -65 1034 -15 1175 18 51 20 141 3 158 -7 7 -41
12 -84 12 -64 0 -75 -3 -88 -22z m-89 -825 c-11 -19 18 -360 37 -432 12 -47
12 -49 -5 -40 -10 5 -70 9 -133 9 l-115 0 16 38 c8 20 51 115 94 210 44 95 84
184 89 197 5 14 12 25 15 25 4 0 4 -3 2 -7z m60 -545 c-3 -8 -6 -5 -6 6 -1 11
2 17 5 13 3 -3 4 -12 1 -19z"/>
<path d="M3478 4373 c-19 -21 -47 -58 -60 -81 -33 -56 -105 -106 -276 -189
-122 -60 -139 -65 -215 -70 -45 -3 -88 -10 -94 -16 -19 -14 -16 -102 3 -121
12 -13 39 -16 129 -16 127 0 201 18 318 76 l67 34 0 -32 c-1 -49 -18 -214 -30
-288 -6 -36 -13 -195 -16 -355 -5 -304 -24 -620 -49 -792 -28 -202 -108 -440
-190 -563 -49 -73 -44 -69 -197 -147 l-112 -57 -83 3 c-120 3 -123 2 -123 -69
0 -53 3 -61 31 -84 29 -25 37 -26 142 -26 95 0 123 4 182 25 142 52 195 82
270 158 60 60 81 90 123 177 127 267 167 484 192 1040 28 631 56 993 86 1115
11 45 26 73 65 117 47 54 50 61 50 113 1 77 -8 85 -100 85 -76 0 -77 -1 -113
-37z"/>
<path d="M2517 4372 c-25 -27 -62 -143 -112 -347 -39 -161 -54 -243 -86 -480
-42 -311 -51 -766 -19 -958 23 -137 48 -192 117 -259 64 -62 121 -88 200 -88
49 0 73 -6 111 -27 72 -40 116 -16 47 27 -31 19 -34 25 -37 77 -3 60 -5 62
-73 83 -50 15 -100 62 -130 120 -21 42 -28 68 -55 208 -33 173 11 698 91 1092
34 170 92 377 120 431 21 42 25 90 9 120 -9 16 -22 19 -89 19 -63 0 -81 -4
-94 -18z"/>
<path d="M6895 4266 c-103 -33 -208 -103 -327 -218 -72 -69 -89 -110 -71 -171
l9 -32 79 -3 c65 -2 83 0 104 16 14 10 41 26 59 36 25 13 32 23 32 46 0 23 11
37 55 72 52 41 128 88 142 88 3 0 3 -34 1 -75 -5 -67 -11 -86 -71 -203 -36
-71 -84 -154 -106 -183 -36 -47 -41 -61 -41 -106 0 -64 13 -73 99 -73 58 0 62
2 118 51 99 87 341 237 378 235 46 -4 84 -77 85 -164 0 -81 -65 -356 -130
-546 -169 -496 -279 -732 -486 -1046 -150 -228 -303 -379 -544 -538 -250 -165
-423 -231 -579 -219 -82 6 -101 19 -101 68 0 27 -21 54 -33 42 -4 -3 -7 -22
-7 -42 l0 -36 -97 0 -98 0 -3 -62 c-4 -74 -4 -73 129 -104 83 -18 115 -20 279
-16 146 4 200 9 256 26 212 61 521 257 720 455 190 190 321 380 479 696 140
280 305 725 359 970 10 41 24 103 32 137 20 88 19 337 -2 400 -18 54 -62 106
-105 123 -19 8 -75 11 -166 8 l-138 -3 4 133 c3 148 -8 213 -43 237 -26 19
-213 19 -271 1z"/>
<path d="M6037 4156 c-52 -19 -144 -92 -186 -148 -19 -27 -38 -48 -42 -48 -4
0 -9 12 -12 28 -8 37 -48 94 -77 109 -15 7 -63 13 -115 13 -149 0 -215 -45
-336 -224 -79 -117 -110 -179 -159 -322 -87 -251 -114 -456 -107 -798 4 -204
8 -253 26 -321 12 -44 28 -86 36 -94 23 -23 139 -27 170 -7 22 14 25 24 25 72
0 38 -4 56 -14 60 -33 13 -61 244 -53 429 13 264 76 532 170 720 43 88 143
238 180 273 l24 23 25 -33 c27 -37 41 -71 59 -143 10 -46 9 -57 -10 -112 -46
-130 -72 -272 -78 -431 -6 -150 -5 -153 17 -177 20 -22 32 -25 90 -25 84 0
106 16 144 99 43 97 56 178 56 366 l0 171 36 69 c46 87 110 178 163 230 l41
39 40 -39 c24 -23 48 -61 60 -93 53 -141 52 -516 -2 -729 -6 -24 -40 -124 -76
-221 -58 -158 -66 -187 -69 -264 -3 -55 -1 -88 6 -88 5 0 11 -17 13 -37 2 -30
8 -39 25 -41 16 -2 26 5 38 27 13 26 21 31 53 31 21 0 48 7 60 16 19 13 22 24
22 79 0 48 7 80 31 135 42 100 83 237 104 350 23 120 32 512 16 674 -20 204
-87 352 -174 385 -39 15 -174 13 -220 -3z"/>
</g>
</svg>
