<svg xmlns="http://www.w3.org/2000/svg" xmlns="http://www.w3.org/2000/svg" viewBox="0 0 875 1532" width="875" height="1532"><rect width="875" height="1532" fill="#0d1117" /><g transform="translate(0.000000,961.000000) scale(0.100000,-0.100000)" fill="#39FF14" stroke="none">
<path d="M5147 7844 c-9 -9 4 -35 14 -28 5 3 9 0 9 -6 0 -6 4 -9 9 -5 6 3 8 -6 5 -21 -3 -16 -1 -23 6 -19 8 5 9 -16 1 -65 -1 -3 -6 2 -11 10 -9 13 -10 13 -11 0 -1 -8 -1 -17 -1 -20 0 -3 -14 -23 -32 -45 l-33 -39 -28 18 -28 18 -40 -41 c-48 -50 -73 -65 -82 -51 -4 7 -16 1 -30 -14 -13 -14 -30 -23 -38 -20 -19 7 -40 76 -26 85 7 4 5 9 -5 12 -9 4 -16 1 -16 -5 0 -6 -3 -9 -6 -6 -3 4 -1 15 5 27 11 19 1 37 -13 23 -12 -11 -30 -9 -44 5 -8 7 -19 10 -25 6 -7 -3 -8 -2 -4 3 9 9 13 10 42 13 13 1 14 5 4 24 -7 12 -12 23 -11 25 1 1 2 9 2 17 0 28 -35 15 -83 -30 -39 -36 -55 -44 -83 -43 -20 1 -30 5 -23 9 8 5 4 14 -13 32 -24 24 -27 24 -47 10 -13 -8 -32 -12 -44 -9 -16 4 -32 -3 -52 -21 -22 -21 -30 -24 -33 -13 -6 18 -81 90 -93 90 -4 0 -23 -16 -42 -35 -38 -39 -52 -43 -65 -19 -5 9 -22 18 -37 19 -15 2 -31 9 -35 16 -4 6 -13 8 -19 5 -6 -4 -11 -3 -11 3 0 16 -58 75 -77 77 -18 3 -60 -34 -56 -48 2 -5 -1 -7 -6 -5 -5 1 -23 -14 -41 -33 -104 -114 -104 -114 -133 -112 -17 2 -26 -2 -22 -8 3 -5 0 -7 -8 -4 -8 3 -18 1 -22 -5 -9 -16 -46 -13 -59 4 -10 14 -16 12 -44 -16 -17 -17 -32 -38 -32 -45 0 -11 -7 -10 -35 3 -19 9 -35 21 -35 27 0 5 -13 -3 -29 -18 l-29 -28 -17 35 c-18 38 -67 97 -80 97 -5 0 -16 -7 -26 -16 -18 -16 -44 -11 -34 7 4 5 2 9 -4 9 -5 0 -19 16 -31 35 -12 19 -29 35 -38 35 -9 0 -34 -18 -55 -39 -21 -22 -44 -38 -51 -35 -14 6 -88 -84 -80 -97 9 -15 -2 -10 -25 10 -25 22 -60 20 -77 -4 -17 -23 -42 -18 -72 17 l-29 31 -56 -57 c-54 -55 -117 -152 -117 -180 0 -13 78 -86 93 -86 14 0 7 -17 -23 -56 -16 -22 -33 -43 -37 -49 -5 -5 -20 -25 -36 -44 l-27 -33 30 -31 c17 -17 28 -38 25 -45 -3 -8 0 -20 6 -28 12 -15 -4 -54 -22 -54 -6 0 -9 -7 -6 -14 4 -10 1 -13 -9 -9 -8 3 -25 -6 -39 -21 -26 -28 -32 -46 -16 -46 5 0 12 -7 15 -15 4 -11 -3 -19 -19 -25 -14 -5 -25 -16 -25 -24 0 -18 24 -38 35 -28 5 4 4 0 0 -8 -13 -21 -13 -90 -1 -90 6 0 4 -5 -4 -10 -13 -8 -13 -10 3 -11 9 -1 23 -2 30 -3 6 0 13 -11 13 -24 1 -12 -1 -20 -4 -17 -3 3 -13 -8 -23 -25 -24 -38 -51 -31 -44 11 5 27 4 28 -15 17 -13 -8 -16 -16 -10 -22 14 -14 12 -29 -2 -20 -8 5 -9 2 -3 -12 16 -38 16 -61 3 -75 -18 -18 -12 -38 20 -63 26 -21 68 -30 86 -18 9 6 66 12 66 7 0 -1 -18 -25 -39 -54 -28 -37 -38 -60 -35 -77 3 -15 -4 -35 -16 -52 -20 -27 -19 -62 1 -62 5 0 9 -8 9 -19 0 -10 10 -31 22 -47 13 -15 17 -25 10 -20 -8 5 -12 0 -12 -13 0 -23 33 -30 46 -10 4 8 9 7 15 -2 6 -11 12 -10 27 4 10 9 22 17 27 17 4 0 19 12 33 27 14 15 31 28 39 29 12 2 12 -1 -1 -15 -9 -10 -16 -22 -16 -28 0 -6 -7 -16 -15 -23 -8 -7 -15 -19 -15 -28 0 -8 -8 -24 -17 -34 -22 -24 -25 -48 -7 -48 22 0 16 -34 -10 -59 -24 -23 -41 -61 -26 -61 4 0 10 -7 14 -15 3 -9 -16 -37 -49 -72 -47 -51 -52 -60 -40 -73 12 -14 11 -20 -10 -44 -14 -16 -25 -31 -25 -33 0 -2 20 -16 45 -32 24 -15 42 -30 39 -33 -2 -3 2 -11 11 -18 12 -10 18 -10 30 0 10 9 15 9 15 1 0 -6 -4 -11 -10 -11 -5 0 -10 -6 -10 -14 0 -7 -7 -19 -15 -26 -9 -7 -14 -19 -11 -27 3 -8 1 -11 -4 -8 -13 8 -33 -42 -31 -75 0 -13 14 -38 31 -55 28 -29 28 -31 10 -45 -10 -9 -20 -21 -22 -28 -2 -8 -18 -30 -35 -50 -18 -20 -33 -42 -33 -49 0 -7 -4 -13 -9 -13 -5 0 -11 -11 -13 -25 -4 -19 3 -32 30 -55 19 -16 39 -27 43 -24 19 11 7 -12 -32 -62 -40 -52 -40 -53 -24 -78 10 -14 25 -26 35 -26 10 0 23 -6 29 -14 9 -11 2 -25 -34 -69 -25 -31 -45 -59 -45 -62 0 -4 -18 -29 -40 -55 -22 -26 -40 -51 -40 -55 0 -3 -6 -13 -14 -21 -12 -12 -11 -18 12 -43 21 -25 29 -28 45 -19 14 7 18 7 12 -1 -4 -7 -1 -19 7 -28 9 -12 9 -15 1 -9 -28 16 -11 -16 28 -55 24 -24 46 -38 55 -35 9 3 19 -4 26 -19 6 -13 15 -22 20 -18 6 3 2 -6 -7 -21 -9 -14 -21 -23 -26 -20 -5 3 -14 -8 -20 -23 -6 -15 -15 -35 -19 -44 -4 -8 -3 -24 3 -35 9 -16 8 -17 -5 -7 -12 11 -19 8 -37 -13 -12 -14 -24 -34 -26 -44 -4 -20 25 -60 44 -60 6 0 11 -4 11 -9 0 -17 29 -20 45 -5 8 8 19 12 25 9 5 -3 10 3 10 14 0 13 7 21 16 21 10 0 14 6 11 14 -6 14 13 27 46 31 13 1 16 -3 11 -17 -4 -14 0 -18 18 -19 13 0 17 -3 10 -6 -6 -2 -10 -9 -6 -14 3 -5 -2 -9 -11 -9 -9 0 -14 -4 -11 -9 3 -5 -10 -23 -29 -40 -20 -17 -33 -31 -30 -31 3 0 -1 -10 -9 -21 -8 -12 -12 -28 -9 -35 3 -9 -1 -14 -12 -14 -9 0 -13 -5 -9 -11 4 -7 1 -10 -7 -7 -15 5 -61 -31 -54 -42 3 -5 -6 -11 -20 -14 -16 -4 -22 -11 -19 -21 4 -8 11 -12 17 -8 6 4 7 1 2 -6 -5 -9 -10 -10 -18 -2 -13 13 -51 15 -43 2 4 -5 -3 -7 -15 -4 -17 5 -20 2 -17 -13 2 -11 11 -18 21 -18 9 1 17 -2 17 -7 0 -5 4 -9 10 -9 5 0 9 3 9 8 -3 19 2 26 10 13 7 -11 12 -10 26 7 10 11 24 18 31 15 9 -3 14 2 14 13 0 11 7 28 15 38 8 11 15 14 15 7 0 -7 5 -9 11 -6 6 4 8 10 5 13 -7 6 13 32 25 32 5 0 10 -10 10 -22 1 -17 2 -19 6 -6 4 14 8 16 24 8 10 -6 19 -17 19 -24 0 -8 15 -27 33 -43 26 -22 32 -34 26 -49 -11 -29 -10 -34 6 -34 20 0 18 -10 -5 -38 -11 -13 -25 -20 -31 -17 -8 5 -9 1 -4 -14 5 -16 3 -20 -9 -15 -9 4 -16 1 -16 -6 0 -7 -8 -19 -17 -26 -13 -9 -14 -13 -4 -14 7 0 11 -6 7 -15 -4 -10 1 -15 14 -15 20 0 23 7 21 45 0 11 2 14 5 7 4 -10 9 -10 19 -2 11 9 13 4 11 -27 -2 -45 -24 -88 -60 -122 -14 -14 -26 -30 -26 -38 0 -7 -5 -13 -12 -13 -6 0 -3 -9 7 -20 15 -17 16 -24 7 -46 -15 -32 -17 -28 19 -63 30 -31 49 -38 63 -23 4 4 11 7 14 8 28 4 71 28 66 36 -4 6 1 8 14 4 42 -14 66 -15 73 -5 3 6 9 7 11 3 3 -5 -6 -24 -19 -43 -12 -19 -23 -28 -23 -21 0 10 -3 10 -15 0 -9 -7 -13 -21 -10 -31 3 -9 1 -20 -5 -24 -5 -3 -10 1 -10 9 0 9 -6 13 -15 10 -13 -5 -13 -8 1 -21 14 -15 10 -29 -17 -53 -23 -21 -88 -125 -79 -128 5 -2 8 -7 5 -12 -5 -9 23 -22 39 -17 5 1 12 -8 17 -21 7 -17 14 -21 35 -18 21 4 23 2 14 -9 -8 -10 -8 -15 1 -20 6 -4 15 -2 19 5 8 13 30 6 30 -9 0 -5 -14 -25 -30 -46 -17 -21 -30 -34 -30 -29 0 5 -4 4 -8 -2 -12 -17 -72 -43 -87 -38 -12 5 -13 -6 -6 -34 1 -1 13 5 29 15 l27 17 -23 -23 c-19 -19 -21 -25 -11 -32 8 -5 23 -2 36 6 28 19 43 20 19 2 -16 -12 -16 -14 -2 -26 12 -10 13 -17 3 -34 -7 -12 -18 -27 -26 -33 -9 -7 -11 -16 -6 -24 6 -10 4 -12 -8 -7 -21 8 -56 -61 -37 -73 14 -8 16 -62 4 -81 -5 -8 -8 -8 -14 0 -4 7 -12 -5 -19 -29 -11 -36 -10 -42 8 -61 11 -12 17 -27 14 -35 -7 -18 42 -68 60 -61 18 7 17 -7 -6 -50 -23 -42 -22 -52 8 -83 l25 -26 -42 -60 c-23 -32 -57 -77 -75 -98 -18 -22 -33 -47 -33 -56 0 -20 59 -55 85 -51 11 2 26 4 34 6 15 2 32 35 24 47 -2 4 2 5 10 2 8 -3 18 0 23 7 4 7 2 15 -4 17 -17 5 -15 22 3 22 9 0 18 6 21 13 3 8 10 14 17 15 32 3 49 10 58 23 7 12 9 12 9 0 0 -11 4 -9 14 4 8 11 12 24 9 29 -4 5 -1 6 5 2 6 -3 16 3 22 15 15 27 69 50 92 38 13 -7 18 -4 24 14 5 12 7 25 6 29 -1 4 6 4 15 1 12 -5 15 -2 11 8 -4 9 2 14 17 14 15 0 21 -5 17 -14 -3 -9 -1 -12 6 -7 7 4 12 3 12 -2 0 -6 -6 -12 -14 -15 -28 -11 -25 -46 6 -78 17 -16 33 -28 35 -25 3 3 16 1 29 -4 23 -9 29 -3 25 22 0 4 5 5 13 2 8 -3 16 3 19 15 4 16 11 19 37 15 21 -4 30 -2 25 5 -3 6 0 11 9 11 8 0 27 15 42 33 15 17 31 32 37 32 5 0 13 7 16 16 7 20 48 9 57 -16 3 -8 10 -13 14 -10 5 3 12 1 15 -5 4 -6 1 -9 -6 -8 -21 5 -20 -17 2 -41 17 -18 23 -20 30 -9 5 7 9 9 9 3 0 -5 5 -2 11 7 7 13 15 15 34 8 15 -6 25 -5 27 1 2 6 12 12 23 13 11 2 19 9 18 14 -2 6 4 9 12 6 8 -3 25 6 39 20 l24 27 33 -37 c19 -19 55 -47 82 -60 43 -22 52 -23 48 -1 0 4 6 7 14 7 8 0 24 9 35 20 11 11 21 19 23 19 8 -5 54 16 64 30 9 11 12 12 13 3 0 -7 5 -10 10 -7 6 4 8 10 5 15 -7 12 16 25 24 14 3 -5 14 -10 23 -12 10 -2 29 -14 43 -28 15 -15 32 -23 41 -20 8 3 17 -1 20 -9 4 -8 10 -15 15 -15 5 0 5 10 0 23 -7 19 -6 23 8 22 9 0 22 -4 28 -8 14 -9 27 9 17 24 -4 7 0 9 12 6 60 -17 86 -19 78 -6 -7 12 -5 12 9 1 9 -8 20 -11 26 -8 5 3 12 0 14 -6 4 -8 6 -7 6 4 1 25 31 50 50 42 77 -32 110 -41 115 -30 3 7 5 5 5 -3 1 -10 9 -7 28 10 14 13 23 18 19 12 -4 -7 -4 -13 1 -14 4 -1 22 -2 38 -4 46 -4 49 -5 42 -11 -3 -3 13 -16 36 -29 24 -12 45 -18 48 -13 3 5 9 2 13 -8 3 -9 9 -14 12 -11 3 3 24 -8 46 -24 29 -20 45 -26 53 -19 6 5 15 7 18 3 4 -3 7 1 7 10 0 20 20 22 39 5 11 -11 13 -10 9 2 -5 12 1 16 23 14 27 -2 34 6 29 31 -1 6 4 4 11 -2 19 -19 36 -16 42 7 3 12 14 20 26 20 14 0 21 6 21 19 0 19 1 19 43 -1 56 -28 107 -34 107 -13 0 10 -5 13 -12 9 -10 -5 -10 -4 0 7 11 12 25 15 81 18 10 1 11 4 3 14 -7 8 -7 18 -2 27 8 12 10 12 10 -4 0 -15 3 -16 15 -6 8 7 12 16 9 21 -7 13 19 7 28 -6 5 -6 8 -5 8 3 0 7 4 11 9 7 5 -3 12 -1 16 5 4 6 11 8 16 5 5 -4 10 -1 10 4 1 6 2 16 3 23 1 15 26 23 26 8 0 -6 4 -9 9 -5 22 13 18 -14 -5 -36 -41 -38 -48 -57 -28 -76 20 -21 61 -43 78 -43 16 0 17 32 2 43 -7 6 -5 7 6 4 9 -3 19 -3 22 1 11 10 36 11 36 1 0 -6 4 -8 9 -5 4 3 7 17 6 30 -3 20 1 24 18 23 12 -1 28 -7 35 -14 7 -7 25 -13 38 -13 14 0 22 -4 19 -10 -3 -6 -1 -10 4 -10 18 0 26 5 24 12 -2 4 3 5 11 2 9 -3 13 1 13 13 -1 10 4 17 11 16 6 -2 12 2 12 8 0 5 5 7 12 3 7 -5 9 -2 5 9 -3 8 0 18 8 21 9 3 12 0 9 -9 -3 -8 3 -23 13 -33 23 -24 83 -54 83 -41 0 21 46 79 59 74 8 -3 11 0 8 9 -4 10 0 12 15 8 15 -4 20 -1 17 9 -5 15 36 61 45 51 3 -3 6 -1 6 4 0 6 9 20 21 33 18 19 27 21 70 16 27 -4 49 -3 49 2 0 13 151 5 168 -9 12 -10 16 -10 19 -1 2 7 10 10 18 7 7 -3 16 0 20 5 3 6 11 9 16 6 13 -9 11 19 -2 32 -8 8 -6 17 10 34 13 14 19 30 15 41 -6 19 10 25 21 8 4 -6 12 -7 18 -3 7 4 19 8 26 8 19 0 20 47 2 69 -7 9 -9 16 -4 16 5 0 9 21 9 46 -1 25 4 50 10 55 7 5 10 18 7 29 -4 14 2 23 19 30 31 14 81 103 67 117 -6 6 -11 17 -13 26 -1 8 -17 32 -35 54 -26 30 -29 39 -17 41 9 2 16 10 16 18 0 11 6 13 22 8 19 -6 21 -5 10 8 -10 12 -8 17 13 26 14 6 25 16 25 22 0 5 5 10 11 10 6 0 17 7 26 16 9 8 22 13 29 10 27 -10 13 21 -28 62 -22 23 -45 42 -50 42 -4 0 -8 7 -8 15 0 8 5 15 10 15 6 0 10 5 10 11 0 5 -6 7 -12 3 -9 -5 -9 -3 1 9 7 9 17 15 21 12 5 -3 11 -1 14 4 8 13 -4 42 -15 35 -13 -8 -5 31 10 49 7 9 20 13 29 10 15 -6 15 -5 3 11 -12 15 -12 17 0 14 8 -2 13 3 12 10 -2 6 2 13 7 13 6 1 16 2 23 3 6 0 13 10 15 21 2 15 -10 30 -41 52 l-44 31 -34 -26 c-19 -15 -40 -33 -48 -40 -16 -15 -20 -12 -26 17 -2 11 1 21 6 21 15 0 39 27 31 35 -4 4 -1 5 7 3 8 -2 19 6 25 18 8 14 19 20 35 17 19 -3 22 -1 12 11 -9 11 -8 15 4 20 9 3 13 2 10 -4 -3 -6 -1 -10 4 -10 10 0 15 14 12 32 0 5 2 7 7 7 23 -4 18 6 -28 51 -32 31 -45 50 -35 50 9 0 14 4 11 9 -3 5 1 12 10 15 8 3 12 10 9 16 -3 5 0 10 9 10 9 0 13 8 11 25 -1 14 1 28 6 31 4 2 5 12 2 21 -4 11 -3 14 5 9 7 -4 12 -3 12 3 0 5 16 25 35 44 19 19 35 38 35 43 0 5 10 14 23 19 12 6 22 19 23 30 1 11 5 28 9 38 4 9 5 23 2 30 -4 10 2 13 20 9 17 -3 24 -1 19 6 -3 6 1 17 9 25 8 9 15 24 15 34 0 21 -49 73 -71 77 -25 5 -78 40 -83 56 -4 8 -9 22 -12 30 -5 13 -4 13 5 0 9 -13 11 -13 11 2 0 10 16 34 35 54 19 19 35 42 35 49 0 7 -16 25 -35 39 -35 27 -62 28 -91 5 -8 -7 -15 3 -21 30 -9 32 -8 38 3 34 8 -3 14 -1 14 5 0 6 -5 12 -11 14 -9 3 -9 9 0 25 16 30 15 34 -17 68 -33 34 -33 60 -3 82 12 8 19 19 15 24 -3 5 0 8 7 7 17 -4 16 19 -5 65 -11 24 -21 35 -29 31 -7 -4 -4 2 7 14 10 12 22 19 27 16 8 -5 31 30 35 54 1 6 -7 12 -19 13 -12 0 -16 3 -9 6 16 6 15 23 -2 23 -12 0 -26 19 -30 40 -1 3 -5 11 -9 18 -8 11 -2 16 16 13 5 -1 20 8 34 19 14 11 22 20 17 20 -5 0 2 7 14 16 21 14 22 41 1 29 -5 -4 -9 -1 -9 4 0 6 5 11 10 11 6 0 -4 18 -21 40 -18 22 -41 40 -51 40 -10 0 -18 5 -18 11 0 5 -14 23 -32 39 -35 33 -43 56 -22 68 11 6 11 12 -1 35 -7 15 -12 27 -9 27 3 0 0 9 -5 19 -9 16 -7 20 14 25 14 4 25 13 25 21 0 8 6 15 14 15 40 0 19 84 -36 147 -35 40 -40 62 -21 88 10 13 25 25 33 25 13 0 13 1 0 10 -11 7 -12 12 -3 21 15 15 -1 49 -24 49 -9 0 -13 3 -10 7 4 3 0 15 -10 25 -14 16 -14 22 -3 43 7 13 16 23 19 22 4 -1 19 10 34 26 15 15 25 27 21 27 -3 0 -1 7 6 15 7 8 17 12 23 8 6 -4 8 3 5 19 -4 20 -1 24 12 21 10 -3 23 6 34 22 17 25 16 27 -14 65 -18 22 -40 40 -50 40 -28 0 -32 28 -8 61 12 16 25 29 28 29 7 0 32 46 36 67 3 17 -31 54 -41 45 -5 -4 -5 -2 -2 5 4 6 -4 20 -18 31 -14 11 -40 42 -59 70 -33 50 -33 51 -15 68 14 13 19 14 19 4 0 -10 3 -11 10 -4 12 12 3 44 -11 44 -5 0 -9 7 -9 15 0 9 -7 18 -15 21 -8 4 -15 12 -15 18 0 7 -5 17 -12 24 -25 25 -13 93 13 76 5 -3 9 4 9 14 0 12 9 22 21 25 14 4 18 10 13 19 -4 7 -4 10 1 6 4 -4 14 -3 22 3 11 10 11 15 1 27 -7 9 -8 13 -3 10 11 -6 36 16 29 26 -2 3 1 2 7 -3 14 -12 39 10 39 34 0 10 -14 34 -32 53 -22 26 -39 36 -59 36 -25 -1 -27 1 -18 18 6 11 17 17 24 14 8 -3 17 -1 20 4 4 6 0 10 -7 11 -7 0 -3 5 9 11 28 14 37 36 21 57 -12 14 -11 14 4 3 21 -17 53 -12 53 8 1 8 6 14 13 12 18 -3 15 9 -10 37 -13 14 -15 19 -5 12 9 -7 17 -10 17 -6 0 4 6 2 14 -4 10 -8 16 -8 25 3 9 11 8 15 -4 20 -8 3 -14 9 -13 13 4 14 -22 52 -42 63 -14 7 -23 6 -34 -6 -9 -8 -16 -13 -16 -10 0 4 -29 -23 -65 -59 -36 -36 -69 -65 -74 -65 -11 0 -41 72 -34 83 3 5 11 6 19 3 8 -3 14 -1 14 4 0 6 -4 10 -8 10 -15 0 0 58 19 76 25 22 24 41 -2 55 -14 7 -18 14 -10 18 13 8 -22 51 -42 51 -7 0 -57 -45 -111 -101 -59 -60 -104 -98 -113 -95 -17 7 -13 27 10 44 19 15 24 37 5 26 -9 -5 -9 -3 1 9 7 9 17 15 21 12 4 -3 13 2 20 10 10 12 9 15 -4 15 -9 0 -16 4 -16 9 0 6 10 8 22 6 33 -7 45 11 43 59 -1 28 -9 51 -23 66 -16 18 -19 27 -11 42 5 10 13 16 17 14 5 -3 14 -1 22 5 11 6 12 9 2 9 -7 0 -10 5 -7 10 12 20 -6 29 -25 13 -10 -9 -17 -20 -14 -24 2 -4 -5 -5 -15 -2 -24 6 -36 43 -14 43 10 0 12 6 8 19 -4 13 2 25 19 39 l25 19 -30 22 c-16 12 -29 27 -29 35 0 13 -41 56 -54 56 -11 0 -60 -42 -131 -111 -106 -104 -112 -110 -147 -128 -25 -13 -28 -11 -60 22 -35 35 -35 35 -62 18 -14 -10 -24 -21 -21 -24 3 -4 2 -5 -1 -2 -15 11 -194 -143 -194 -167 0 -5 -4 -7 -9 -3 -5 3 -12 1 -16 -5 -13 -21 -34 -10 -29 16 3 18 1 23 -7 18 -8 -4 -9 -3 -5 4 4 7 14 12 22 12 20 0 18 17 -3 24 -13 3 -12 4 4 3 21 -2 76 46 66 57 -3 3 1 8 10 12 9 3 13 12 10 20 -4 10 2 17 16 21 22 6 24 12 21 50 -1 15 3 21 12 18 7 -3 20 0 28 5 12 8 13 13 3 30 -7 11 -13 25 -13 32 0 10 2 11 8 0 6 -9 14 -6 30 13 20 23 21 25 3 37 -10 7 -20 18 -22 23 -2 6 -7 9 -11 8 -5 -2 -8 3 -8 11 0 8 -6 16 -14 19 -10 4 -35 -23 -75 -79 -34 -47 -61 -89 -61 -92 -1 -12 -50 -43 -59 -38 -5 4 -7 14 -4 24 4 17 -46 72 -66 72 -5 0 -35 -33 -67 -72 -66 -81 -73 -88 -94 -88 -12 1 -12 3 3 14 9 7 17 16 17 20 0 4 10 20 21 36 13 17 20 37 16 50 -4 15 -1 20 11 18 10 -2 17 4 17 12 0 8 3 18 7 21 9 6 -33 66 -60 85 -18 12 -22 10 -43 -21 -13 -19 -29 -35 -36 -35 -6 0 -22 -15 -34 -32 -13 -18 -38 -51 -56 -72 -18 -22 -33 -46 -33 -54 0 -9 -3 -13 -6 -9 -8 7 -54 -46 -54 -63 0 -6 -4 -9 -9 -6 -9 6 -61 -63 -61 -82 0 -7 -4 -12 -10 -12 -5 0 -22 -13 -37 -30 -31 -35 -43 -38 -36 -10 3 11 10 17 15 14 5 -3 8 0 6 7 -1 8 10 34 25 59 15 25 27 41 27 35 0 -5 8 5 17 23 10 22 19 29 23 21 5 -8 10 -5 15 10 3 11 4 25 0 30 -3 5 -1 12 5 16 5 3 10 0 10 -7 0 -7 6 -4 12 7 6 11 16 23 22 27 7 5 6 8 -4 8 -11 0 -12 2 -3 8 17 11 -26 70 -124 175 -17 18 -26 21 -36 11z m-422 -144 c-3 -5 -11 -10 -16 -10 -6 0 -7 5 -4 10 3 6 11 10 16 10 6 0 7 -4 4 -10z m1800 -60 c3 -5 1 -10 -4 -10 -6 0 -11 5 -11 10 0 6 2 10 4 10 3 0 8 -4 11 -10z m-1857 -39 c-7 -11 -15 -18 -19 -15 -4 2 -9 -6 -12 -17 -3 -12 -10 -18 -16 -15 -15 10 -4 29 27 49 34 21 35 21 20 -2z m1062 -21 c-6 -11 -15 -18 -20 -15 -6 4 -2 17 7 32 19 29 30 15 13 -17z m-1124 -42 c3 -4 -1 -5 -10 -4 -8 1 -18 5 -22 8 -3 4 1 5 10 4 8 -1 18 -5 22 -8z m-38 -23 c-3 -3 -9 2 -12 12 -6 14 -5 15 5 6 7 -7 10 -15 7 -18z m1922 -5 c0 -5 -2 -10 -4 -10 -3 0 -8 5 -11 10 -3 6 -1 10 4 10 6 0 11 -4 11 -10z m-1930 -24 c0 -11 -19 -15 -25 -6 -3 5 1 10 9 10 9 0 16 -2 16 -4z m1886 -25 c-9 -10 -16 -23 -16 -31 0 -9 -3 -10 -13 -1 -8 6 -18 7 -23 3 -5 -4 0 3 10 16 11 12 25 22 33 22 8 0 11 5 7 12 -5 7 -3 8 5 4 9 -6 9 -12 -3 -25z m-569 -53 c-2 -12 -10 -24 -18 -26 -11 -3 -12 -2 -1 6 8 5 13 12 13 16 -2 15 -1 26 4 26 3 0 3 -10 2 -22z m930 -424 c-3 -3 -12 -4 -19 -1 -8 3 -5 6 6 6 11 1 17 -2 13 -5z m153 -1874 c0 -5 -2 -10 -4 -10 -3 0 -8 5 -11 10 -3 6 -1 10 4 10 6 0 11 -4 11 -10z m-790 -23 c14 1 41 4 59 8 25 5 38 3 45 -7 6 -8 22 -20 34 -27 18 -10 22 -18 18 -36 -5 -18 -1 -25 14 -30 11 -3 20 -11 20 -16 0 -5 5 -9 11 -9 13 0 69 -61 68 -75 -2 -21 14 -55 26 -55 6 0 17 -11 23 -24 9 -20 7 -29 -9 -50 -11 -14 -17 -31 -13 -37 4 -8 3 -9 -4 -5 -7 4 -12 3 -12 -3 0 -5 6 -12 13 -15 9 -5 9 -7 -1 -12 -6 -3 -10 -10 -6 -15 3 -5 1 -9 -5 -9 -6 0 -8 -6 -6 -12 5 -13 -89 -118 -122 -136 -13 -8 -22 -5 -38 12 -11 11 -47 30 -79 41 -33 11 -64 25 -70 30 -16 14 -51 12 -71 -5 -13 -11 -20 -11 -36 -2 -17 11 -25 9 -49 -8 -23 -16 -34 -19 -48 -11 -21 11 -100 9 -120 -3 -19 -12 -101 -15 -108 -4 -4 5 -24 6 -48 2 -22 -4 -57 -8 -76 -9 -112 -8 -188 -17 -211 -26 -21 -8 -34 -7 -57 5 -28 14 -32 14 -75 -14 l-45 -28 -27 28 c-24 25 -29 26 -58 16 -18 -6 -43 -18 -56 -25 -20 -11 -25 -11 -32 0 -7 12 -14 11 -40 -4 -29 -16 -34 -16 -56 -2 -19 13 -28 14 -38 5 -8 -7 -20 -8 -27 -4 -6 4 -32 9 -57 10 -64 3 -95 10 -119 25 -17 11 -25 11 -46 0 -23 -13 -28 -11 -64 17 -29 24 -42 28 -50 20 -14 -14 -42 -20 -42 -9 0 10 -32 10 -45 1 -16 -12 -103 -22 -109 -12 -9 15 -101 8 -129 -11 -27 -17 -58 -23 -56 -9 3 18 -3 21 -28 10 -16 -6 -48 -15 -73 -19 -25 -4 -66 -12 -93 -17 -34 -6 -52 -5 -65 4 -11 8 -21 9 -28 3 -6 -5 -30 -11 -52 -13 -23 -3 -57 -12 -76 -21 -19 -9 -40 -17 -48 -19 -7 -1 -19 -5 -25 -9 -7 -4 -24 -2 -39 6 -22 12 -33 12 -66 0 -28 -9 -44 -10 -58 -3 -11 6 -20 7 -20 3 0 -4 -10 4 -21 16 -17 18 -28 22 -52 17 -23 -5 -38 0 -61 18 -37 28 -80 105 -74 132 3 11 -4 36 -14 56 -20 42 -22 52 -8 43 5 -3 10 0 10 8 0 8 12 22 26 32 17 11 23 22 19 33 -3 9 -3 13 0 10 10 -10 65 43 58 56 -3 6 -3 8 1 5 4 -4 23 8 43 27 19 19 39 31 44 29 4 -3 10 -1 14 5 3 5 25 10 48 10 23 0 50 7 61 15 15 11 51 13 185 9 91 -3 195 -10 231 -15 36 -5 80 -12 98 -14 18 -2 37 -7 42 -10 5 -3 11 -1 14 3 5 8 70 15 126 13 159 -6 199 -6 220 2 43 15 84 17 117 5 24 -9 38 -9 55 -1 42 21 73 28 128 29 30 1 87 3 125 4 39 2 80 0 92 -4 13 -4 32 -2 45 6 13 7 61 14 108 15 197 7 268 10 276 15 13 8 88 2 158 -11 47 -9 66 -9 90 1 17 7 45 11 62 9 18 -1 50 7 72 18 33 17 52 19 104 15 49 -5 67 -2 83 10 16 13 33 15 85 10 36 -4 76 -7 90 -7z m750 -1668 c0 -5 -11 -8 -24 -7 -29 3 -27 13 3 15 12 1 21 -2 21 -8z m-3977 -592 c3 -8 -1 -14 -8 -14 -7 0 -11 6 -8 14 3 7 6 13 8 13 2 0 5 -6 8 -13z m20 -55 c-3 -12 -9 -22 -14 -22 -12 0 -11 7 2 32 13 25 20 19 12 -10z m3708 -285 c-10 -9 -11 -8 -5 6 3 10 9 15 12 12 3 -3 0 -11 -7 -18z m-3313 -310 c10 5 13 2 8 -6 -5 -7 -14 -10 -21 -7 -8 3 -16 0 -18 -7 -3 -7 -4 -2 -4 10 1 14 5 19 10 14 5 -5 16 -7 25 -4z" />
</g>
<g transform="translate(-489.5, -267.0) scale(4.5)"><path d="m 135.16928,12.198181 c -10.78874,-0.106036 -23.70091,1.108407 -31.85955,3.394178 -19.704681,5.520575 -33.399496,26.324743 -26.325624,39.991183 1.125302,2.174048 2.279462,5.228458 2.565532,6.787717 1.045758,5.699987 9.161118,20.17368 15.334945,27.3506 1.536185,1.785783 2.792809,3.448024 2.792809,3.694096 0,1.301227 -10.629825,3.655808 -19.411749,4.299675 -2.78703,0.204335 -5.679413,0.730772 -6.427371,1.169679 -1.588111,0.931932 -1.825979,4.337791 -0.340485,4.876531 0.561057,0.20338 0.816662,0.82545 0.568569,1.38218 -0.248102,0.55674 0.03186,1.11547 0.621897,1.24179 0.784572,0.16796 0.75012,0.55014 -0.127996,1.42174 -0.770871,0.76516 -0.898494,1.50855 -0.356894,2.07645 0.464005,0.48652 0.646617,1.32621 0.40612,1.86587 -0.333282,0.74789 0.770525,1.31651 4.641259,2.39105 2.793061,0.77537 6.697224,2.23078 8.67621,3.23465 4.772743,2.42102 5.284851,6.56004 2.467083,19.92986 -8.791704,41.71506 10.807201,70.68184 52.895745,78.17967 5.49445,0.9788 16.73525,0.52187 21.67453,-0.88125 8.12808,-2.30896 7.70098,-7.17527 -0.68753,-7.83552 -4.76562,-0.37509 -4.79805,-0.39886 -3.5312,-2.53142 1.28063,-2.15571 1.51368,-2.01649 -6.0713,-3.63093 -19.28924,-4.10564 -34.85351,-15.52064 -45.40837,-33.30492 -6.36776,-10.72933 -7.504669,-15.36785 -8.635174,-35.2244 -0.473938,-8.32442 -1.304471,-16.62106 -1.846009,-18.43731 -0.984592,-3.30223 -0.984744,-3.30263 2.064246,-4.84909 2.840767,-1.44085 2.888567,-1.51984 0.703933,-1.16075 -1.80665,0.29696 -1.402044,-0.0426 1.761504,-1.48044 13.4455,-6.1107 11.50233,-19.411369 -5.09743,-34.888755 C 84.684714,60.507798 81.092951,50.084556 85.76779,40.937337 89.997492,32.661085 95.909266,27.765832 104.59864,25.34352 c 6.42247,-1.790366 19.20339,-3.534912 20.70724,-2.826248 0.5378,0.25343 2.83587,0.640809 5.10726,0.860829 2.5885,0.250738 4.95095,0.920218 6.33056,1.793763 2.31251,1.46423 2.73729,1.151718 2.25048,-1.656567 -0.35129,-2.026531 9.95257,-0.187916 15.0888,2.692242 3.11634,1.7475 3.58899,1.321833 4.4575,-4.013795 0.80841,-4.96643 -0.13098,-5.978571 -7.72941,-8.324956 -3.4597,-1.068348 -9.16856,-1.60699 -15.64179,-1.670607 z" id="path27552" fill="#ffffff" /><path d="m 307.07039,7.9786544 c -15.0091,0.1176297 -31.69177,3.6678806 -37.88252,9.1295636 -2.31861,2.045563 -1.6522,9.81612 0.90348,10.536714 1.96662,0.55451 3.633,0.131269 3.633,-0.922511 0,-2.095933 21.06904,-6.747569 30.49771,-6.733469 16.43633,0.0246 32.29232,9.261515 32.29232,18.811548 0,4.26332 -7.74005,13.851879 -17.37472,21.523508 -18.25442,14.535143 -24.26504,22.544722 -24.13294,32.159184 0.11872,8.626798 1.48578,10.899348 8.23002,13.679098 6.38968,2.63363 9.48175,2.96451 19.95516,2.13242 10.2528,-0.81456 9.90526,-0.94424 7.94195,2.95124 -4.93766,9.79688 -1.34506,26.65735 9.35993,43.92479 14.05259,22.66728 14.19193,22.99215 12.61181,29.49195 -2.30511,9.48201 -11.72187,15.43315 -37.73346,23.84505 -17.23972,5.57517 -20.68549,7.92861 -14.50059,9.90499 3.21902,1.02861 7.96423,1.00046 12.57705,-0.0745 1.76195,-0.41064 4.19556,-0.74835 5.40749,-0.74967 10.54841,-0.0173 33.26452,-9.88767 37.98676,-16.50562 9.57545,-13.41942 8.4199,-25.58005 -4.48605,-47.22102 -15.6523,-26.24605 -16.90602,-30.03019 -12.07601,-36.43487 4.43081,-5.87535 10.46221,-10.97937 15.90068,-13.45609 8.30284,-3.78116 12.33885,-15.000849 5.39628,-15.000849 -1.72037,0 -3.48298,0.262015 -3.91772,0.582929 -2.32197,1.714028 -27.43684,5.848045 -35.52069,5.846876 -6.7926,-0.0011 -13.79865,-1.547157 -16.28516,-3.593125 -2.65109,-2.181399 0.18307,-5.787658 14.93553,-19.003371 32.19763,-28.843793 34.01634,-53.815686 4.56788,-62.714637 -4.98866,-1.5075093 -11.46487,-2.1635238 -18.28719,-2.1100559 z" id="path27457" fill="#ffffff" /></g><g transform="translate(0, 961)"><g transform="translate(0.000000,571.000000) scale(0.100000,-0.100000)" fill="#FFD700" stroke="none">
<path d="M1968 4583 c-21 -26 -82 -179 -124 -313 -36 -116 -56 -158 -119 -260 -19 -30 -39 -64 -45 -75 -5 -11 -26 -40 -44 -65 -50 -65 -138 -215 -171 -290 -15 -36 -36 -76 -45 -90 -9 -14 -31 -52 -47 -85 -42 -83 -93 -174 -117 -210 -33 -47 -41 -62 -102 -185 -32 -63 -72 -133 -89 -155 -33 -42 -99 -148 -112 -181 -7 -16 -69 -128 -103 -184 -5 -8 -31 -51 -57 -95 -80 -134 -240 -316 -310 -354 -20 -10 -23 -20 -23 -69 0 -32 5 -63 12 -70 7 -7 41 -12 81 -12 70 0 70 0 137 55 78 64 192 195 269 310 30 44 93 136 141 205 48 69 102 151 120 183 50 89 159 146 308 161 l71 7 -2 -158 c-2 -180 5 -204 78 -255 75 -52 304 -98 340 -68 10 8 15 32 15 71 0 54 -2 60 -29 73 -16 9 -48 18 -72 22 -57 9 -114 40 -128 71 -6 13 -11 45 -11 72 0 48 52 531 70 651 6 36 15 94 20 130 5 36 16 115 25 175 25 173 73 383 101 436 44 89 111 252 139 342 32 103 32 190 0 213 -29 22 -158 19 -177 -3z m-302 -1243 c-8 -52 -19 -142 -25 -200 -7 -58 -14 -119 -17 -136 l-4 -31 -108 -10 c-59 -5 -109 -8 -111 -7 -3 3 68 131 246 442 14 24 26 42 28 40 2 -2 -2 -46 -9 -98z" />
<path d="M4526 4498 c-9 -12 -16 -26 -16 -30 0 -5 -34 -95 -75 -201 -42 -105 -99 -250 -127 -322 -44 -114 -136 -325 -237 -550 -18 -38 -53 -112 -79 -163 -44 -87 -50 -95 -104 -125 -66 -36 -83 -66 -75 -133 4 -43 1 -53 -47 -128 -29 -44 -73 -115 -98 -156 -26 -41 -60 -88 -77 -104 -27 -26 -31 -37 -31 -80 0 -46 3 -54 34 -78 29 -23 45 -28 91 -28 71 0 95 12 95 49 0 16 8 39 19 52 18 24 233 372 285 462 31 52 38 55 142 61 82 5 244 35 261 48 23 18 31 -3 42 -119 27 -279 33 -321 46 -368 19 -64 77 -129 130 -144 55 -15 214 -14 245 2 23 11 25 18 25 77 l0 65 -70 3 c-81 4 -94 13 -129 86 -23 50 -34 121 -51 346 -3 41 -10 111 -15 155 -58 470 -65 1034 -15 1175 18 51 20 141 3 158 -7 7 -41 12 -84 12 -64 0 -75 -3 -88 -22z m-89 -825 c-11 -19 18 -360 37 -432 12 -47 12 -49 -5 -40 -10 5 -70 9 -133 9 l-115 0 16 38 c8 20 51 115 94 210 44 95 84 184 89 197 5 14 12 25 15 25 4 0 4 -3 2 -7z m60 -545 c-3 -8 -6 -5 -6 6 -1 11 2 17 5 13 3 -3 4 -12 1 -19z" />
<path d="M3478 4373 c-19 -21 -47 -58 -60 -81 -33 -56 -105 -106 -276 -189 -122 -60 -139 -65 -215 -70 -45 -3 -88 -10 -94 -16 -19 -14 -16 -102 3 -121 12 -13 39 -16 129 -16 127 0 201 18 318 76 l67 34 0 -32 c-1 -49 -18 -214 -30 -288 -6 -36 -13 -195 -16 -355 -5 -304 -24 -620 -49 -792 -28 -202 -108 -440 -190 -563 -49 -73 -44 -69 -197 -147 l-112 -57 -83 3 c-120 3 -123 2 -123 -69 0 -53 3 -61 31 -84 29 -25 37 -26 142 -26 95 0 123 4 182 25 142 52 195 82 270 158 60 60 81 90 123 177 127 267 167 484 192 1040 28 631 56 993 86 1115 11 45 26 73 65 117 47 54 50 61 50 113 1 77 -8 85 -100 85 -76 0 -77 -1 -113 -37z" />
<path d="M2517 4372 c-25 -27 -62 -143 -112 -347 -39 -161 -54 -243 -86 -480 -42 -311 -51 -766 -19 -958 23 -137 48 -192 117 -259 64 -62 121 -88 200 -88 49 0 73 -6 111 -27 72 -40 116 -16 47 27 -31 19 -34 25 -37 77 -3 60 -5 62 -73 83 -50 15 -100 62 -130 120 -21 42 -28 68 -55 208 -33 173 11 698 91 1092 34 170 92 377 120 431 21 42 25 90 9 120 -9 16 -22 19 -89 19 -63 0 -81 -4 -94 -18z" />
<path d="M6895 4266 c-103 -33 -208 -103 -327 -218 -72 -69 -89 -110 -71 -171 l9 -32 79 -3 c65 -2 83 0 104 16 14 10 41 26 59 36 25 13 32 23 32 46 0 23 11 37 55 72 52 41 128 88 142 88 3 0 3 -34 1 -75 -5 -67 -11 -86 -71 -203 -36 -71 -84 -154 -106 -183 -36 -47 -41 -61 -41 -106 0 -64 13 -73 99 -73 58 0 62 2 118 51 99 87 341 237 378 235 46 -4 84 -77 85 -164 0 -81 -65 -356 -130 -546 -169 -496 -279 -732 -486 -1046 -150 -228 -303 -379 -544 -538 -250 -165 -423 -231 -579 -219 -82 6 -101 19 -101 68 0 27 -21 54 -33 42 -4 -3 -7 -22 -7 -42 l0 -36 -97 0 -98 0 -3 -62 c-4 -74 -4 -73 129 -104 83 -18 115 -20 279 -16 146 4 200 9 256 26 212 61 521 257 720 455 190 190 321 380 479 696 140 280 305 725 359 970 10 41 24 103 32 137 20 88 19 337 -2 400 -18 54 -62 106 -105 123 -19 8 -75 11 -166 8 l-138 -3 4 133 c3 148 -8 213 -43 237 -26 19 -213 19 -271 1z" />
<path d="M6037 4156 c-52 -19 -144 -92 -186 -148 -19 -27 -38 -48 -42 -48 -4 0 -9 12 -12 28 -8 37 -48 94 -77 109 -15 7 -63 13 -115 13 -149 0 -215 -45 -336 -224 -79 -117 -110 -179 -159 -322 -87 -251 -114 -456 -107 -798 4 -204 8 -253 26 -321 12 -44 28 -86 36 -94 23 -23 139 -27 170 -7 22 14 25 24 25 72 0 38 -4 56 -14 60 -33 13 -61 244 -53 429 13 264 76 532 170 720 43 88 143 238 180 273 l24 23 25 -33 c27 -37 41 -71 59 -143 10 -46 9 -57 -10 -112 -46 -130 -72 -272 -78 -431 -6 -150 -5 -153 17 -177 20 -22 32 -25 90 -25 84 0 106 16 144 99 43 97 56 178 56 366 l0 171 36 69 c46 87 110 178 163 230 l41 39 40 -39 c24 -23 48 -61 60 -93 53 -141 52 -516 -2 -729 -6 -24 -40 -124 -76 -221 -58 -158 -66 -187 -69 -264 -3 -55 -1 -88 6 -88 5 0 11 -17 13 -37 2 -30 8 -39 25 -41 16 -2 26 5 38 27 13 26 21 31 53 31 21 0 48 7 60 16 19 13 22 24 22 79 0 48 7 80 31 135 42 100 83 237 104 350 23 120 32 512 16 674 -20 204 -87 352 -174 385 -39 15 -174 13 -220 -3z" />
</g>
</g></svg>